SplineFontDB: 3.0
FontName: .SFNSDisplay-Regular
FullName: System Font Regular
FamilyName: System Font
Weight: Book
Copyright: (c) 2014 Apple Inc. All rights reserved.
Version: 11.0d33e2--BETA
ItalicAngle: 0
UnderlinePosition: -125
UnderlineWidth: 50
Ascent: 1638
Descent: 410
InvalidEm: 0
sfntRevision: 0x00010000
LayerCount: 2
Layer: 0 1 "+BBcEMAQ0BD0EOAQ5 +BD8EOwQwBD0A" 1
Layer: 1 1 "+BB8ENQRABDUENAQ9BDgEOQAA +BD8EOwQwBD0A" 0
XUID: [1021 387 1340633646 3300919]
BaseHoriz: 4 'hang' 'ideo' 'math' 'romn'
BaseScript: 'cyrl' 3  0 -216 0 0
BaseScript: 'grek' 3  0 -216 0 0
BaseScript: 'latn' 3  0 -216 0 0
BaseScript: 'thai' 3  0 -216 0 0
StyleMap: 0x0040
FSType: 0
OS2Version: 3
OS2_WeightWidthSlopeOnly: 0
OS2_UseTypoMetrics: 0
CreationTime: 1432154273
ModificationTime: 1482946923
PfmFamily: 81
TTFWeight: 400
TTFWidth: 5
LineGap: 0
VLineGap: 0
Panose: 0 0 5 0 0 0 0 0 0 0
OS2TypoAscent: 1980
OS2TypoAOffset: 0
OS2TypoDescent: -432
OS2TypoDOffset: 0
OS2TypoLinegap: 0
OS2WinAscent: 1980
OS2WinAOffset: 0
OS2WinDescent: 432
OS2WinDOffset: 0
HheadAscent: 1980
HheadAOffset: 0
HheadDescent: -432
HheadDOffset: 0
OS2SubXSize: 1331
OS2SubYSize: 1228
OS2SubXOff: 0
OS2SubYOff: 153
OS2SupXSize: 1331
OS2SupYSize: 1228
OS2SupXOff: 0
OS2SupYOff: 716
OS2StrikeYSize: 50
OS2StrikeYPos: 646
OS2CapHeight: 1443
OS2XHeight: 1078
OS2Vendor: 'UKWN'
OS2CodePages: 2000019f.00000000
OS2UnicodeRanges: 2000028f.00000003.00000000.00000000
Lookup: 1 0 0 "'locl' Localized Forms in Latin lookup 0" { "'locl' Localized Forms in Latin lookup 0 subtable"  } ['locl' ('latn' <'MOL ' 'ROM ' > ) ]
Lookup: 1 0 0 "'locl' Localized Forms in Latin lookup 1" { "'locl' Localized Forms in Latin lookup 1 subtable"  } ['locl' ('latn' <'AZE ' 'CRT ' 'TRK ' > ) ]
Lookup: 4 0 0 "'locl' Localized Forms in Latin lookup 2" { "'locl' Localized Forms in Latin lookup 2 subtable"  } ['locl' ('latn' <'NLD ' > ) ]

StartChar: .notdef
Encoding: 65536 -1 0
Width: 1293
Flags: W
LayerCount: 2
Fore
SplineSet
120 0 m 1,0,-1
 120 1365 l 1,1,-1
 1173 1365 l 1,2,-1
 1173 0 l 1,3,-1
 120 0 l 1,0,-1
501 313 m 0,4,5
 501 266 501 266 534.5 236 c 128,-1,6
 568 206 568 206 621 206 c 0,7,8
 676 206 676 206 709.5 235.5 c 128,-1,9
 743 265 743 265 743 313 c 0,10,11
 743 362 743 362 709.5 391.5 c 128,-1,12
 676 421 676 421 621 421 c 0,13,14
 567 421 567 421 534 391 c 128,-1,15
 501 361 501 361 501 313 c 0,4,5
339 888 m 1,16,-1
 508 888 l 1,17,18
 509 947 509 947 542.5 982.5 c 128,-1,19
 576 1018 576 1018 633 1018 c 0,20,21
 687 1018 687 1018 720 988 c 128,-1,22
 753 958 753 958 753 908 c 0,23,24
 753 870 753 870 732.5 842.5 c 128,-1,25
 712 815 712 815 650 770 c 0,26,27
 581 722 581 722 554 670 c 128,-1,28
 527 618 527 618 532 549 c 2,29,-1
 533 531 l 1,30,-1
 699 531 l 1,31,-1
 699 546 l 2,32,33
 699 594 699 594 718 622 c 128,-1,34
 737 650 737 650 806 699 c 0,35,36
 879 751 879 751 909 801 c 128,-1,37
 939 851 939 851 939 917 c 0,38,39
 939 1030 939 1030 858 1098.5 c 128,-1,40
 777 1167 777 1167 643 1167 c 0,41,42
 500 1167 500 1167 417.5 1091 c 128,-1,43
 335 1015 335 1015 339 888 c 1,16,-1
EndSplineSet
EndChar

StartChar: exclam
Encoding: 33 33 4
Width: 546
GlyphClass: 2
Flags: W
LayerCount: 2
Fore
SplineSet
183 1443 m 1,0,-1
 363 1443 l 1,1,-1
 351 479 l 1,2,-1
 195 479 l 1,3,-1
 183 1443 l 1,0,-1
273 -10 m 0,4,5
 225 -10 225 -10 192 23 c 128,-1,6
 159 56 159 56 159 104 c 0,7,8
 159 153 159 153 192 185.5 c 128,-1,9
 225 218 225 218 273 218 c 0,10,11
 322 218 322 218 354.5 185.5 c 128,-1,12
 387 153 387 153 387 104 c 0,13,14
 387 56 387 56 354.5 23 c 128,-1,15
 322 -10 322 -10 273 -10 c 0,4,5
EndSplineSet
EndChar

StartChar: quotedbl
Encoding: 34 34 5
Width: 807
GlyphClass: 2
Flags: W
LayerCount: 2
Fore
SplineSet
295 934 m 1,0,-1
 135 934 l 1,1,-1
 135 1443 l 1,2,-1
 295 1443 l 1,3,-1
 295 934 l 1,0,-1
672 934 m 1,4,-1
 512 934 l 1,5,-1
 512 1443 l 1,6,-1
 672 1443 l 1,7,-1
 672 934 l 1,4,-1
EndSplineSet
EndChar

StartChar: numbersign
Encoding: 35 35 6
Width: 1206
GlyphClass: 2
Flags: W
LayerCount: 2
Fore
SplineSet
1179 901 m 1,0,-1
 946 901 l 1,1,-1
 875 557 l 1,2,-1
 1094 557 l 1,3,-1
 1066 413 l 1,4,-1
 846 413 l 1,5,-1
 762 0 l 1,6,-1
 619 0 l 1,7,-1
 703 413 l 1,8,-1
 395 413 l 1,9,-1
 311 0 l 1,10,-1
 169 0 l 1,11,-1
 252 413 l 1,12,-1
 36 413 l 1,13,-1
 64 557 l 1,14,-1
 283 557 l 1,15,-1
 352 901 l 1,16,-1
 147 901 l 1,17,-1
 176 1044 l 1,18,-1
 381 1044 l 1,19,-1
 464 1443 l 1,20,-1
 606 1443 l 1,21,-1
 526 1044 l 1,22,-1
 832 1044 l 1,23,-1
 915 1443 l 1,24,-1
 1058 1443 l 1,25,-1
 976 1044 l 1,26,-1
 1207 1044 l 1,27,-1
 1179 901 l 1,0,-1
494 903 m 1,28,-1
 423 554 l 1,29,-1
 733 554 l 1,30,-1
 804 903 l 1,31,-1
 494 903 l 1,28,-1
EndSplineSet
Substitution2: "'case' Case-Sensitive Forms in Latin lookup 4 subtable" numbersign.uc
EndChar

StartChar: dollar
Encoding: 36 36 7
Width: 1239
GlyphClass: 2
Flags: W
LayerCount: 2
Fore
SplineSet
688 -137 m 1,0,-1
 554 -137 l 1,1,-1
 554 -3 l 1,2,3
 351 12 351 12 228.5 120 c 128,-1,4
 106 228 106 228 105 395 c 1,5,-1
 276 395 l 1,6,7
 284 295 284 295 357 231 c 128,-1,8
 430 167 430 167 554 152 c 1,9,-1
 554 672 l 1,10,-1
 474 694 l 2,11,12
 313 736 313 736 226.5 832 c 128,-1,13
 140 928 140 928 140 1067 c 0,14,15
 140 1231 140 1231 251 1336 c 128,-1,16
 362 1441 362 1441 554 1460 c 1,17,-1
 554 1600 l 1,18,-1
 688 1600 l 1,19,-1
 688 1461 l 1,20,21
 875 1445 875 1445 989.5 1338 c 128,-1,22
 1104 1231 1104 1231 1109 1069 c 1,23,-1
 939 1069 l 1,24,25
 936 1162 936 1162 867.5 1227.5 c 128,-1,26
 799 1293 799 1293 688 1306 c 1,27,-1
 688 817 l 1,28,-1
 773 796 l 2,29,30
 957 747 957 747 1045.5 653 c 128,-1,31
 1134 559 1134 559 1134 408 c 0,32,33
 1134 231 1134 231 1016.5 123 c 128,-1,34
 899 15 899 15 688 -2 c 1,35,-1
 688 -137 l 1,0,-1
961 394 m 0,36,37
 961 493 961 493 895 554 c 128,-1,38
 829 615 829 615 688 645 c 1,39,-1
 688 149 l 1,40,41
 818 156 818 156 889.5 220 c 128,-1,42
 961 284 961 284 961 394 c 0,36,37
312 1077 m 0,43,44
 312 897 312 897 554 846 c 1,45,-1
 554 1306 l 1,46,47
 449 1300 449 1300 380.5 1235.5 c 128,-1,48
 312 1171 312 1171 312 1077 c 0,43,44
EndSplineSet
EndChar

StartChar: percent
Encoding: 37 37 8
Width: 1508
GlyphClass: 2
Flags: W
LayerCount: 2
Fore
SplineSet
311 0 m 1,0,-1
 137 0 l 1,1,-1
 1193 1443 l 1,2,-1
 1365 1443 l 1,3,-1
 311 0 l 1,0,-1
1458 344 m 0,4,5
 1458 180 1458 180 1375.5 82 c 128,-1,6
 1293 -16 1293 -16 1156 -16 c 128,-1,7
 1019 -16 1019 -16 936 82.5 c 128,-1,8
 853 181 853 181 853 344 c 128,-1,9
 853 507 853 507 936 605 c 128,-1,10
 1019 703 1019 703 1156 703 c 128,-1,11
 1293 703 1293 703 1375.5 605 c 128,-1,12
 1458 507 1458 507 1458 344 c 0,4,5
1156 106 m 128,-1,14
 1222 106 1222 106 1260 170 c 128,-1,15
 1298 234 1298 234 1298 344 c 0,16,17
 1298 455 1298 455 1260.5 517.5 c 128,-1,18
 1223 580 1223 580 1156 580 c 0,19,20
 1090 580 1090 580 1051.5 516.5 c 128,-1,21
 1013 453 1013 453 1013 344 c 0,22,23
 1013 234 1013 234 1051.5 170 c 128,-1,13
 1090 106 1090 106 1156 106 c 128,-1,14
655 1102 m 0,24,25
 655 938 655 938 572.5 840 c 128,-1,26
 490 742 490 742 353 742 c 128,-1,27
 216 742 216 742 133 840.5 c 128,-1,28
 50 939 50 939 50 1102 c 128,-1,29
 50 1265 50 1265 133 1363 c 128,-1,30
 216 1461 216 1461 353 1461 c 128,-1,31
 490 1461 490 1461 572.5 1363 c 128,-1,32
 655 1265 655 1265 655 1102 c 0,24,25
353 864 m 128,-1,34
 419 864 419 864 457 928 c 128,-1,35
 495 992 495 992 495 1102 c 0,36,37
 495 1213 495 1213 457.5 1275.5 c 128,-1,38
 420 1338 420 1338 353 1338 c 0,39,40
 287 1338 287 1338 248.5 1274.5 c 128,-1,41
 210 1211 210 1211 210 1102 c 0,42,43
 210 992 210 992 248.5 928 c 128,-1,33
 287 864 287 864 353 864 c 128,-1,34
EndSplineSet
EndChar

StartChar: ampersand
Encoding: 38 38 9
Width: 1370
GlyphClass: 2
Flags: W
LayerCount: 2
Fore
SplineSet
1161 0 m 1,0,-1
 1027 145 l 1,1,2
 936 64 936 64 815.5 20 c 128,-1,3
 695 -24 695 -24 566 -24 c 0,4,5
 352 -24 352 -24 217 90 c 128,-1,6
 82 204 82 204 82 384 c 0,7,8
 82 634 82 634 365 784 c 0,9,10
 417 811 417 811 420 812 c 1,11,12
 323 915 323 915 282 991.5 c 128,-1,13
 241 1068 241 1068 241 1147 c 0,14,15
 241 1284 241 1284 345 1375.5 c 128,-1,16
 449 1467 449 1467 605 1467 c 0,17,18
 764 1467 764 1467 867 1376 c 128,-1,19
 970 1285 970 1285 970 1145 c 0,20,21
 970 1035 970 1035 898 948.5 c 128,-1,22
 826 862 826 862 661 775 c 1,23,-1
 1018 390 l 1,24,25
 1087 519 1087 519 1087 774 c 2,26,-1
 1087 817 l 1,27,-1
 1253 817 l 1,28,-1
 1253 773 l 2,29,30
 1253 456 1253 456 1134 269 c 1,31,-1
 1387 0 l 1,32,-1
 1161 0 l 1,0,-1
468 679 m 0,33,34
 356 611 356 611 308 545 c 128,-1,35
 260 479 260 479 260 396 c 0,36,37
 260 275 260 275 349 200.5 c 128,-1,38
 438 126 438 126 582 126 c 0,39,40
 679 126 679 126 771.5 162.5 c 128,-1,41
 864 199 864 199 922 260 c 1,42,-1
 516 705 l 1,43,44
 487 692 487 692 468 679 c 0,33,34
565 876 m 1,45,46
 694 942 694 942 748 1002 c 128,-1,47
 802 1062 802 1062 802 1139 c 0,48,49
 802 1222 802 1222 747.5 1274 c 128,-1,50
 693 1326 693 1326 606 1326 c 0,51,52
 521 1326 521 1326 466 1273 c 128,-1,53
 411 1220 411 1220 411 1137 c 0,54,55
 411 1078 411 1078 446 1019 c 128,-1,56
 481 960 481 960 565 876 c 1,45,46
EndSplineSet
EndChar

StartChar: quotesingle
Encoding: 39 39 10
Width: 430
GlyphClass: 2
Flags: W
LayerCount: 2
Fore
SplineSet
295 934 m 1,0,-1
 135 934 l 1,1,-1
 135 1443 l 1,2,-1
 295 1443 l 1,3,-1
 295 934 l 1,0,-1
EndSplineSet
EndChar

StartChar: parenleft
Encoding: 40 40 11
Width: 636
GlyphClass: 2
Flags: W
LayerCount: 2
Fore
SplineSet
598 -277 m 1,0,-1
 445 -277 l 1,1,2
 407 -230 407 -230 373.5 -176.5 c 128,-1,3
 340 -123 340 -123 302 -41 c 128,-1,4
 264 41 264 41 237.5 131.5 c 128,-1,5
 211 222 211 222 193 344 c 128,-1,6
 175 466 175 466 175 599 c 128,-1,7
 175 732 175 732 193 849.5 c 128,-1,8
 211 967 211 967 236 1048 c 128,-1,9
 261 1129 261 1129 302.5 1209 c 128,-1,10
 344 1289 344 1289 376 1335.5 c 128,-1,11
 408 1382 408 1382 455 1442 c 1,12,-1
 601 1442 l 1,13,14
 564 1398 564 1398 525.5 1330 c 128,-1,15
 487 1262 487 1262 445.5 1158.5 c 128,-1,16
 404 1055 404 1055 378 908.5 c 128,-1,17
 352 762 352 762 352 601 c 0,18,19
 352 491 352 491 363 390.5 c 128,-1,20
 374 290 374 290 396.5 203 c 128,-1,21
 419 116 419 116 439.5 52 c 128,-1,22
 460 -12 460 -12 494.5 -83 c 128,-1,23
 529 -154 529 -154 546.5 -186.5 c 128,-1,24
 564 -219 564 -219 598 -277 c 1,0,-1
EndSplineSet
Substitution2: "'frac' Diagonal Fractions in Latin lookup 9 subtable" parenleft.numr
Substitution2: "'sups' Superscript in Latin lookup 8 subtable" parenleft.sups
Substitution2: "'subs' Subscript in Latin lookup 7 subtable" parenleft.subs
Substitution2: "'case' Case-Sensitive Forms in Latin lookup 4 subtable" parenleft.uc
EndChar

StartChar: parenright
Encoding: 41 41 12
Width: 636
GlyphClass: 2
Flags: W
LayerCount: 2
Fore
SplineSet
37 -277 m 1,0,1
 71 -219 71 -219 88.5 -186.5 c 128,-1,2
 106 -154 106 -154 140.5 -83 c 128,-1,3
 175 -12 175 -12 195.5 52 c 128,-1,4
 216 116 216 116 238.5 203 c 128,-1,5
 261 290 261 290 272 390.5 c 128,-1,6
 283 491 283 491 283 601 c 0,7,8
 283 762 283 762 257 909 c 128,-1,9
 231 1056 231 1056 190 1159 c 128,-1,10
 149 1262 149 1262 111 1330.5 c 128,-1,11
 73 1399 73 1399 35 1442 c 1,12,-1
 181 1442 l 1,13,14
 228 1382 228 1382 260 1335.5 c 128,-1,15
 292 1289 292 1289 333.5 1209 c 128,-1,16
 375 1129 375 1129 400 1048 c 128,-1,17
 425 967 425 967 443 849.5 c 128,-1,18
 461 732 461 732 461 599 c 0,19,20
 461 62 461 62 190 -277 c 1,21,-1
 37 -277 l 1,0,1
EndSplineSet
Substitution2: "'frac' Diagonal Fractions in Latin lookup 9 subtable" parenright.numr
Substitution2: "'sups' Superscript in Latin lookup 8 subtable" parenright.sups
Substitution2: "'subs' Subscript in Latin lookup 7 subtable" parenright.subs
Substitution2: "'case' Case-Sensitive Forms in Latin lookup 4 subtable" parenright.uc
EndChar

StartChar: asterisk
Encoding: 42 42 13
Width: 988
GlyphClass: 2
Flags: W
LayerCount: 2
Fore
SplineSet
790 885 m 1,0,-1
 545 1045 l 1,1,-1
 561 754 l 1,2,-1
 427 754 l 1,3,-1
 443 1046 l 1,4,-1
 198 885 l 1,5,-1
 133 1001 l 1,6,-1
 392 1133 l 1,7,-1
 133 1264 l 1,8,-1
 198 1382 l 1,9,-1
 443 1219 l 1,10,-1
 427 1513 l 1,11,-1
 561 1513 l 1,12,-1
 545 1219 l 1,13,-1
 790 1382 l 1,14,-1
 855 1264 l 1,15,-1
 597 1133 l 1,16,-1
 855 1001 l 1,17,-1
 790 885 l 1,0,-1
EndSplineSet
Substitution2: "'case' Case-Sensitive Forms in Latin lookup 4 subtable" asterisk.uc
EndChar

StartChar: plus
Encoding: 43 43 14
Width: 1238
GlyphClass: 2
Flags: W
LayerCount: 2
Fore
SplineSet
700 488 m 1,0,-1
 700 30 l 1,1,-1
 538 30 l 1,2,-1
 538 488 l 1,3,-1
 111 488 l 1,4,-1
 111 650 l 1,5,-1
 538 650 l 1,6,-1
 538 1097 l 1,7,-1
 700 1097 l 1,8,-1
 700 650 l 1,9,-1
 1127 650 l 1,10,-1
 1127 488 l 1,11,-1
 700 488 l 1,0,-1
EndSplineSet
Substitution2: "'frac' Diagonal Fractions in Latin lookup 9 subtable" plus.numr
Substitution2: "'sups' Superscript in Latin lookup 8 subtable" plus.sups
Substitution2: "'subs' Subscript in Latin lookup 7 subtable" plus.subs
Substitution2: "'case' Case-Sensitive Forms in Latin lookup 4 subtable" plus.uc
EndChar

StartChar: comma
Encoding: 44 44 15
Width: 538
GlyphClass: 2
Flags: W
LayerCount: 2
Fore
SplineSet
234 -257 m 1,0,-1
 99 -257 l 1,1,-1
 199 202 l 1,2,-1
 384 202 l 1,3,-1
 234 -257 l 1,0,-1
EndSplineSet
EndChar

StartChar: hyphen
Encoding: 45 45 16
Width: 878
GlyphClass: 2
Flags: W
LayerCount: 2
Fore
SplineSet
767 488 m 1,0,-1
 111 488 l 1,1,-1
 111 650 l 1,2,-1
 767 650 l 1,3,-1
 767 488 l 1,0,-1
EndSplineSet
Substitution2: "'case' Case-Sensitive Forms in Latin lookup 4 subtable" hyphen.uc
EndChar

StartChar: period
Encoding: 46 46 17
Width: 520
GlyphClass: 2
Flags: W
LayerCount: 2
Fore
SplineSet
260 -10 m 0,0,1
 212 -10 212 -10 179 23 c 128,-1,2
 146 56 146 56 146 104 c 0,3,4
 146 153 146 153 179 185.5 c 128,-1,5
 212 218 212 218 260 218 c 0,6,7
 309 218 309 218 341.5 185.5 c 128,-1,8
 374 153 374 153 374 104 c 0,9,10
 374 56 374 56 341.5 23 c 128,-1,11
 309 -10 309 -10 260 -10 c 0,0,1
EndSplineSet
EndChar

StartChar: slash
Encoding: 47 47 18
Width: 590
GlyphClass: 2
Flags: W
LayerCount: 2
Fore
SplineSet
146 -329 m 1,0,-1
 0 -329 l 1,1,-1
 441 1444 l 1,2,-1
 590 1444 l 1,3,-1
 146 -329 l 1,0,-1
EndSplineSet
Substitution2: "'frac' Diagonal Fractions in Latin lookup 11 subtable" fraction
Substitution2: "'case' Case-Sensitive Forms in Latin lookup 4 subtable" slash.uc
EndChar

StartChar: zero
Encoding: 48 48 19
Width: 1242
GlyphClass: 2
Flags: W
LayerCount: 2
Fore
SplineSet
622 -24 m 0,0,1
 371 -24 371 -24 230.5 176.5 c 128,-1,2
 90 377 90 377 90 722 c 0,3,4
 90 1064 90 1064 231.5 1265.5 c 128,-1,5
 373 1467 373 1467 622 1467 c 128,-1,6
 871 1467 871 1467 1011.5 1266.5 c 128,-1,7
 1152 1066 1152 1066 1152 723 c 0,8,9
 1152 378 1152 378 1012 177 c 128,-1,10
 872 -24 872 -24 622 -24 c 0,0,1
622 133 m 128,-1,12
 789 133 789 133 880 290.5 c 128,-1,13
 971 448 971 448 971 722 c 0,14,15
 971 992 971 992 879 1150.5 c 128,-1,16
 787 1309 787 1309 622 1309 c 128,-1,17
 457 1309 457 1309 364 1150 c 128,-1,18
 271 991 271 991 271 723 c 0,19,20
 271 449 271 449 363 291 c 128,-1,11
 455 133 455 133 622 133 c 128,-1,12
EndSplineSet
Substitution2: "'frac' Diagonal Fractions in Latin lookup 9 subtable" zero.numr
Substitution2: "'sups' Superscript in Latin lookup 8 subtable" zero.sups
Substitution2: "'subs' Subscript in Latin lookup 7 subtable" zero.subs
Substitution2: "'tnum' Tabular Numbers in Latin lookup 6 subtable" zero.tnum
EndChar

StartChar: one
Encoding: 49 49 20
Width: 908
GlyphClass: 2
Flags: W
LayerCount: 2
Fore
SplineSet
485 0 m 1,0,-1
 485 1252 l 1,1,-1
 481 1252 l 1,2,-1
 99 977 l 1,3,-1
 99 1167 l 1,4,-1
 483 1443 l 1,5,-1
 659 1443 l 1,6,-1
 659 0 l 1,7,-1
 485 0 l 1,0,-1
EndSplineSet
Substitution2: "'frac' Diagonal Fractions in Latin lookup 9 subtable" one.numr
Substitution2: "'sups' Superscript in Latin lookup 8 subtable" one.sups
Substitution2: "'subs' Subscript in Latin lookup 7 subtable" one.subs
Substitution2: "'tnum' Tabular Numbers in Latin lookup 6 subtable" one.tnum
EndChar

StartChar: two
Encoding: 50 50 21
Width: 1159
GlyphClass: 2
Flags: W
LayerCount: 2
Fore
SplineSet
108 1027 m 2,0,1
 108 1216 108 1216 244 1341.5 c 128,-1,2
 380 1467 380 1467 584 1467 c 0,3,4
 777 1467 777 1467 911 1352 c 128,-1,5
 1045 1237 1045 1237 1045 1071 c 0,6,7
 1045 951 1045 951 979 840 c 128,-1,8
 913 729 913 729 731 541 c 2,9,-1
 366 164 l 1,10,-1
 366 160 l 1,11,-1
 1069 160 l 1,12,-1
 1069 0 l 1,13,-1
 117 0 l 1,14,-1
 117 124 l 1,15,-1
 625 659 l 2,16,17
 770 812 770 812 817.5 891 c 128,-1,18
 865 970 865 970 865 1060 c 0,19,20
 865 1164 865 1164 781.5 1237 c 128,-1,21
 698 1310 698 1310 579 1310 c 0,22,23
 452 1310 452 1310 367 1229 c 128,-1,24
 282 1148 282 1148 282 1027 c 2,25,-1
 282 1026 l 1,26,-1
 108 1026 l 1,27,-1
 108 1027 l 2,0,1
EndSplineSet
Substitution2: "'frac' Diagonal Fractions in Latin lookup 9 subtable" two.numr
Substitution2: "'sups' Superscript in Latin lookup 8 subtable" two.sups
Substitution2: "'subs' Subscript in Latin lookup 7 subtable" two.subs
Substitution2: "'tnum' Tabular Numbers in Latin lookup 6 subtable" two.tnum
EndChar

StartChar: three
Encoding: 51 51 22
Width: 1212
GlyphClass: 2
Flags: W
LayerCount: 2
Fore
SplineSet
411 666 m 1,0,-1
 411 818 l 1,1,-1
 584 818 l 2,2,3
 708 818 708 818 787 889.5 c 128,-1,4
 866 961 866 961 866 1071 c 128,-1,5
 866 1181 866 1181 793 1246 c 128,-1,6
 720 1311 720 1311 586 1311 c 0,7,8
 462 1311 462 1311 384 1245 c 128,-1,9
 306 1179 306 1179 294 1065 c 1,10,-1
 121 1065 l 1,11,12
 136 1249 136 1249 263.5 1358 c 128,-1,13
 391 1467 391 1467 594 1467 c 0,14,15
 789 1467 789 1467 918 1362 c 128,-1,16
 1047 1257 1047 1257 1047 1095 c 0,17,18
 1047 960 1047 960 967 868 c 128,-1,19
 887 776 887 776 751 752 c 1,20,-1
 751 748 l 1,21,22
 915 738 915 738 1012 643.5 c 128,-1,23
 1109 549 1109 549 1109 397 c 0,24,25
 1109 276 1109 276 1041 179 c 128,-1,26
 973 82 973 82 857 29 c 128,-1,27
 741 -24 741 -24 600 -24 c 0,28,29
 376 -24 376 -24 239 88 c 128,-1,30
 102 200 102 200 92 382 c 1,31,-1
 265 382 l 1,32,33
 277 269 277 269 366 200.5 c 128,-1,34
 455 132 455 132 598 132 c 128,-1,35
 741 132 741 132 833.5 205 c 128,-1,36
 926 278 926 278 926 391 c 0,37,38
 926 518 926 518 836.5 592 c 128,-1,39
 747 666 747 666 592 666 c 2,40,-1
 411 666 l 1,0,-1
EndSplineSet
Substitution2: "'frac' Diagonal Fractions in Latin lookup 9 subtable" three.numr
Substitution2: "'sups' Superscript in Latin lookup 8 subtable" three.sups
Substitution2: "'subs' Subscript in Latin lookup 7 subtable" three.subs
Substitution2: "'tnum' Tabular Numbers in Latin lookup 6 subtable" three.tnum
EndChar

StartChar: four
Encoding: 52 52 23
Width: 1239
GlyphClass: 2
Flags: W
LayerCount: 2
Fore
SplineSet
803 0 m 1,0,-1
 803 300 l 1,1,-1
 78 300 l 1,2,-1
 78 463 l 1,3,4
 171 636 171 636 314.5 858 c 128,-1,5
 458 1080 458 1080 711 1443 c 1,6,-1
 977 1443 l 1,7,-1
 977 458 l 1,8,-1
 1181 458 l 1,9,-1
 1181 300 l 1,10,-1
 977 300 l 1,11,-1
 977 0 l 1,12,-1
 803 0 l 1,0,-1
256 462 m 1,13,-1
 256 458 l 1,14,-1
 803 458 l 1,15,-1
 803 1293 l 1,16,-1
 800 1293 l 1,17,18
 421 752 421 752 256 462 c 1,13,-1
EndSplineSet
Substitution2: "'cv03' Character Variants 03 in Latin lookup 17 subtable" four.1
Substitution2: "'ss02' Style Set 2 in Latin lookup 13 subtable" four.1
Substitution2: "'frac' Diagonal Fractions in Latin lookup 9 subtable" four.numr
Substitution2: "'sups' Superscript in Latin lookup 8 subtable" four.sups
Substitution2: "'subs' Subscript in Latin lookup 7 subtable" four.subs
Substitution2: "'tnum' Tabular Numbers in Latin lookup 6 subtable" four.tnum
EndChar

StartChar: five
Encoding: 53 53 24
Width: 1198
GlyphClass: 2
Flags: W
LayerCount: 2
Fore
SplineSet
613 -24 m 0,0,1
 406 -24 406 -24 267.5 93 c 128,-1,2
 129 210 129 210 118 394 c 1,3,-1
 295 394 l 1,4,5
 307 279 307 279 396 206.5 c 128,-1,6
 485 134 485 134 615 134 c 0,7,8
 762 134 762 134 854.5 226 c 128,-1,9
 947 318 947 318 947 464 c 128,-1,10
 947 610 947 610 854.5 703.5 c 128,-1,11
 762 797 762 797 618 797 c 0,12,13
 517 797 517 797 435 754 c 128,-1,14
 353 711 353 711 309 635 c 1,15,-1
 140 635 l 1,16,-1
 219 1443 l 1,17,-1
 1045 1443 l 1,18,-1
 1045 1283 l 1,19,-1
 367 1283 l 1,20,-1
 323 813 l 1,21,-1
 327 813 l 1,22,23
 376 878 376 878 461.5 915 c 128,-1,24
 547 952 547 952 650 952 c 0,25,26
 858 952 858 952 992.5 815.5 c 128,-1,27
 1127 679 1127 679 1127 469 c 0,28,29
 1127 252 1127 252 983 114 c 128,-1,30
 839 -24 839 -24 613 -24 c 0,0,1
EndSplineSet
Substitution2: "'frac' Diagonal Fractions in Latin lookup 9 subtable" five.numr
Substitution2: "'sups' Superscript in Latin lookup 8 subtable" five.sups
Substitution2: "'subs' Subscript in Latin lookup 7 subtable" five.subs
Substitution2: "'tnum' Tabular Numbers in Latin lookup 6 subtable" five.tnum
EndChar

StartChar: six
Encoding: 54 54 25
Width: 1226
GlyphClass: 2
Flags: W
LayerCount: 2
Fore
SplineSet
639 -25 m 0,0,1
 477 -25 477 -25 353 59.5 c 128,-1,2
 229 144 229 144 162 300 c 0,3,4
 91 464 91 464 91 697 c 0,5,6
 91 1062 91 1062 238.5 1265 c 128,-1,7
 386 1468 386 1468 651 1468 c 0,8,9
 835 1468 835 1468 965 1366 c 128,-1,10
 1095 1264 1095 1264 1130 1094 c 1,11,-1
 947 1094 l 1,12,13
 918 1192 918 1192 837 1250.5 c 128,-1,14
 756 1309 756 1309 649 1309 c 0,15,16
 468 1309 468 1309 369 1154 c 128,-1,17
 270 999 270 999 265 711 c 1,18,-1
 268 711 l 1,19,20
 317 817 317 817 427 881 c 128,-1,21
 537 945 537 945 671 945 c 0,22,23
 877 945 877 945 1013.5 809 c 128,-1,24
 1150 673 1150 673 1150 468 c 0,25,26
 1150 254 1150 254 1005.5 114.5 c 128,-1,27
 861 -25 861 -25 639 -25 c 0,0,1
637 135 m 128,-1,29
 775 135 775 135 871 230 c 128,-1,30
 967 325 967 325 967 462 c 0,31,32
 967 604 967 604 875 695.5 c 128,-1,33
 783 787 783 787 640 787 c 128,-1,34
 497 787 497 787 402.5 696 c 128,-1,35
 308 605 308 605 308 467 c 0,36,37
 308 328 308 328 403.5 231.5 c 128,-1,28
 499 135 499 135 637 135 c 128,-1,29
EndSplineSet
Substitution2: "'cv01' Character Variants 01 in Latin lookup 15 subtable" six.1
Substitution2: "'ss01' Style Set 1 in Latin lookup 12 subtable" six.1
Substitution2: "'frac' Diagonal Fractions in Latin lookup 9 subtable" six.1.numr
Substitution2: "'sups' Superscript in Latin lookup 8 subtable" six.1.sups
Substitution2: "'subs' Subscript in Latin lookup 7 subtable" six.1.subs
Substitution2: "'tnum' Tabular Numbers in Latin lookup 6 subtable" six.tnum
EndChar

StartChar: seven
Encoding: 55 55 26
Width: 1120
GlyphClass: 2
Flags: W
LayerCount: 2
Fore
SplineSet
200 0 m 1,0,-1
 853 1279 l 1,1,-1
 853 1283 l 1,2,-1
 76 1283 l 1,3,-1
 76 1443 l 1,4,-1
 1031 1443 l 1,5,-1
 1031 1276 l 1,6,-1
 389 0 l 1,7,-1
 200 0 l 1,0,-1
EndSplineSet
Substitution2: "'frac' Diagonal Fractions in Latin lookup 9 subtable" seven.numr
Substitution2: "'sups' Superscript in Latin lookup 8 subtable" seven.sups
Substitution2: "'subs' Subscript in Latin lookup 7 subtable" seven.subs
Substitution2: "'tnum' Tabular Numbers in Latin lookup 6 subtable" seven.tnum
EndChar

StartChar: eight
Encoding: 56 56 27
Width: 1227
GlyphClass: 2
Flags: W
LayerCount: 2
Fore
SplineSet
613 -24 m 0,0,1
 384 -24 384 -24 237 92.5 c 128,-1,2
 90 209 90 209 90 390 c 0,3,4
 90 525 90 525 175 627 c 128,-1,5
 260 729 260 729 400 761 c 1,6,-1
 400 765 l 1,7,8
 283 801 283 801 215 887.5 c 128,-1,9
 147 974 147 974 147 1088 c 0,10,11
 147 1251 147 1251 279.5 1359 c 128,-1,12
 412 1467 412 1467 613 1467 c 0,13,14
 815 1467 815 1467 946.5 1359.5 c 128,-1,15
 1078 1252 1078 1252 1078 1087 c 0,16,17
 1078 974 1078 974 1011 888 c 128,-1,18
 944 802 944 802 826 765 c 1,19,-1
 826 761 l 1,20,21
 966 728 966 728 1051.5 626 c 128,-1,22
 1137 524 1137 524 1137 390 c 0,23,24
 1137 209 1137 209 990 92.5 c 128,-1,25
 843 -24 843 -24 613 -24 c 0,0,1
613 133 m 0,26,27
 762 133 762 133 857.5 209 c 128,-1,28
 953 285 953 285 953 403 c 0,29,30
 953 522 953 522 857.5 598 c 128,-1,31
 762 674 762 674 613 674 c 128,-1,32
 464 674 464 674 368.5 597.5 c 128,-1,33
 273 521 273 521 273 403 c 128,-1,34
 273 285 273 285 369 209 c 128,-1,35
 465 133 465 133 613 133 c 0,26,27
613 832 m 0,36,37
 739 832 739 832 819.5 899 c 128,-1,38
 900 966 900 966 900 1071 c 0,39,40
 900 1177 900 1177 820 1244.5 c 128,-1,41
 740 1312 740 1312 613 1312 c 128,-1,42
 486 1312 486 1312 406 1244.5 c 128,-1,43
 326 1177 326 1177 326 1071 c 0,44,45
 326 966 326 966 406 899 c 128,-1,46
 486 832 486 832 613 832 c 0,36,37
EndSplineSet
Substitution2: "'frac' Diagonal Fractions in Latin lookup 9 subtable" eight.numr
Substitution2: "'sups' Superscript in Latin lookup 8 subtable" eight.sups
Substitution2: "'subs' Subscript in Latin lookup 7 subtable" eight.subs
Substitution2: "'tnum' Tabular Numbers in Latin lookup 6 subtable" eight.tnum
EndChar

StartChar: nine
Encoding: 57 57 28
Width: 1226
GlyphClass: 2
Flags: W
LayerCount: 2
Fore
SplineSet
576 -24 m 0,0,1
 392 -24 392 -24 261 78 c 128,-1,2
 130 180 130 180 97 350 c 1,3,-1
 280 350 l 1,4,5
 309 252 309 252 390 192.5 c 128,-1,6
 471 133 471 133 578 133 c 0,7,8
 758 133 758 133 857.5 289.5 c 128,-1,9
 957 446 957 446 961 734 c 1,10,-1
 960 734 l 1,11,-1
 958 734 l 1,12,13
 912 627 912 627 802.5 562.5 c 128,-1,14
 693 498 693 498 555 498 c 0,15,16
 349 498 349 498 212.5 634 c 128,-1,17
 76 770 76 770 76 975 c 0,18,19
 76 1189 76 1189 220.5 1328.5 c 128,-1,20
 365 1468 365 1468 587 1468 c 0,21,22
 750 1468 750 1468 874 1383.5 c 128,-1,23
 998 1299 998 1299 1064 1144 c 0,24,25
 1135 980 1135 980 1135 746 c 0,26,27
 1135 381 1135 381 988 178.5 c 128,-1,28
 841 -24 841 -24 576 -24 c 0,0,1
586 656 m 0,29,30
 729 656 729 656 824 747 c 128,-1,31
 919 838 919 838 919 976 c 0,32,33
 919 1115 919 1115 823.5 1210.5 c 128,-1,34
 728 1306 728 1306 589 1306 c 128,-1,35
 450 1306 450 1306 354 1211.5 c 128,-1,36
 258 1117 258 1117 258 981 c 0,37,38
 258 840 258 840 351 748 c 128,-1,39
 444 656 444 656 586 656 c 0,29,30
EndSplineSet
Substitution2: "'cv02' Character Variants 02 in Latin lookup 16 subtable" nine.1
Substitution2: "'ss01' Style Set 1 in Latin lookup 12 subtable" nine.1
Substitution2: "'frac' Diagonal Fractions in Latin lookup 9 subtable" nine.1.numr
Substitution2: "'sups' Superscript in Latin lookup 8 subtable" nine.1.sups
Substitution2: "'subs' Subscript in Latin lookup 7 subtable" nine.1.subs
Substitution2: "'tnum' Tabular Numbers in Latin lookup 6 subtable" nine.tnum
EndChar

StartChar: colon
Encoding: 58 58 29
Width: 520
GlyphClass: 2
Flags: W
LayerCount: 2
Fore
SplineSet
260 -10 m 0,0,1
 212 -10 212 -10 179 23 c 128,-1,2
 146 56 146 56 146 104 c 0,3,4
 146 153 146 153 179 185.5 c 128,-1,5
 212 218 212 218 260 218 c 0,6,7
 309 218 309 218 341.5 185.5 c 128,-1,8
 374 153 374 153 374 104 c 0,9,10
 374 56 374 56 341.5 23 c 128,-1,11
 309 -10 309 -10 260 -10 c 0,0,1
260 726 m 0,12,13
 212 726 212 726 179 759 c 128,-1,14
 146 792 146 792 146 840 c 0,15,16
 146 889 146 889 179 921.5 c 128,-1,17
 212 954 212 954 260 954 c 0,18,19
 309 954 309 954 341.5 921.5 c 128,-1,20
 374 889 374 889 374 840 c 0,21,22
 374 792 374 792 341.5 759 c 128,-1,23
 309 726 309 726 260 726 c 0,12,13
EndSplineSet
Substitution2: "Single Substitution lookup 19 subtable" colon.case
Substitution2: "'cv04' Character Variants 04 in Latin lookup 18 subtable" colon.case
Substitution2: "'ss03' Style Set 3 in Latin lookup 14 subtable" colon.case
Substitution2: "'case' Case-Sensitive Forms in Latin lookup 3 subtable" colon.case
EndChar

StartChar: semicolon
Encoding: 59 59 30
Width: 520
GlyphClass: 2
Flags: W
LayerCount: 2
Fore
SplineSet
260 726 m 0,0,1
 212 726 212 726 179 759 c 128,-1,2
 146 792 146 792 146 840 c 0,3,4
 146 889 146 889 179 921.5 c 128,-1,5
 212 954 212 954 260 954 c 0,6,7
 309 954 309 954 341.5 921.5 c 128,-1,8
 374 889 374 889 374 840 c 0,9,10
 374 792 374 792 341.5 759 c 128,-1,11
 309 726 309 726 260 726 c 0,0,1
197 -257 m 1,12,-1
 62 -257 l 1,13,-1
 160 202 l 1,14,-1
 347 202 l 1,15,-1
 197 -257 l 1,12,-1
EndSplineSet
EndChar

StartChar: less
Encoding: 60 60 31
Width: 1239
GlyphClass: 2
Flags: W
LayerCount: 2
Fore
SplineSet
1059 980 m 1,0,-1
 352 580 l 1,1,-1
 352 571 l 1,2,-1
 1059 193 l 1,3,-1
 1059 7 l 1,4,-1
 180 498 l 1,5,-1
 180 640 l 1,6,-1
 1059 1166 l 1,7,-1
 1059 980 l 1,0,-1
EndSplineSet
Substitution2: "'case' Case-Sensitive Forms in Latin lookup 4 subtable" less.uc
EndChar

StartChar: equal
Encoding: 61 61 32
Width: 1239
GlyphClass: 2
Flags: W
LayerCount: 2
Fore
SplineSet
1108 301 m 1,0,-1
 131 301 l 1,1,-1
 131 455 l 1,2,-1
 1108 455 l 1,3,-1
 1108 301 l 1,0,-1
1108 684 m 1,4,-1
 131 684 l 1,5,-1
 131 838 l 1,6,-1
 1108 838 l 1,7,-1
 1108 684 l 1,4,-1
EndSplineSet
Substitution2: "'frac' Diagonal Fractions in Latin lookup 9 subtable" equal.numr
Substitution2: "'sups' Superscript in Latin lookup 8 subtable" equal.sups
Substitution2: "'subs' Subscript in Latin lookup 7 subtable" equal.subs
Substitution2: "'case' Case-Sensitive Forms in Latin lookup 4 subtable" equal.uc
EndChar

StartChar: greater
Encoding: 62 62 33
Width: 1239
GlyphClass: 2
Flags: W
LayerCount: 2
Fore
SplineSet
180 981 m 1,0,-1
 180 1167 l 1,1,-1
 1059 641 l 1,2,-1
 1059 499 l 1,3,-1
 180 8 l 1,4,-1
 180 194 l 1,5,-1
 887 572 l 1,6,-1
 887 581 l 1,7,-1
 180 981 l 1,0,-1
EndSplineSet
Substitution2: "'case' Case-Sensitive Forms in Latin lookup 4 subtable" greater.uc
EndChar

StartChar: question
Encoding: 63 63 34
Width: 1002
GlyphClass: 2
Flags: W
LayerCount: 2
Fore
SplineSet
56 1066 m 1,0,1
 65 1237 65 1237 177.5 1345.5 c 128,-1,2
 290 1454 290 1454 492 1454 c 0,3,4
 679 1454 679 1454 797.5 1351 c 128,-1,5
 916 1248 916 1248 916 1092 c 0,6,7
 916 873 916 873 707 747 c 0,8,9
 613 691 613 691 578.5 641 c 128,-1,10
 544 591 544 591 544 511 c 2,11,-1
 544 446 l 1,12,-1
 369 446 l 1,13,-1
 369 538 l 2,14,15
 368 636 368 636 416.5 708 c 128,-1,16
 465 780 465 780 569 842 c 0,17,18
 657 896 657 896 693.5 950 c 128,-1,19
 730 1004 730 1004 730 1083 c 0,20,21
 730 1177 730 1177 662.5 1237.5 c 128,-1,22
 595 1298 595 1298 485 1298 c 0,23,24
 372 1298 372 1298 303.5 1236 c 128,-1,25
 235 1174 235 1174 227 1066 c 1,26,-1
 56 1066 l 1,0,1
457 -10 m 0,27,28
 409 -10 409 -10 376 23 c 128,-1,29
 343 56 343 56 343 104 c 0,30,31
 343 153 343 153 376 185.5 c 128,-1,32
 409 218 409 218 457 218 c 0,33,34
 506 218 506 218 538.5 185.5 c 128,-1,35
 571 153 571 153 571 104 c 0,36,37
 571 56 571 56 538.5 23 c 128,-1,38
 506 -10 506 -10 457 -10 c 0,27,28
EndSplineSet
EndChar

StartChar: at
Encoding: 64 64 35
Width: 1791
GlyphClass: 2
Flags: W
LayerCount: 2
Fore
SplineSet
889 875 m 0,0,1
 789 875 789 875 732.5 801 c 128,-1,2
 676 727 676 727 676 596 c 0,3,4
 676 466 676 466 732.5 391 c 128,-1,5
 789 316 789 316 887 316 c 0,6,7
 990 316 990 316 1051 392 c 128,-1,8
 1112 468 1112 468 1112 596 c 128,-1,9
 1112 724 1112 724 1051.5 799.5 c 128,-1,10
 991 875 991 875 889 875 c 0,0,1
924 1435 m 0,11,12
 1097 1435 1097 1435 1245.5 1381.5 c 128,-1,13
 1394 1328 1394 1328 1500 1232.5 c 128,-1,14
 1606 1137 1606 1137 1666 999.5 c 128,-1,15
 1726 862 1726 862 1726 699 c 0,16,17
 1726 457 1726 457 1625 311.5 c 128,-1,18
 1524 166 1524 166 1350 166 c 0,19,20
 1263 166 1263 166 1199 213 c 128,-1,21
 1135 260 1135 260 1126 334 c 1,22,-1
 1118 334 l 1,23,24
 1086 258 1086 258 1019.5 216.5 c 128,-1,25
 953 175 953 175 864 175 c 0,26,27
 708 175 708 175 612 292 c 128,-1,28
 516 409 516 409 516 600 c 0,29,30
 516 782 516 782 613 897.5 c 128,-1,31
 710 1013 710 1013 864 1013 c 0,32,33
 944 1013 944 1013 1011 974.5 c 128,-1,34
 1078 936 1078 936 1106 872 c 1,35,-1
 1114 872 l 1,36,-1
 1114 994 l 1,37,-1
 1265 994 l 1,38,-1
 1265 407 l 2,39,40
 1265 356 1265 356 1293.5 326 c 128,-1,41
 1322 296 1322 296 1378 296 c 0,42,43
 1470 296 1470 296 1527.5 403.5 c 128,-1,44
 1585 511 1585 511 1585 701 c 0,45,46
 1585 880 1585 880 1500 1018.5 c 128,-1,47
 1415 1157 1415 1157 1261.5 1233 c 128,-1,48
 1108 1309 1108 1309 911 1309 c 0,49,50
 719 1309 719 1309 565.5 1218.5 c 128,-1,51
 412 1128 412 1128 325.5 964.5 c 128,-1,52
 239 801 239 801 239 595 c 0,53,54
 239 429 239 429 292.5 295 c 128,-1,55
 346 161 346 161 440.5 73.5 c 128,-1,56
 535 -14 535 -14 663.5 -60.5 c 128,-1,57
 792 -107 792 -107 943 -107 c 0,58,59
 1044 -107 1044 -107 1137 -94 c 128,-1,60
 1230 -81 1230 -81 1278 -59 c 1,61,-1
 1278 -185 l 1,62,63
 1139 -234 1139 -234 941 -234 c 0,64,65
 757 -234 757 -234 603 -178.5 c 128,-1,66
 449 -123 449 -123 336.5 -19 c 128,-1,67
 224 85 224 85 161 244 c 128,-1,68
 98 403 98 403 98 601 c 0,69,70
 98 786 98 786 159 941.5 c 128,-1,71
 220 1097 220 1097 328.5 1205.5 c 128,-1,72
 437 1314 437 1314 590.5 1374.5 c 128,-1,73
 744 1435 744 1435 924 1435 c 0,11,12
EndSplineSet
Substitution2: "'case' Case-Sensitive Forms in Latin lookup 4 subtable" at.uc
EndChar

StartChar: A
Encoding: 65 65 36
Width: 1292
GlyphClass: 2
Flags: W
LayerCount: 2
Fore
SplineSet
1078 0 m 1,0,-1
 933 413 l 1,1,-1
 359 413 l 1,2,-1
 214 0 l 1,3,-1
 25 0 l 1,4,-1
 557 1443 l 1,5,-1
 735 1443 l 1,6,-1
 1267 0 l 1,7,-1
 1078 0 l 1,0,-1
643 1224 m 1,8,-1
 412 566 l 1,9,-1
 880 566 l 1,10,-1
 649 1224 l 1,11,-1
 643 1224 l 1,8,-1
EndSplineSet
EndChar

StartChar: B
Encoding: 66 66 37
Width: 1256
GlyphClass: 2
Flags: W
LayerCount: 2
Fore
SplineSet
703 0 m 2,0,-1
 140 0 l 1,1,-1
 140 1443 l 1,2,-1
 705 1443 l 2,3,4
 890 1443 890 1443 1004.5 1344 c 128,-1,5
 1119 1245 1119 1245 1119 1083 c 0,6,7
 1119 970 1119 970 1046.5 878.5 c 128,-1,8
 974 787 974 787 870 768 c 1,9,-1
 870 760 l 1,10,11
 1017 741 1017 741 1104.5 645 c 128,-1,12
 1192 549 1192 549 1192 405 c 0,13,14
 1192 214 1192 214 1062.5 107 c 128,-1,15
 933 0 933 0 703 0 c 2,0,-1
320 1284 m 1,16,-1
 320 821 l 1,17,-1
 608 821 l 2,18,19
 768 821 768 821 852.5 883 c 128,-1,20
 937 945 937 945 937 1062 c 0,21,22
 937 1169 937 1169 866 1226.5 c 128,-1,23
 795 1284 795 1284 664 1284 c 2,24,-1
 320 1284 l 1,16,-1
320 159 m 1,25,-1
 676 159 l 2,26,27
 839 159 839 159 923 224 c 128,-1,28
 1007 289 1007 289 1007 414 c 0,29,30
 1007 666 1007 666 659 666 c 2,31,-1
 320 666 l 1,32,-1
 320 159 l 1,25,-1
EndSplineSet
EndChar

StartChar: C
Encoding: 67 67 38
Width: 1405
GlyphClass: 2
Flags: W
LayerCount: 2
Fore
SplineSet
734 -24 m 0,0,1
 435 -24 435 -24 259.5 177.5 c 128,-1,2
 84 379 84 379 84 722 c 0,3,4
 84 1062 84 1062 261 1264.5 c 128,-1,5
 438 1467 438 1467 734 1467 c 0,6,7
 970 1467 970 1467 1134.5 1335.5 c 128,-1,8
 1299 1204 1299 1204 1333 988 c 1,9,-1
 1151 988 l 1,10,11
 1116 1130 1116 1130 1002 1215.5 c 128,-1,12
 888 1301 888 1301 734 1301 c 0,13,14
 523 1301 523 1301 396 1143 c 128,-1,15
 269 985 269 985 269 722 c 0,16,17
 269 456 269 456 395 299 c 128,-1,18
 521 142 521 142 735 142 c 0,19,20
 894 142 894 142 1003 215 c 128,-1,21
 1112 288 1112 288 1151 420 c 1,22,-1
 1333 420 l 1,23,24
 1283 206 1283 206 1128 91 c 128,-1,25
 973 -24 973 -24 734 -24 c 0,0,1
EndSplineSet
EndChar

StartChar: D
Encoding: 68 68 39
Width: 1399
GlyphClass: 2
Flags: W
LayerCount: 2
Fore
SplineSet
140 1443 m 1,0,-1
 635 1443 l 2,1,2
 956 1443 956 1443 1136 1252.5 c 128,-1,3
 1316 1062 1316 1062 1316 722 c 0,4,5
 1316 381 1316 381 1136.5 190.5 c 128,-1,6
 957 0 957 0 635 0 c 2,7,-1
 140 0 l 1,8,-1
 140 1443 l 1,0,-1
320 1281 m 1,9,-1
 320 162 l 1,10,-1
 623 162 l 2,11,12
 868 162 868 162 1000 306.5 c 128,-1,13
 1132 451 1132 451 1132 720 c 0,14,15
 1132 991 1132 991 1000.5 1136 c 128,-1,16
 869 1281 869 1281 623 1281 c 2,17,-1
 320 1281 l 1,9,-1
EndSplineSet
EndChar

StartChar: E
Encoding: 69 69 40
Width: 1131
GlyphClass: 2
Flags: W
LayerCount: 2
Fore
SplineSet
1034 162 m 1,0,-1
 1034 0 l 1,1,-1
 140 0 l 1,2,-1
 140 1443 l 1,3,-1
 1034 1443 l 1,4,-1
 1034 1281 l 1,5,-1
 320 1281 l 1,6,-1
 320 818 l 1,7,-1
 997 818 l 1,8,-1
 997 658 l 1,9,-1
 320 658 l 1,10,-1
 320 162 l 1,11,-1
 1034 162 l 1,0,-1
EndSplineSet
EndChar

StartChar: F
Encoding: 70 70 41
Width: 1081
GlyphClass: 2
Flags: W
LayerCount: 2
Fore
SplineSet
320 0 m 1,0,-1
 140 0 l 1,1,-1
 140 1443 l 1,2,-1
 1016 1443 l 1,3,-1
 1016 1281 l 1,4,-1
 320 1281 l 1,5,-1
 320 785 l 1,6,-1
 959 785 l 1,7,-1
 959 625 l 1,8,-1
 320 625 l 1,9,-1
 320 0 l 1,0,-1
EndSplineSet
EndChar

StartChar: G
Encoding: 71 71 42
Width: 1447
GlyphClass: 2
Flags: W
LayerCount: 2
Fore
SplineSet
1357 597 m 2,0,1
 1357 304 1357 304 1195.5 140 c 128,-1,2
 1034 -24 1034 -24 745 -24 c 0,3,4
 443 -24 443 -24 263.5 180.5 c 128,-1,5
 84 385 84 385 84 729 c 0,6,7
 84 1067 84 1067 263 1267 c 128,-1,8
 442 1467 442 1467 745 1467 c 0,9,10
 979 1467 979 1467 1143.5 1338.5 c 128,-1,11
 1308 1210 1308 1210 1348 995 c 1,12,-1
 1159 995 l 1,13,14
 1114 1141 1114 1141 1005.5 1221 c 128,-1,15
 897 1301 897 1301 745 1301 c 0,16,17
 522 1301 522 1301 395.5 1149.5 c 128,-1,18
 269 998 269 998 269 730 c 0,19,20
 269 458 269 458 397 300 c 128,-1,21
 525 142 525 142 745 142 c 0,22,23
 937 142 937 142 1057 255.5 c 128,-1,24
 1177 369 1177 369 1177 550 c 2,25,-1
 1177 576 l 1,26,-1
 770 576 l 1,27,-1
 770 734 l 1,28,-1
 1357 734 l 1,29,-1
 1357 597 l 2,0,1
EndSplineSet
EndChar

StartChar: H
Encoding: 72 72 43
Width: 1432
GlyphClass: 2
Flags: W
LayerCount: 2
Fore
SplineSet
1292 0 m 1,0,-1
 1112 0 l 1,1,-1
 1112 657 l 1,2,-1
 320 657 l 1,3,-1
 320 0 l 1,4,-1
 140 0 l 1,5,-1
 140 1443 l 1,6,-1
 320 1443 l 1,7,-1
 320 819 l 1,8,-1
 1112 819 l 1,9,-1
 1112 1443 l 1,10,-1
 1292 1443 l 1,11,-1
 1292 0 l 1,0,-1
EndSplineSet
EndChar

StartChar: I
Encoding: 73 73 44
Width: 460
GlyphClass: 2
Flags: W
LayerCount: 2
Fore
SplineSet
320 0 m 1,0,-1
 140 0 l 1,1,-1
 140 1443 l 1,2,-1
 320 1443 l 1,3,-1
 320 0 l 1,0,-1
EndSplineSet
EndChar

StartChar: J
Encoding: 74 74 45
Width: 1014
GlyphClass: 2
Flags: W
LayerCount: 2
Fore
SplineSet
42 339 m 1,0,-1
 221 339 l 1,1,2
 224 247 224 247 287.5 189.5 c 128,-1,3
 351 132 351 132 449 132 c 0,4,5
 568 132 568 132 631 201.5 c 128,-1,6
 694 271 694 271 694 403 c 2,7,-1
 694 1443 l 1,8,-1
 874 1443 l 1,9,-1
 874 402 l 2,10,11
 874 197 874 197 762 81.5 c 128,-1,12
 650 -34 650 -34 450 -34 c 0,13,14
 270 -34 270 -34 156 70.5 c 128,-1,15
 42 175 42 175 42 339 c 1,0,-1
EndSplineSet
EndChar

StartChar: K
Encoding: 75 75 46
Width: 1260
GlyphClass: 2
Flags: W
LayerCount: 2
Fore
SplineSet
320 0 m 1,0,-1
 140 0 l 1,1,-1
 140 1443 l 1,2,-1
 320 1443 l 1,3,-1
 320 739 l 1,4,-1
 330 739 l 1,5,-1
 967 1443 l 1,6,-1
 1194 1443 l 1,7,-1
 601 804 l 1,8,-1
 1247 0 l 1,9,-1
 1017 0 l 1,10,-1
 476 676 l 1,11,-1
 320 504 l 1,12,-1
 320 0 l 1,0,-1
EndSplineSet
EndChar

StartChar: L
Encoding: 76 76 47
Width: 1074
GlyphClass: 2
Flags: W
LayerCount: 2
Fore
SplineSet
1016 162 m 1,0,-1
 1016 0 l 1,1,-1
 140 0 l 1,2,-1
 140 1443 l 1,3,-1
 320 1443 l 1,4,-1
 320 162 l 1,5,-1
 1016 162 l 1,0,-1
EndSplineSet
EndChar

StartChar: M
Encoding: 77 77 48
Width: 1702
GlyphClass: 2
Flags: W
LayerCount: 2
Fore
SplineSet
1562 1443 m 1,0,-1
 1562 0 l 1,1,-1
 1394 0 l 1,2,-1
 1394 1112 l 1,3,-1
 1387 1112 l 1,4,-1
 927 10 l 1,5,-1
 775 10 l 1,6,-1
 315 1112 l 1,7,-1
 308 1112 l 1,8,-1
 308 0 l 1,9,-1
 140 0 l 1,10,-1
 140 1443 l 1,11,-1
 349 1443 l 1,12,-1
 847 239 l 1,13,-1
 855 239 l 1,14,-1
 1353 1443 l 1,15,-1
 1562 1443 l 1,0,-1
EndSplineSet
EndChar

StartChar: N
Encoding: 78 78 49
Width: 1432
GlyphClass: 2
Flags: W
LayerCount: 2
Fore
SplineSet
318 0 m 1,0,-1
 140 0 l 1,1,-1
 140 1443 l 1,2,-1
 315 1443 l 1,3,-1
 1105 310 l 1,4,-1
 1114 310 l 1,5,-1
 1114 1443 l 1,6,-1
 1292 1443 l 1,7,-1
 1292 0 l 1,8,-1
 1117 0 l 1,9,-1
 327 1129 l 1,10,-1
 318 1129 l 1,11,-1
 318 0 l 1,0,-1
EndSplineSet
EndChar

StartChar: O
Encoding: 79 79 50
Width: 1498
GlyphClass: 2
Flags: W
LayerCount: 2
Fore
SplineSet
749 1467 m 128,-1,1
 1056 1467 1056 1467 1235 1266 c 128,-1,2
 1414 1065 1414 1065 1414 721 c 128,-1,3
 1414 377 1414 377 1235 176.5 c 128,-1,4
 1056 -24 1056 -24 749 -24 c 128,-1,5
 442 -24 442 -24 263 176.5 c 128,-1,6
 84 377 84 377 84 721 c 128,-1,7
 84 1065 84 1065 263 1266 c 128,-1,0
 442 1467 442 1467 749 1467 c 128,-1,1
749 1301 m 128,-1,9
 528 1301 528 1301 398.5 1144.5 c 128,-1,10
 269 988 269 988 269 721 c 0,11,12
 269 455 269 455 398.5 298.5 c 128,-1,13
 528 142 528 142 749 142 c 128,-1,14
 970 142 970 142 1099.5 298.5 c 128,-1,15
 1229 455 1229 455 1229 721 c 0,16,17
 1229 988 1229 988 1099.5 1144.5 c 128,-1,8
 970 1301 970 1301 749 1301 c 128,-1,9
EndSplineSet
EndChar

StartChar: P
Encoding: 80 80 51
Width: 1213
GlyphClass: 2
Flags: W
LayerCount: 2
Fore
SplineSet
140 1443 m 1,0,-1
 685 1443 l 2,1,2
 888 1443 888 1443 1017.5 1313.5 c 128,-1,3
 1147 1184 1147 1184 1147 980 c 0,4,5
 1147 775 1147 775 1017 645 c 128,-1,6
 887 515 887 515 683 515 c 2,7,-1
 320 515 l 1,8,-1
 320 0 l 1,9,-1
 140 0 l 1,10,-1
 140 1443 l 1,0,-1
320 1283 m 1,11,-1
 320 675 l 1,12,-1
 638 675 l 2,13,14
 792 675 792 675 877 755.5 c 128,-1,15
 962 836 962 836 962 980 c 128,-1,16
 962 1124 962 1124 877.5 1203.5 c 128,-1,17
 793 1283 793 1283 638 1283 c 2,18,-1
 320 1283 l 1,11,-1
EndSplineSet
EndChar

StartChar: Q
Encoding: 81 81 52
Width: 1498
GlyphClass: 2
Flags: W
LayerCount: 2
Fore
SplineSet
1343 -163 m 1,0,-1
 1141 -163 l 1,1,-1
 1007 21 l 1,2,3
 892 -24 892 -24 749 -24 c 0,4,5
 442 -24 442 -24 263 176.5 c 128,-1,6
 84 377 84 377 84 721 c 128,-1,7
 84 1065 84 1065 263 1266 c 128,-1,8
 442 1467 442 1467 749 1467 c 128,-1,9
 1056 1467 1056 1467 1235 1266 c 128,-1,10
 1414 1065 1414 1065 1414 721 c 0,11,12
 1414 513 1414 513 1346 354 c 128,-1,13
 1278 195 1278 195 1152 100 c 1,14,-1
 1343 -163 l 1,0,-1
749 142 m 0,15,16
 830 142 830 142 902 165 c 1,17,-1
 722 413 l 1,18,-1
 924 413 l 1,19,-1
 1047 245 l 1,20,21
 1135 319 1135 319 1182 441 c 128,-1,22
 1229 563 1229 563 1229 721 c 0,23,24
 1229 988 1229 988 1099.5 1144.5 c 128,-1,25
 970 1301 970 1301 749 1301 c 128,-1,26
 528 1301 528 1301 398.5 1144.5 c 128,-1,27
 269 988 269 988 269 721 c 0,28,29
 269 455 269 455 398.5 298.5 c 128,-1,30
 528 142 528 142 749 142 c 0,15,16
EndSplineSet
EndChar

StartChar: R
Encoding: 82 82 53
Width: 1237
GlyphClass: 2
Flags: W
LayerCount: 2
Fore
SplineSet
320 1283 m 1,0,-1
 320 730 l 1,1,-1
 675 730 l 2,2,3
 814 730 814 730 889.5 802 c 128,-1,4
 965 874 965 874 965 1007 c 0,5,6
 965 1137 965 1137 886 1210 c 128,-1,7
 807 1283 807 1283 667 1283 c 2,8,-1
 320 1283 l 1,0,-1
320 571 m 1,9,-1
 320 0 l 1,10,-1
 140 0 l 1,11,-1
 140 1443 l 1,12,-1
 691 1443 l 2,13,14
 900 1443 900 1443 1025.5 1325.5 c 128,-1,15
 1151 1208 1151 1208 1151 1013 c 0,16,17
 1151 862 1151 862 1074 752 c 128,-1,18
 997 642 997 642 861 599 c 1,19,-1
 1195 0 l 1,20,-1
 984 0 l 1,21,-1
 675 571 l 1,22,-1
 320 571 l 1,9,-1
EndSplineSet
EndChar

StartChar: S
Encoding: 83 83 54
Width: 1216
GlyphClass: 2
Flags: W
LayerCount: 2
Fore
SplineSet
71 397 m 1,0,-1
 252 397 l 1,1,2
 265 280 265 280 366.5 209 c 128,-1,3
 468 138 468 138 623 138 c 0,4,5
 769 138 769 138 864.5 207.5 c 128,-1,6
 960 277 960 277 960 383 c 0,7,8
 960 474 960 474 893.5 533 c 128,-1,9
 827 592 827 592 681 630 c 2,10,-1
 496 678 l 2,11,12
 296 729 296 729 204 820.5 c 128,-1,13
 112 912 112 912 112 1059 c 0,14,15
 112 1239 112 1239 254.5 1353 c 128,-1,16
 397 1467 397 1467 622 1467 c 0,17,18
 837 1467 837 1467 978 1351.5 c 128,-1,19
 1119 1236 1119 1236 1125 1055 c 1,20,-1
 945 1055 l 1,21,22
 933 1171 933 1171 845 1238 c 128,-1,23
 757 1305 757 1305 616 1305 c 0,24,25
 476 1305 476 1305 387.5 1239 c 128,-1,26
 299 1173 299 1173 299 1067 c 0,27,28
 299 985 299 985 363.5 932.5 c 128,-1,29
 428 880 428 880 575 842 c 2,30,-1
 726 802 l 2,31,32
 950 746 950 746 1048 653 c 128,-1,33
 1146 560 1146 560 1146 405 c 0,34,35
 1146 207 1146 207 1000.5 91.5 c 128,-1,36
 855 -24 855 -24 606 -24 c 0,37,38
 376 -24 376 -24 230 91 c 128,-1,39
 84 206 84 206 71 397 c 1,0,-1
EndSplineSet
EndChar

StartChar: T
Encoding: 84 84 55
Width: 1210
GlyphClass: 2
Flags: W
LayerCount: 2
Fore
SplineSet
695 0 m 1,0,-1
 515 0 l 1,1,-1
 515 1281 l 1,2,-1
 50 1281 l 1,3,-1
 50 1443 l 1,4,-1
 1160 1443 l 1,5,-1
 1160 1281 l 1,6,-1
 695 1281 l 1,7,-1
 695 0 l 1,0,-1
EndSplineSet
EndChar

StartChar: U
Encoding: 85 85 56
Width: 1426
GlyphClass: 2
Flags: W
LayerCount: 2
Fore
SplineSet
320 1443 m 1,0,-1
 320 518 l 2,1,2
 320 351 320 351 424.5 246.5 c 128,-1,3
 529 142 529 142 713 142 c 128,-1,4
 897 142 897 142 1001.5 246.5 c 128,-1,5
 1106 351 1106 351 1106 518 c 2,6,-1
 1106 1443 l 1,7,-1
 1286 1443 l 1,8,-1
 1286 506 l 2,9,10
 1286 271 1286 271 1131.5 123.5 c 128,-1,11
 977 -24 977 -24 713 -24 c 128,-1,12
 449 -24 449 -24 294.5 123.5 c 128,-1,13
 140 271 140 271 140 506 c 2,14,-1
 140 1443 l 1,15,-1
 320 1443 l 1,0,-1
EndSplineSet
EndChar

StartChar: V
Encoding: 86 86 57
Width: 1292
GlyphClass: 2
Flags: W
LayerCount: 2
Fore
SplineSet
735 0 m 1,0,-1
 557 0 l 1,1,-1
 25 1443 l 1,2,-1
 214 1443 l 1,3,-1
 643 219 l 1,4,-1
 649 219 l 1,5,-1
 1078 1443 l 1,6,-1
 1267 1443 l 1,7,-1
 735 0 l 1,0,-1
EndSplineSet
EndChar

StartChar: W
Encoding: 87 87 58
Width: 1892
GlyphClass: 2
Flags: W
LayerCount: 2
Fore
SplineSet
941 1145 m 1,0,-1
 608 0 l 1,1,-1
 438 0 l 1,2,-1
 45 1443 l 1,3,-1
 233 1443 l 1,4,-1
 522 265 l 1,5,-1
 530 265 l 1,6,-1
 855 1443 l 1,7,-1
 1037 1443 l 1,8,-1
 1362 265 l 1,9,-1
 1370 265 l 1,10,-1
 1659 1443 l 1,11,-1
 1847 1443 l 1,12,-1
 1454 0 l 1,13,-1
 1284 0 l 1,14,-1
 951 1145 l 1,15,-1
 941 1145 l 1,0,-1
EndSplineSet
EndChar

StartChar: X
Encoding: 88 88 59
Width: 1300
GlyphClass: 2
Flags: W
LayerCount: 2
Fore
SplineSet
45 0 m 1,0,-1
 536 723 l 1,1,-1
 536 730 l 1,2,-1
 51 1443 l 1,3,-1
 268 1443 l 1,4,-1
 653 863 l 1,5,-1
 660 863 l 1,6,-1
 1050 1443 l 1,7,-1
 1255 1443 l 1,8,-1
 757 721 l 1,9,-1
 757 715 l 1,10,-1
 1244 0 l 1,11,-1
 1028 0 l 1,12,-1
 645 575 l 1,13,-1
 638 575 l 1,14,-1
 249 0 l 1,15,-1
 45 0 l 1,0,-1
EndSplineSet
EndChar

StartChar: Y
Encoding: 89 89 60
Width: 1254
GlyphClass: 2
Flags: W
LayerCount: 2
Fore
SplineSet
717 0 m 1,0,-1
 537 0 l 1,1,-1
 537 621 l 1,2,-1
 25 1443 l 1,3,-1
 230 1443 l 1,4,-1
 624 795 l 1,5,-1
 630 795 l 1,6,-1
 1024 1443 l 1,7,-1
 1229 1443 l 1,8,-1
 717 621 l 1,9,-1
 717 0 l 1,0,-1
EndSplineSet
EndChar

StartChar: Z
Encoding: 90 90 61
Width: 1263
GlyphClass: 2
Flags: W
LayerCount: 2
Fore
SplineSet
98 0 m 1,0,-1
 98 128 l 1,1,-1
 921 1274 l 1,2,-1
 921 1281 l 1,3,-1
 126 1281 l 1,4,-1
 126 1443 l 1,5,-1
 1148 1443 l 1,6,-1
 1148 1315 l 1,7,-1
 329 169 l 1,8,-1
 329 162 l 1,9,-1
 1165 162 l 1,10,-1
 1165 0 l 1,11,-1
 98 0 l 1,0,-1
EndSplineSet
EndChar

StartChar: bracketleft
Encoding: 91 91 62
Width: 664
GlyphClass: 2
Flags: W
LayerCount: 2
Fore
SplineSet
205 1444 m 1,0,-1
 657 1444 l 1,1,-1
 657 1308 l 1,2,-1
 373 1308 l 1,3,-1
 373 -105 l 1,4,-1
 669 -105 l 1,5,-1
 669 -240 l 1,6,-1
 205 -240 l 1,7,-1
 205 1444 l 1,0,-1
EndSplineSet
Substitution2: "'case' Case-Sensitive Forms in Latin lookup 4 subtable" bracketleft.uc
EndChar

StartChar: backslash
Encoding: 92 92 63
Width: 590
GlyphClass: 2
Flags: W
LayerCount: 2
Fore
SplineSet
444 -329 m 1,0,-1
 0 1444 l 1,1,-1
 149 1444 l 1,2,-1
 590 -329 l 1,3,-1
 444 -329 l 1,0,-1
EndSplineSet
Substitution2: "'case' Case-Sensitive Forms in Latin lookup 4 subtable" backslash.uc
EndChar

StartChar: bracketright
Encoding: 93 93 64
Width: 664
GlyphClass: 2
Flags: W
LayerCount: 2
Fore
SplineSet
459 1444 m 1,0,-1
 459 -240 l 1,1,-1
 -5 -240 l 1,2,-1
 -5 -105 l 1,3,-1
 292 -105 l 1,4,-1
 292 1308 l 1,5,-1
 8 1308 l 1,6,-1
 8 1444 l 1,7,-1
 459 1444 l 1,0,-1
EndSplineSet
Substitution2: "'case' Case-Sensitive Forms in Latin lookup 4 subtable" bracketright.uc
EndChar

StartChar: asciicircum
Encoding: 94 94 65
Width: 896
GlyphClass: 2
Flags: W
LayerCount: 2
Fore
SplineSet
440 1291 m 1,0,-1
 222 816 l 1,1,-1
 55 816 l 1,2,-1
 353 1443 l 1,3,-1
 543 1443 l 1,4,-1
 841 816 l 1,5,-1
 674 816 l 1,6,-1
 456 1291 l 1,7,-1
 440 1291 l 1,0,-1
EndSplineSet
EndChar

StartChar: underscore
Encoding: 95 95 66
Width: 828
GlyphClass: 2
Flags: W
LayerCount: 2
Fore
SplineSet
882 -235 m 1,0,-1
 -54 -235 l 1,1,-1
 -54 -107 l 1,2,-1
 882 -107 l 1,3,-1
 882 -235 l 1,0,-1
EndSplineSet
EndChar

StartChar: grave
Encoding: 96 96 67
Width: 1005
GlyphClass: 2
Flags: W
LayerCount: 2
Fore
SplineSet
705 1250 m 1,0,-1
 557 1250 l 1,1,-1
 296 1550 l 1,2,-1
 494 1550 l 1,3,-1
 705 1250 l 1,0,-1
EndSplineSet
EndChar

StartChar: a
Encoding: 97 97 68
Width: 1062
GlyphClass: 2
Flags: W
LayerCount: 2
Fore
SplineSet
470 141 m 0,0,1
 602 141 602 141 688.5 217.5 c 128,-1,2
 775 294 775 294 775 410 c 2,3,-1
 775 497 l 1,4,-1
 493 479 l 2,5,6
 247 464 247 464 247 306 c 0,7,8
 247 231 247 231 307.5 186 c 128,-1,9
 368 141 368 141 470 141 c 0,0,1
433 -10 m 0,10,11
 269 -10 269 -10 169 77 c 128,-1,12
 69 164 69 164 69 307 c 0,13,14
 69 446 69 446 173 525.5 c 128,-1,15
 277 605 277 605 473 617 c 2,16,-1
 775 635 l 1,17,-1
 775 725 l 2,18,19
 775 825 775 825 711 879 c 128,-1,20
 647 933 647 933 528 933 c 0,21,22
 434 933 434 933 369.5 888 c 128,-1,23
 305 843 305 843 289 767 c 1,24,-1
 122 767 l 1,25,26
 126 903 126 903 243 995.5 c 128,-1,27
 360 1088 360 1088 530 1088 c 0,28,29
 721 1088 721 1088 835 993.5 c 128,-1,30
 949 899 949 899 949 740 c 2,31,-1
 949 0 l 1,32,-1
 784 0 l 1,33,-1
 784 187 l 1,34,-1
 780 187 l 1,35,36
 734 97 734 97 640 43.5 c 128,-1,37
 546 -10 546 -10 433 -10 c 0,10,11
EndSplineSet
EndChar

StartChar: b
Encoding: 98 98 69
Width: 1173
GlyphClass: 2
Flags: W
LayerCount: 2
Fore
SplineSet
648 -10 m 0,0,1
 530 -10 530 -10 440 39.5 c 128,-1,2
 350 89 350 89 297 182 c 1,3,-1
 293 182 l 1,4,-1
 293 0 l 1,5,-1
 128 0 l 1,6,-1
 128 1506 l 1,7,-1
 302 1506 l 1,8,-1
 302 903 l 1,9,-1
 306 903 l 1,10,11
 357 992 357 992 447 1040 c 128,-1,12
 537 1088 537 1088 652 1088 c 0,13,14
 856 1088 856 1088 982 936.5 c 128,-1,15
 1108 785 1108 785 1108 539 c 0,16,17
 1108 292 1108 292 981.5 141 c 128,-1,18
 855 -10 855 -10 648 -10 c 0,0,1
617 933 m 0,19,20
 476 933 476 933 388.5 823.5 c 128,-1,21
 301 714 301 714 301 539 c 0,22,23
 301 363 301 363 388.5 254 c 128,-1,24
 476 145 476 145 617 145 c 0,25,26
 759 145 759 145 844.5 252 c 128,-1,27
 930 359 930 359 930 539 c 0,28,29
 930 718 930 718 844.5 825.5 c 128,-1,30
 759 933 759 933 617 933 c 0,19,20
EndSplineSet
EndChar

StartChar: c
Encoding: 99 99 70
Width: 1060
GlyphClass: 2
Flags: W
LayerCount: 2
Fore
SplineSet
1009 727 m 1,0,-1
 838 727 l 1,1,2
 821 818 821 818 748 875.5 c 128,-1,3
 675 933 675 933 558 933 c 0,4,5
 416 933 416 933 329 825 c 128,-1,6
 242 717 242 717 242 539 c 0,7,8
 242 357 242 357 329.5 251 c 128,-1,9
 417 145 417 145 560 145 c 0,10,11
 673 145 673 145 745.5 196.5 c 128,-1,12
 818 248 818 248 840 345 c 1,13,-1
 1011 345 l 1,14,15
 989 186 989 186 865.5 88 c 128,-1,16
 742 -10 742 -10 559 -10 c 0,17,18
 335 -10 335 -10 200 138.5 c 128,-1,19
 65 287 65 287 65 539 c 0,20,21
 65 787 65 787 200 937.5 c 128,-1,22
 335 1088 335 1088 557 1088 c 0,23,24
 748 1088 748 1088 870 982.5 c 128,-1,25
 992 877 992 877 1009 727 c 1,0,-1
EndSplineSet
EndChar

StartChar: d
Encoding: 100 100 71
Width: 1173
GlyphClass: 2
Flags: W
LayerCount: 2
Fore
SplineSet
527 -10 m 0,0,1
 323 -10 323 -10 194 141.5 c 128,-1,2
 65 293 65 293 65 539 c 0,3,4
 65 784 65 784 193 936 c 128,-1,5
 321 1088 321 1088 523 1088 c 0,6,7
 638 1088 638 1088 727.5 1040 c 128,-1,8
 817 992 817 992 867 903 c 1,9,-1
 871 903 l 1,10,-1
 871 1506 l 1,11,-1
 1045 1506 l 1,12,-1
 1045 0 l 1,13,-1
 879 0 l 1,14,-1
 879 182 l 1,15,-1
 876 182 l 1,16,17
 823 89 823 89 733.5 39.5 c 128,-1,18
 644 -10 644 -10 527 -10 c 0,0,1
558 933 m 0,19,20
 416 933 416 933 329.5 825 c 128,-1,21
 243 717 243 717 243 539 c 0,22,23
 243 360 243 360 329.5 252.5 c 128,-1,24
 416 145 416 145 558 145 c 0,25,26
 698 145 698 145 785 254 c 128,-1,27
 872 363 872 363 872 539 c 128,-1,28
 872 715 872 715 785 824 c 128,-1,29
 698 933 698 933 558 933 c 0,19,20
EndSplineSet
EndChar

StartChar: e
Encoding: 101 101 72
Width: 1084
GlyphClass: 2
Flags: W
LayerCount: 2
Fore
SplineSet
548 935 m 0,0,1
 421 935 421 935 337.5 851 c 128,-1,2
 254 767 254 767 245 630 c 1,3,-1
 838 630 l 1,4,5
 835 767 835 767 755.5 851 c 128,-1,6
 676 935 676 935 548 935 c 0,0,1
834 308 m 1,7,-1
 1006 308 l 1,8,9
 984 169 984 169 858 79.5 c 128,-1,10
 732 -10 732 -10 559 -10 c 0,11,12
 332 -10 332 -10 198.5 137 c 128,-1,13
 65 284 65 284 65 535 c 128,-1,14
 65 786 65 786 198 937 c 128,-1,15
 331 1088 331 1088 551 1088 c 0,16,17
 767 1088 767 1088 893 945.5 c 128,-1,18
 1019 803 1019 803 1019 559 c 2,19,-1
 1019 491 l 1,20,-1
 245 491 l 1,21,-1
 245 481 l 2,22,23
 245 327 245 327 332 235 c 128,-1,24
 419 143 419 143 563 143 c 0,25,26
 664 143 664 143 737.5 187.5 c 128,-1,27
 811 232 811 232 834 308 c 1,7,-1
EndSplineSet
EndChar

StartChar: f
Encoding: 102 102 73
Width: 629
GlyphClass: 2
Flags: W
LayerCount: 2
Fore
SplineSet
175 0 m 1,0,-1
 175 934 l 1,1,-1
 25 934 l 1,2,-1
 25 1078 l 1,3,-1
 175 1078 l 1,4,-1
 175 1178 l 2,5,6
 175 1328 175 1328 243.5 1397 c 128,-1,7
 312 1466 312 1466 462 1466 c 0,8,9
 510 1466 510 1466 559 1457 c 1,10,-1
 559 1313 l 1,11,12
 522 1321 522 1321 478 1321 c 0,13,14
 410 1321 410 1321 380 1287.5 c 128,-1,15
 350 1254 350 1254 349 1178 c 2,16,-1
 349 1078 l 1,17,-1
 559 1078 l 1,18,-1
 559 934 l 1,19,-1
 349 934 l 1,20,-1
 349 0 l 1,21,-1
 175 0 l 1,0,-1
EndSplineSet
EndChar

StartChar: g
Encoding: 103 103 74
Width: 1163
GlyphClass: 2
Flags: W
LayerCount: 2
Fore
SplineSet
554 155 m 0,0,1
 696 155 696 155 783.5 262.5 c 128,-1,2
 871 370 871 370 871 543 c 0,3,4
 871 717 871 717 783.5 825 c 128,-1,5
 696 933 696 933 554 933 c 0,6,7
 413 933 413 933 328 826.5 c 128,-1,8
 243 720 243 720 243 543 c 0,9,10
 243 367 243 367 328 261 c 128,-1,11
 413 155 413 155 554 155 c 0,0,1
557 -385 m 0,12,13
 374 -385 374 -385 252 -303.5 c 128,-1,14
 130 -222 130 -222 111 -88 c 1,15,-1
 292 -88 l 1,16,17
 311 -155 311 -155 385.5 -194.5 c 128,-1,18
 460 -234 460 -234 567 -234 c 0,19,20
 707 -234 707 -234 789 -166.5 c 128,-1,21
 871 -99 871 -99 871 16 c 2,22,-1
 871 185 l 1,23,-1
 867 185 l 1,24,25
 816 97 816 97 725 48.5 c 128,-1,26
 634 0 634 0 521 0 c 0,27,28
 316 0 316 0 190.5 149.5 c 128,-1,29
 65 299 65 299 65 543 c 0,30,31
 65 790 65 790 191 939 c 128,-1,32
 317 1088 317 1088 525 1088 c 0,33,34
 639 1088 639 1088 730.5 1040 c 128,-1,35
 822 992 822 992 876 903 c 1,36,-1
 879 903 l 1,37,-1
 879 1078 l 1,38,-1
 1045 1078 l 1,39,-1
 1045 30 l 2,40,41
 1045 -163 1045 -163 914.5 -274 c 128,-1,42
 784 -385 784 -385 557 -385 c 0,12,13
EndSplineSet
EndChar

StartChar: h
Encoding: 104 104 75
Width: 1166
GlyphClass: 2
Flags: W
LayerCount: 2
Fore
SplineSet
128 0 m 1,0,-1
 128 1506 l 1,1,-1
 302 1506 l 1,2,-1
 302 903 l 1,3,-1
 306 903 l 1,4,5
 408 1088 408 1088 658 1088 c 0,6,7
 835 1088 835 1088 944 978 c 128,-1,8
 1053 868 1053 868 1053 688 c 2,9,-1
 1053 0 l 1,10,-1
 879 0 l 1,11,-1
 879 657 l 2,12,13
 879 786 879 786 806.5 859.5 c 128,-1,14
 734 933 734 933 606 933 c 0,15,16
 469 933 469 933 385.5 847 c 128,-1,17
 302 761 302 761 302 620 c 2,18,-1
 302 0 l 1,19,-1
 128 0 l 1,0,-1
EndSplineSet
EndChar

StartChar: i
Encoding: 105 105 76
Width: 430
GlyphClass: 2
Flags: W
LayerCount: 2
Fore
SplineSet
128 0 m 1,0,-1
 128 1078 l 1,1,-1
 302 1078 l 1,2,-1
 302 0 l 1,3,-1
 128 0 l 1,0,-1
215 1252 m 0,4,5
 170 1252 170 1252 137.5 1284.5 c 128,-1,6
 105 1317 105 1317 105 1362 c 0,7,8
 105 1408 105 1408 137.5 1440 c 128,-1,9
 170 1472 170 1472 215 1472 c 0,10,11
 261 1472 261 1472 293 1440 c 128,-1,12
 325 1408 325 1408 325 1362 c 0,13,14
 325 1317 325 1317 293 1284.5 c 128,-1,15
 261 1252 261 1252 215 1252 c 0,4,5
EndSplineSet
Substitution2: "'locl' Localized Forms in Latin lookup 1 subtable" idotaccent
EndChar

StartChar: j
Encoding: 106 106 77
Width: 430
GlyphClass: 2
Flags: W
LayerCount: 2
Fore
SplineSet
302 1078 m 1,0,-1
 302 -81 l 2,1,2
 302 -245 302 -245 222.5 -321.5 c 128,-1,3
 143 -398 143 -398 -29 -398 c 2,4,-1
 -60 -398 l 1,5,-1
 -60 -251 l 1,6,-1
 -33 -251 l 2,7,8
 55 -251 55 -251 91.5 -213.5 c 128,-1,9
 128 -176 128 -176 128 -84 c 2,10,-1
 128 1078 l 1,11,-1
 302 1078 l 1,0,-1
215 1252 m 0,12,13
 170 1252 170 1252 137.5 1284.5 c 128,-1,14
 105 1317 105 1317 105 1362 c 0,15,16
 105 1408 105 1408 137.5 1440 c 128,-1,17
 170 1472 170 1472 215 1472 c 0,18,19
 261 1472 261 1472 293 1440 c 128,-1,20
 325 1408 325 1408 325 1362 c 0,21,22
 325 1317 325 1317 293 1284.5 c 128,-1,23
 261 1252 261 1252 215 1252 c 0,12,13
EndSplineSet
EndChar

StartChar: k
Encoding: 107 107 78
Width: 1026
GlyphClass: 2
Flags: W
LayerCount: 2
Fore
SplineSet
302 596 m 1,0,-1
 785 1078 l 1,1,-1
 997 1078 l 1,2,-1
 526 612 l 1,3,-1
 1011 0 l 1,4,-1
 809 0 l 1,5,-1
 404 505 l 1,6,-1
 302 409 l 1,7,-1
 302 0 l 1,8,-1
 128 0 l 1,9,-1
 128 1506 l 1,10,-1
 302 1506 l 1,11,-1
 302 596 l 1,0,-1
EndSplineSet
EndChar

StartChar: l
Encoding: 108 108 79
Width: 430
GlyphClass: 2
Flags: W
LayerCount: 2
Fore
SplineSet
128 0 m 1,0,-1
 128 1506 l 1,1,-1
 302 1506 l 1,2,-1
 302 0 l 1,3,-1
 128 0 l 1,0,-1
EndSplineSet
EndChar

StartChar: m
Encoding: 109 109 80
Width: 1701
GlyphClass: 2
Flags: W
LayerCount: 2
Fore
SplineSet
118 0 m 1,0,-1
 118 1078 l 1,1,-1
 282 1078 l 1,2,-1
 282 903 l 1,3,-1
 286 903 l 1,4,5
 324 989 324 989 405.5 1038.5 c 128,-1,6
 487 1088 487 1088 592 1088 c 0,7,8
 701 1088 701 1088 780 1035 c 128,-1,9
 859 982 859 982 894 884 c 1,10,-1
 898 884 l 1,11,12
 944 980 944 980 1034 1034 c 128,-1,13
 1124 1088 1124 1088 1237 1088 c 0,14,15
 1397 1088 1397 1088 1492.5 992 c 128,-1,16
 1588 896 1588 896 1588 736 c 2,17,-1
 1588 0 l 1,18,-1
 1414 0 l 1,19,-1
 1414 696 l 2,20,21
 1414 808 1414 808 1354.5 870.5 c 128,-1,22
 1295 933 1295 933 1187 933 c 128,-1,23
 1079 933 1079 933 1009.5 861 c 128,-1,24
 940 789 940 789 940 678 c 2,25,-1
 940 0 l 1,26,-1
 766 0 l 1,27,-1
 766 717 l 2,28,29
 766 815 766 815 704.5 874 c 128,-1,30
 643 933 643 933 542 933 c 0,31,32
 434 933 434 933 363 857.5 c 128,-1,33
 292 782 292 782 292 669 c 2,34,-1
 292 0 l 1,35,-1
 118 0 l 1,0,-1
EndSplineSet
EndChar

StartChar: n
Encoding: 110 110 81
Width: 1135
GlyphClass: 2
Flags: W
LayerCount: 2
Fore
SplineSet
118 0 m 1,0,-1
 118 1078 l 1,1,-1
 282 1078 l 1,2,-1
 282 903 l 1,3,-1
 286 903 l 1,4,5
 389 1088 389 1088 638 1088 c 0,6,7
 816 1088 816 1088 919 981.5 c 128,-1,8
 1022 875 1022 875 1022 691 c 2,9,-1
 1022 0 l 1,10,-1
 848 0 l 1,11,-1
 848 661 l 2,12,13
 848 793 848 793 780.5 863 c 128,-1,14
 713 933 713 933 586 933 c 0,15,16
 453 933 453 933 372.5 849 c 128,-1,17
 292 765 292 765 292 626 c 2,18,-1
 292 0 l 1,19,-1
 118 0 l 1,0,-1
EndSplineSet
EndChar

StartChar: o
Encoding: 111 111 82
Width: 1124
GlyphClass: 2
Flags: W
LayerCount: 2
Fore
SplineSet
562 -10 m 128,-1,1
 335 -10 335 -10 200 139 c 128,-1,2
 65 288 65 288 65 539 c 128,-1,3
 65 790 65 790 200 939 c 128,-1,4
 335 1088 335 1088 562 1088 c 128,-1,5
 789 1088 789 1088 924 939 c 128,-1,6
 1059 790 1059 790 1059 539 c 128,-1,7
 1059 288 1059 288 924 139 c 128,-1,0
 789 -10 789 -10 562 -10 c 128,-1,1
562 145 m 0,8,9
 713 145 713 145 797.5 249.5 c 128,-1,10
 882 354 882 354 882 539 c 0,11,12
 882 725 882 725 797.5 829 c 128,-1,13
 713 933 713 933 562 933 c 128,-1,14
 411 933 411 933 326.5 828.5 c 128,-1,15
 242 724 242 724 242 539 c 128,-1,16
 242 354 242 354 327 249.5 c 128,-1,17
 412 145 412 145 562 145 c 0,8,9
EndSplineSet
EndChar

StartChar: p
Encoding: 112 112 83
Width: 1163
GlyphClass: 2
Flags: W
LayerCount: 2
Fore
SplineSet
636 1088 m 0,0,1
 843 1088 843 1088 970.5 936.5 c 128,-1,2
 1098 785 1098 785 1098 539 c 128,-1,3
 1098 293 1098 293 971 141.5 c 128,-1,4
 844 -10 844 -10 640 -10 c 0,5,6
 526 -10 526 -10 436.5 38 c 128,-1,7
 347 86 347 86 296 175 c 1,8,-1
 292 175 l 1,9,-1
 292 -360 l 1,10,-1
 118 -360 l 1,11,-1
 118 1078 l 1,12,-1
 283 1078 l 1,13,-1
 283 903 l 1,14,-1
 287 903 l 1,15,16
 334 987 334 987 429 1037.5 c 128,-1,17
 524 1088 524 1088 636 1088 c 0,0,1
604 145 m 0,18,19
 747 145 747 145 833.5 252.5 c 128,-1,20
 920 360 920 360 920 539 c 0,21,22
 920 717 920 717 833.5 825 c 128,-1,23
 747 933 747 933 604 933 c 0,24,25
 465 933 465 933 378 824 c 128,-1,26
 291 715 291 715 291 539 c 128,-1,27
 291 363 291 363 377.5 254 c 128,-1,28
 464 145 464 145 604 145 c 0,18,19
EndSplineSet
EndChar

StartChar: q
Encoding: 113 113 84
Width: 1163
GlyphClass: 2
Flags: W
LayerCount: 2
Fore
SplineSet
525 1088 m 0,0,1
 642 1088 642 1088 733 1040 c 128,-1,2
 824 992 824 992 876 903 c 1,3,-1
 879 903 l 1,4,-1
 879 1078 l 1,5,-1
 1045 1078 l 1,6,-1
 1045 -360 l 1,7,-1
 871 -360 l 1,8,-1
 871 175 l 1,9,-1
 867 175 l 1,10,11
 816 87 816 87 725.5 38.5 c 128,-1,12
 635 -10 635 -10 521 -10 c 0,13,14
 317 -10 317 -10 191 141.5 c 128,-1,15
 65 293 65 293 65 539 c 0,16,17
 65 786 65 786 191.5 937 c 128,-1,18
 318 1088 318 1088 525 1088 c 0,0,1
554 145 m 128,-1,20
 695 145 695 145 783 254.5 c 128,-1,21
 871 364 871 364 871 539 c 128,-1,22
 871 714 871 714 783 823.5 c 128,-1,23
 695 933 695 933 554 933 c 128,-1,24
 413 933 413 933 328 825.5 c 128,-1,25
 243 718 243 718 243 539 c 0,26,27
 243 359 243 359 328 252 c 128,-1,19
 413 145 413 145 554 145 c 128,-1,20
EndSplineSet
EndChar

StartChar: r
Encoding: 114 114 85
Width: 649
GlyphClass: 2
Flags: W
LayerCount: 2
Fore
SplineSet
118 0 m 1,0,-1
 118 1078 l 1,1,-1
 282 1078 l 1,2,-1
 282 903 l 1,3,-1
 286 903 l 1,4,5
 310 988 310 988 381 1038 c 128,-1,6
 452 1088 452 1088 547 1088 c 0,7,8
 588 1088 588 1088 614 1081 c 1,9,-1
 614 909 l 1,10,11
 586 921 586 921 524 921 c 0,12,13
 419 921 419 921 355.5 851 c 128,-1,14
 292 781 292 781 292 667 c 2,15,-1
 292 0 l 1,16,-1
 118 0 l 1,0,-1
EndSplineSet
EndChar

StartChar: s
Encoding: 115 115 86
Width: 984
GlyphClass: 2
Flags: W
LayerCount: 2
Fore
SplineSet
100 777 m 0,0,1
 100 913 100 913 211.5 1000 c 128,-1,2
 323 1087 323 1087 499 1087 c 0,3,4
 663 1087 663 1087 774.5 999.5 c 128,-1,5
 886 912 886 912 891 779 c 1,6,-1
 724 779 l 1,7,8
 716 855 716 855 654 899 c 128,-1,9
 592 943 592 943 493 943 c 0,10,11
 393 943 393 943 332 900 c 128,-1,12
 271 857 271 857 271 786 c 0,13,14
 271 678 271 678 453 633 c 2,15,-1
 617 592 l 2,16,17
 780 551 780 551 846.5 486.5 c 128,-1,18
 913 422 913 422 913 304 c 0,19,20
 913 166 913 166 793.5 78 c 128,-1,21
 674 -10 674 -10 487 -10 c 0,22,23
 313 -10 313 -10 198 76.5 c 128,-1,24
 83 163 83 163 70 303 c 1,25,-1
 245 303 l 1,26,27
 258 221 258 221 323.5 177.5 c 128,-1,28
 389 134 389 134 499 134 c 128,-1,29
 609 134 609 134 673.5 176.5 c 128,-1,30
 738 219 738 219 738 292 c 0,31,32
 738 349 738 349 700 382.5 c 128,-1,33
 662 416 662 416 570 440 c 2,34,-1
 381 489 l 2,35,36
 100 562 100 562 100 777 c 0,0,1
EndSplineSet
EndChar

StartChar: t
Encoding: 116 116 87
Width: 634
GlyphClass: 2
Flags: W
LayerCount: 2
Fore
SplineSet
175 1321 m 1,0,-1
 349 1321 l 1,1,-1
 349 1078 l 1,2,-1
 559 1078 l 1,3,-1
 559 934 l 1,4,-1
 349 934 l 1,5,-1
 349 287 l 2,6,7
 349 213 349 213 381.5 178 c 128,-1,8
 414 143 414 143 483 143 c 0,9,10
 528 143 528 143 558 148 c 1,11,-1
 558 1 l 1,12,13
 520 -8 520 -8 446 -8 c 0,14,15
 300 -8 300 -8 237.5 58.5 c 128,-1,16
 175 125 175 125 175 280 c 2,17,-1
 175 934 l 1,18,-1
 25 934 l 1,19,-1
 25 1078 l 1,20,-1
 175 1078 l 1,21,-1
 175 1321 l 1,0,-1
EndSplineSet
EndChar

StartChar: u
Encoding: 117 117 88
Width: 1135
GlyphClass: 2
Flags: W
LayerCount: 2
Fore
SplineSet
1017 1078 m 1,0,-1
 1017 0 l 1,1,-1
 853 0 l 1,2,-1
 853 178 l 1,3,-1
 849 178 l 1,4,5
 747 -10 747 -10 496 -10 c 0,6,7
 319 -10 319 -10 216 96.5 c 128,-1,8
 113 203 113 203 113 387 c 2,9,-1
 113 1078 l 1,10,-1
 287 1078 l 1,11,-1
 287 417 l 2,12,13
 287 285 287 285 354.5 215 c 128,-1,14
 422 145 422 145 549 145 c 0,15,16
 682 145 682 145 762.5 229 c 128,-1,17
 843 313 843 313 843 452 c 2,18,-1
 843 1078 l 1,19,-1
 1017 1078 l 1,0,-1
EndSplineSet
EndChar

StartChar: v
Encoding: 118 118 89
Width: 1022
GlyphClass: 2
Flags: W
LayerCount: 2
Fore
SplineSet
997 1078 m 1,0,-1
 599 0 l 1,1,-1
 423 0 l 1,2,-1
 25 1078 l 1,3,-1
 207 1078 l 1,4,-1
 509 188 l 1,5,-1
 513 188 l 1,6,-1
 816 1078 l 1,7,-1
 997 1078 l 1,0,-1
EndSplineSet
EndChar

StartChar: w
Encoding: 119 119 90
Width: 1512
GlyphClass: 2
Flags: W
LayerCount: 2
Fore
SplineSet
1482 1078 m 1,0,-1
 1180 0 l 1,1,-1
 1004 0 l 1,2,-1
 758 838 l 1,3,-1
 754 838 l 1,4,-1
 508 0 l 1,5,-1
 332 0 l 1,6,-1
 30 1078 l 1,7,-1
 202 1078 l 1,8,-1
 421 197 l 1,9,-1
 425 197 l 1,10,-1
 672 1078 l 1,11,-1
 840 1078 l 1,12,-1
 1087 197 l 1,13,-1
 1091 197 l 1,14,-1
 1310 1078 l 1,15,-1
 1482 1078 l 1,0,-1
EndSplineSet
EndChar

StartChar: x
Encoding: 120 120 91
Width: 991
GlyphClass: 2
Flags: W
LayerCount: 2
Fore
SplineSet
496 413 m 1,0,-1
 492 413 l 1,1,-1
 229 0 l 1,2,-1
 35 0 l 1,3,-1
 404 539 l 1,4,-1
 41 1078 l 1,5,-1
 235 1078 l 1,6,-1
 498 671 l 1,7,-1
 502 671 l 1,8,-1
 762 1078 l 1,9,-1
 956 1078 l 1,10,-1
 591 546 l 1,11,-1
 951 0 l 1,12,-1
 757 0 l 1,13,-1
 496 413 l 1,0,-1
EndSplineSet
EndChar

StartChar: y
Encoding: 121 121 92
Width: 1026
GlyphClass: 2
Flags: W
LayerCount: 2
Fore
SplineSet
210 -391 m 0,0,1
 171 -391 171 -391 134 -384 c 1,2,-1
 134 -237 l 1,3,4
 164 -243 164 -243 205 -243 c 0,5,6
 280 -243 280 -243 325 -202.5 c 128,-1,7
 370 -162 370 -162 403 -65 c 2,8,-1
 424 -1 l 1,9,-1
 25 1078 l 1,10,-1
 210 1078 l 1,11,-1
 512 177 l 1,12,-1
 516 177 l 1,13,-1
 818 1078 l 1,14,-1
 1001 1078 l 1,15,-1
 579 -66 l 2,16,17
 510 -253 510 -253 431.5 -322 c 128,-1,18
 353 -391 353 -391 210 -391 c 0,0,1
EndSplineSet
EndChar

StartChar: z
Encoding: 122 122 93
Width: 990
GlyphClass: 2
Flags: W
LayerCount: 2
Fore
SplineSet
95 0 m 1,0,-1
 95 126 l 1,1,-1
 696 931 l 1,2,-1
 696 934 l 1,3,-1
 96 934 l 1,4,-1
 96 1078 l 1,5,-1
 892 1078 l 1,6,-1
 892 949 l 1,7,-1
 295 147 l 1,8,-1
 295 144 l 1,9,-1
 895 144 l 1,10,-1
 895 0 l 1,11,-1
 95 0 l 1,0,-1
EndSplineSet
EndChar

StartChar: braceleft
Encoding: 123 123 94
Width: 734
GlyphClass: 2
Flags: W
LayerCount: 2
Fore
SplineSet
311 601 m 1,0,1
 490 584 490 584 490 365 c 2,2,-1
 490 31 l 2,3,4
 490 -87 490 -87 545 -140 c 128,-1,5
 600 -193 600 -193 724 -193 c 2,6,-1
 769 -193 l 1,7,-1
 769 -334 l 1,8,-1
 709 -334 l 2,9,10
 515 -334 515 -334 420.5 -247 c 128,-1,11
 326 -160 326 -160 326 19 c 2,12,-1
 326 308 l 2,13,14
 326 427 326 427 287 473 c 128,-1,15
 248 519 248 519 148 519 c 1,16,-1
 148 710 l 1,17,18
 248 710 248 710 287 756.5 c 128,-1,19
 326 803 326 803 326 923 c 2,20,-1
 326 1178 l 2,21,22
 326 1353 326 1353 420 1437.5 c 128,-1,23
 514 1522 514 1522 709 1522 c 2,24,-1
 769 1522 l 1,25,-1
 769 1381 l 1,26,-1
 724 1381 l 2,27,28
 599 1381 599 1381 544.5 1328.5 c 128,-1,29
 490 1276 490 1276 490 1156 c 2,30,-1
 490 860 l 2,31,32
 490 644 490 644 311 626 c 1,33,-1
 311 601 l 1,0,1
EndSplineSet
Substitution2: "'case' Case-Sensitive Forms in Latin lookup 4 subtable" braceleft.uc
EndChar

StartChar: bar
Encoding: 124 124 95
Width: 446
GlyphClass: 2
Flags: W
LayerCount: 2
Fore
SplineSet
296 -326 m 1,0,-1
 150 -326 l 1,1,-1
 150 1443 l 1,2,-1
 296 1443 l 1,3,-1
 296 -326 l 1,0,-1
EndSplineSet
Substitution2: "'case' Case-Sensitive Forms in Latin lookup 4 subtable" bar.uc
EndChar

StartChar: braceright
Encoding: 125 125 96
Width: 734
GlyphClass: 2
Flags: W
LayerCount: 2
Fore
SplineSet
423 601 m 1,0,-1
 423 626 l 1,1,2
 244 644 244 644 244 860 c 2,3,-1
 244 1156 l 2,4,5
 244 1276 244 1276 189.5 1328.5 c 128,-1,6
 135 1381 135 1381 10 1381 c 2,7,-1
 -35 1381 l 1,8,-1
 -35 1522 l 1,9,-1
 25 1522 l 2,10,11
 220 1522 220 1522 314 1437.5 c 128,-1,12
 408 1353 408 1353 408 1178 c 2,13,-1
 408 923 l 2,14,15
 408 803 408 803 447 756.5 c 128,-1,16
 486 710 486 710 586 710 c 1,17,-1
 586 519 l 1,18,19
 486 519 486 519 447 473 c 128,-1,20
 408 427 408 427 408 308 c 2,21,-1
 408 19 l 2,22,23
 408 -160 408 -160 313.5 -247 c 128,-1,24
 219 -334 219 -334 25 -334 c 2,25,-1
 -35 -334 l 1,26,-1
 -35 -193 l 1,27,-1
 10 -193 l 2,28,29
 134 -193 134 -193 189 -140 c 128,-1,30
 244 -87 244 -87 244 31 c 2,31,-1
 244 365 l 2,32,33
 244 584 244 584 423 601 c 1,0,-1
EndSplineSet
Substitution2: "'case' Case-Sensitive Forms in Latin lookup 4 subtable" braceright.uc
EndChar

StartChar: asciitilde
Encoding: 126 126 97
Width: 1239
GlyphClass: 2
Flags: W
LayerCount: 2
Fore
SplineSet
575 636 m 0,0,1
 521 692 521 692 485 714.5 c 128,-1,2
 449 737 449 737 415 737 c 0,3,4
 285 737 285 737 274 558 c 1,5,-1
 114 558 l 1,6,7
 113 718 113 718 195 810 c 128,-1,8
 277 902 277 902 419 902 c 0,9,10
 541 902 541 902 666 777 c 0,11,12
 718 722 718 722 754 699.5 c 128,-1,13
 790 677 790 677 824 677 c 0,14,15
 955 677 955 677 966 856 c 1,16,-1
 1125 856 l 1,17,18
 1126 696 1126 696 1044.5 604 c 128,-1,19
 963 512 963 512 821 512 c 0,20,21
 699 512 699 512 575 636 c 0,0,1
EndSplineSet
EndChar

StartChar: exclamdown
Encoding: 161 161 99
Width: 546
GlyphClass: 2
Flags: W
LayerCount: 2
Fore
SplineSet
183 -342 m 1,0,-1
 195 622 l 1,1,-1
 351 622 l 1,2,-1
 363 -342 l 1,3,-1
 183 -342 l 1,0,-1
273 885 m 0,4,5
 225 885 225 885 192 918 c 128,-1,6
 159 951 159 951 159 999 c 0,7,8
 159 1048 159 1048 192 1080.5 c 128,-1,9
 225 1113 225 1113 273 1113 c 0,10,11
 322 1113 322 1113 354.5 1080.5 c 128,-1,12
 387 1048 387 1048 387 999 c 0,13,14
 387 951 387 951 354.5 918 c 128,-1,15
 322 885 322 885 273 885 c 0,4,5
EndSplineSet
EndChar

StartChar: cent
Encoding: 162 162 100
Width: 1239
GlyphClass: 2
Flags: W
LayerCount: 2
Fore
SplineSet
1125 538 m 1,0,1
 1108 390 1108 390 996.5 288 c 128,-1,2
 885 186 885 186 719 169 c 1,3,-1
 719 0 l 1,4,-1
 547 0 l 1,5,-1
 547 171 l 1,6,7
 348 202 348 202 231 352 c 128,-1,8
 114 502 114 502 114 725 c 0,9,10
 114 945 114 945 231.5 1094 c 128,-1,11
 349 1243 349 1243 547 1272 c 1,12,-1
 547 1443 l 1,13,-1
 719 1443 l 1,14,-1
 719 1274 l 1,15,16
 885 1256 885 1256 999.5 1149.5 c 128,-1,17
 1114 1043 1114 1043 1125 900 c 1,18,-1
 951 900 l 1,19,20
 930 1004 930 1004 845.5 1064 c 128,-1,21
 761 1124 761 1124 636 1124 c 0,22,23
 484 1124 484 1124 388 1012.5 c 128,-1,24
 292 901 292 901 292 725 c 0,25,26
 292 547 292 547 388.5 433 c 128,-1,27
 485 319 485 319 636 319 c 0,28,29
 910 319 910 319 951 538 c 1,30,-1
 1125 538 l 1,0,1
EndSplineSet
EndChar

StartChar: sterling
Encoding: 163 163 101
Width: 1239
GlyphClass: 2
Flags: W
LayerCount: 2
Fore
SplineSet
374 154 m 1,0,-1
 1160 154 l 1,1,-1
 1160 0 l 1,2,-1
 98 0 l 1,3,-1
 98 152 l 1,4,5
 231 182 231 182 318.5 281.5 c 128,-1,6
 406 381 406 381 406 501 c 0,7,8
 406 567 406 567 382 653 c 1,9,-1
 98 653 l 1,10,-1
 98 797 l 1,11,-1
 332 797 l 1,12,13
 271 968 271 968 271 1060 c 0,14,15
 271 1256 271 1256 408.5 1366.5 c 128,-1,16
 546 1477 546 1477 788 1477 c 0,17,18
 975 1477 975 1477 1088 1424 c 1,19,-1
 1088 1264 l 1,20,21
 1050 1286 1050 1286 966.5 1302 c 128,-1,22
 883 1318 883 1318 797 1318 c 0,23,24
 636 1318 636 1318 545.5 1250.5 c 128,-1,25
 455 1183 455 1183 455 1064 c 0,26,27
 455 967 455 967 515 797 c 1,28,-1
 986 797 l 1,29,-1
 986 653 l 1,30,-1
 562 653 l 1,31,32
 583 569 583 569 583 508 c 0,33,34
 583 390 583 390 523.5 301 c 128,-1,35
 464 212 464 212 374 158 c 1,36,-1
 374 154 l 1,0,-1
EndSplineSet
EndChar

StartChar: currency
Encoding: 164 164 102
Width: 1239
GlyphClass: 2
Flags: W
LayerCount: 2
Fore
SplineSet
357 656 m 128,-1,1
 357 547 357 547 434.5 469.5 c 128,-1,2
 512 392 512 392 621 392 c 128,-1,3
 730 392 730 392 807 469.5 c 128,-1,4
 884 547 884 547 884 656 c 128,-1,5
 884 765 884 765 807 842.5 c 128,-1,6
 730 920 730 920 621 920 c 128,-1,7
 512 920 512 920 434.5 842.5 c 128,-1,0
 357 765 357 765 357 656 c 128,-1,1
1112 1043 m 1,8,-1
 944 874 l 1,9,10
 1011 775 1011 775 1011 656 c 0,11,12
 1011 535 1011 535 943 437 c 1,13,-1
 1112 268 l 1,14,-1
 1006 162 l 1,15,-1
 837 331 l 1,16,17
 740 265 740 265 621 265 c 128,-1,18
 502 265 502 265 402 332 c 1,19,-1
 233 162 l 1,20,-1
 127 268 l 1,21,-1
 297 438 l 1,22,23
 230 538 230 538 230 656 c 128,-1,24
 230 774 230 774 297 873 c 1,25,-1
 127 1043 l 1,26,-1
 233 1149 l 1,27,-1
 402 980 l 1,28,29
 502 1047 502 1047 621 1047 c 0,30,31
 739 1047 739 1047 838 980 c 1,32,-1
 1006 1149 l 1,33,-1
 1112 1043 l 1,8,-1
EndSplineSet
EndChar

StartChar: yen
Encoding: 165 165 103
Width: 1239
GlyphClass: 2
Flags: W
LayerCount: 2
Fore
SplineSet
987 269 m 1,0,-1
 710 269 l 1,1,-1
 710 0 l 1,2,-1
 530 0 l 1,3,-1
 530 269 l 1,4,-1
 253 269 l 1,5,-1
 253 405 l 1,6,-1
 530 405 l 1,7,-1
 530 571 l 1,8,-1
 253 571 l 1,9,-1
 253 707 l 1,10,-1
 476 707 l 1,11,-1
 18 1443 l 1,12,-1
 223 1443 l 1,13,-1
 617 796 l 1,14,-1
 623 796 l 1,15,-1
 1016 1443 l 1,16,-1
 1221 1443 l 1,17,-1
 764 707 l 1,18,-1
 987 707 l 1,19,-1
 987 571 l 1,20,-1
 710 571 l 1,21,-1
 710 405 l 1,22,-1
 987 405 l 1,23,-1
 987 269 l 1,0,-1
EndSplineSet
EndChar

StartChar: brokenbar
Encoding: 166 166 104
Width: 448
GlyphClass: 2
Flags: W
LayerCount: 2
Fore
SplineSet
297 774 m 1,0,-1
 151 774 l 1,1,-1
 151 1443 l 1,2,-1
 297 1443 l 1,3,-1
 297 774 l 1,0,-1
297 -326 m 1,4,-1
 151 -326 l 1,5,-1
 151 343 l 1,6,-1
 297 343 l 1,7,-1
 297 -326 l 1,4,-1
EndSplineSet
Substitution2: "'case' Case-Sensitive Forms in Latin lookup 4 subtable" brokenbar.uc
EndChar

StartChar: section
Encoding: 167 167 105
Width: 988
GlyphClass: 2
Flags: W
LayerCount: 2
Fore
SplineSet
429 400 m 2,0,-1
 512 382 l 1,1,2
 604 382 604 382 667 437 c 128,-1,3
 730 492 730 492 730 573 c 0,4,5
 730 636 730 636 686 679 c 128,-1,6
 642 722 642 722 560 740 c 2,7,-1
 477 758 l 1,8,9
 386 758 386 758 322 702 c 128,-1,10
 258 646 258 646 258 567 c 0,11,12
 258 505 258 505 302.5 461.5 c 128,-1,13
 347 418 347 418 429 400 c 2,0,-1
499 -257 m 0,14,15
 327 -257 327 -257 213.5 -174 c 128,-1,16
 100 -91 100 -91 90 42 c 1,17,-1
 266 42 l 1,18,19
 276 -27 276 -27 343 -69 c 128,-1,20
 410 -111 410 -111 508 -111 c 0,21,22
 610 -111 610 -111 673.5 -67 c 128,-1,23
 737 -23 737 -23 737 47 c 0,24,25
 737 103 737 103 690 141 c 128,-1,26
 643 179 643 179 539 207 c 2,27,-1
 398 245 l 2,28,29
 234 289 234 289 157.5 358.5 c 128,-1,30
 81 428 81 428 81 533 c 0,31,32
 81 628 81 628 139.5 697 c 128,-1,33
 198 766 198 766 304 795 c 1,34,-1
 304 811 l 1,35,36
 85 896 85 896 85 1084 c 0,37,38
 85 1224 85 1224 196 1310.5 c 128,-1,39
 307 1397 307 1397 486 1397 c 0,40,41
 653 1397 653 1397 760 1319 c 128,-1,42
 867 1241 867 1241 884 1108 c 1,43,-1
 711 1108 l 1,44,45
 700 1173 700 1173 638 1212 c 128,-1,46
 576 1251 576 1251 482 1251 c 0,47,48
 381 1251 381 1251 319.5 1207.5 c 128,-1,49
 258 1164 258 1164 258 1094 c 0,50,51
 258 1037 258 1037 304 999 c 128,-1,52
 350 961 350 961 453 933 c 2,53,-1
 594 895 l 2,54,55
 756 852 756 852 831.5 784 c 128,-1,56
 907 716 907 716 907 615 c 0,57,58
 907 512 907 512 836 433 c 128,-1,59
 765 354 765 354 653 332 c 1,60,-1
 653 316 l 1,61,62
 907 259 907 259 907 59 c 0,63,64
 907 -80 907 -80 792.5 -168.5 c 128,-1,65
 678 -257 678 -257 499 -257 c 0,14,15
EndSplineSet
EndChar

StartChar: dieresis
Encoding: 168 168 106
Width: 1004
GlyphClass: 2
Flags: W
LayerCount: 2
Fore
SplineSet
305 1261 m 128,-1,1
 259 1261 259 1261 226 1294 c 128,-1,2
 193 1327 193 1327 193 1373 c 128,-1,3
 193 1419 193 1419 226 1452 c 128,-1,4
 259 1485 259 1485 305 1485 c 0,5,6
 352 1485 352 1485 384.5 1452.5 c 128,-1,7
 417 1420 417 1420 417 1373 c 0,8,9
 417 1327 417 1327 384 1294 c 128,-1,0
 351 1261 351 1261 305 1261 c 128,-1,1
699 1261 m 128,-1,11
 653 1261 653 1261 620 1294 c 128,-1,12
 587 1327 587 1327 587 1373 c 128,-1,13
 587 1419 587 1419 620 1452 c 128,-1,14
 653 1485 653 1485 699 1485 c 0,15,16
 746 1485 746 1485 778.5 1452.5 c 128,-1,17
 811 1420 811 1420 811 1373 c 0,18,19
 811 1327 811 1327 778 1294 c 128,-1,10
 745 1261 745 1261 699 1261 c 128,-1,11
EndSplineSet
EndChar

StartChar: copyright
Encoding: 169 169 107
Width: 1706
GlyphClass: 2
Flags: W
LayerCount: 2
Fore
SplineSet
853 -168 m 0,0,1
 633 -168 633 -168 451.5 -64.5 c 128,-1,2
 270 39 270 39 165 221.5 c 128,-1,3
 60 404 60 404 60 626 c 0,4,5
 60 849 60 849 165 1031.5 c 128,-1,6
 270 1214 270 1214 451.5 1317 c 128,-1,7
 633 1420 633 1420 853 1420 c 0,8,9
 1074 1420 1074 1420 1255.5 1317 c 128,-1,10
 1437 1214 1437 1214 1541.5 1031.5 c 128,-1,11
 1646 849 1646 849 1646 626 c 0,12,13
 1646 404 1646 404 1541.5 221.5 c 128,-1,14
 1437 39 1437 39 1255.5 -64.5 c 128,-1,15
 1074 -168 1074 -168 853 -168 c 0,0,1
853 -28 m 0,16,17
 1034 -28 1034 -28 1183.5 57 c 128,-1,18
 1333 142 1333 142 1419 292 c 128,-1,19
 1505 442 1505 442 1505 626 c 0,20,21
 1505 811 1505 811 1419 961 c 128,-1,22
 1333 1111 1333 1111 1183.5 1195.5 c 128,-1,23
 1034 1280 1034 1280 853 1280 c 128,-1,24
 672 1280 672 1280 523 1195.5 c 128,-1,25
 374 1111 374 1111 287.5 961 c 128,-1,26
 201 811 201 811 201 626 c 0,27,28
 201 442 201 442 287.5 292 c 128,-1,29
 374 142 374 142 523.5 57 c 128,-1,30
 673 -28 673 -28 853 -28 c 0,16,17
1231 768 m 1,31,-1
 1092 768 l 1,32,33
 1075 836 1075 836 1016.5 880 c 128,-1,34
 958 924 958 924 870 924 c 0,35,36
 754 924 754 924 685.5 844.5 c 128,-1,37
 617 765 617 765 617 628 c 0,38,39
 617 489 617 489 686 408.5 c 128,-1,40
 755 328 755 328 870 328 c 0,41,42
 956 328 956 328 1014.5 367 c 128,-1,43
 1073 406 1073 406 1092 479 c 1,44,-1
 1231 479 l 1,45,46
 1212 356 1212 356 1116.5 280 c 128,-1,47
 1021 204 1021 204 871 204 c 0,48,49
 690 204 690 204 582.5 318 c 128,-1,50
 475 432 475 432 475 628 c 0,51,52
 475 820 475 820 582.5 934 c 128,-1,53
 690 1048 690 1048 870 1048 c 0,54,55
 1020 1048 1020 1048 1116 968.5 c 128,-1,56
 1212 889 1212 889 1231 768 c 1,31,-1
EndSplineSet
EndChar

StartChar: ordfeminine
Encoding: 170 170 108
Width: 886
GlyphClass: 2
Flags: W
LayerCount: 2
Fore
SplineSet
262 866 m 0,0,1
 262 806 262 806 304.5 770.5 c 128,-1,2
 347 735 347 735 419 735 c 0,3,4
 510 735 510 735 571.5 790 c 128,-1,5
 633 845 633 845 633 927 c 2,6,-1
 633 1011 l 1,7,-1
 431 996 l 2,8,9
 262 984 262 984 262 866 c 0,0,1
372 609 m 0,10,11
 254 609 254 609 180.5 679 c 128,-1,12
 107 749 107 749 107 860 c 0,13,14
 107 970 107 970 185.5 1034 c 128,-1,15
 264 1098 264 1098 412 1108 c 2,16,-1
 630 1122 l 1,17,-1
 630 1191 l 2,18,19
 630 1256 630 1256 584.5 1292.5 c 128,-1,20
 539 1329 539 1329 457 1329 c 0,21,22
 388 1329 388 1329 344.5 1303.5 c 128,-1,23
 301 1278 301 1278 290 1231 c 1,24,-1
 138 1231 l 1,25,26
 148 1336 148 1336 236 1398.5 c 128,-1,27
 324 1461 324 1461 461 1461 c 0,28,29
 609 1461 609 1461 694 1387.5 c 128,-1,30
 779 1314 779 1314 779 1186 c 2,31,-1
 779 630 l 1,32,-1
 636 630 l 1,33,-1
 636 737 l 1,34,-1
 625 737 l 1,35,36
 583 676 583 676 517 642.5 c 128,-1,37
 451 609 451 609 372 609 c 0,10,11
EndSplineSet
EndChar

StartChar: guillemotleft
Encoding: 171 171 109
Width: 1303
GlyphClass: 2
Flags: W
LayerCount: 2
Fore
SplineSet
816 572 m 1,0,-1
 816 558 l 1,1,-1
 1167 145 l 1,2,-1
 963 145 l 1,3,-1
 613 561 l 1,4,-1
 613 569 l 1,5,-1
 963 985 l 1,6,-1
 1167 985 l 1,7,-1
 816 572 l 1,0,-1
338 572 m 1,8,-1
 338 558 l 1,9,-1
 689 145 l 1,10,-1
 485 145 l 1,11,-1
 135 561 l 1,12,-1
 135 569 l 1,13,-1
 485 985 l 1,14,-1
 689 985 l 1,15,-1
 338 572 l 1,8,-1
EndSplineSet
EndChar

StartChar: logicalnot
Encoding: 172 172 110
Width: 1239
GlyphClass: 2
Flags: W
LayerCount: 2
Fore
SplineSet
1093 654 m 1,0,-1
 1093 126 l 1,1,-1
 945 126 l 1,2,-1
 945 506 l 1,3,-1
 146 506 l 1,4,-1
 146 654 l 1,5,-1
 1093 654 l 1,0,-1
EndSplineSet
Substitution2: "'case' Case-Sensitive Forms in Latin lookup 4 subtable" logicalnot.uc
EndChar

StartChar: registered
Encoding: 174 174 111
Width: 1070
GlyphClass: 2
Flags: W
LayerCount: 2
Fore
SplineSet
535 690 m 128,-1,1
 353 690 353 690 226.5 814.5 c 128,-1,2
 100 939 100 939 100 1117 c 0,3,4
 100 1296 100 1296 226.5 1420 c 128,-1,5
 353 1544 353 1544 535 1544 c 128,-1,6
 717 1544 717 1544 843.5 1420 c 128,-1,7
 970 1296 970 1296 970 1117 c 128,-1,8
 970 938 970 938 843.5 814 c 128,-1,0
 717 690 717 690 535 690 c 128,-1,1
535 782 m 0,9,10
 676 782 676 782 773 879.5 c 128,-1,11
 870 977 870 977 870 1117 c 0,12,13
 870 1258 870 1258 773 1355 c 128,-1,14
 676 1452 676 1452 535 1452 c 0,15,16
 395 1452 395 1452 297.5 1355 c 128,-1,17
 200 1258 200 1258 200 1117 c 0,18,19
 200 977 200 977 297.5 879.5 c 128,-1,20
 395 782 395 782 535 782 c 0,9,10
450 927 m 1,21,-1
 364 927 l 1,22,-1
 364 1335 l 1,23,-1
 564 1335 l 2,24,25
 627 1335 627 1335 667.5 1300 c 128,-1,26
 708 1265 708 1265 708 1211 c 0,27,28
 708 1162 708 1162 682 1130 c 128,-1,29
 656 1098 656 1098 612 1091 c 1,30,-1
 728 927 l 1,31,-1
 620 927 l 1,32,-1
 521 1078 l 1,33,-1
 450 1078 l 1,34,-1
 450 927 l 1,21,-1
450 1263 m 1,35,-1
 450 1145 l 1,36,-1
 547 1145 l 2,37,38
 579 1145 579 1145 597 1161.5 c 128,-1,39
 615 1178 615 1178 615 1207 c 0,40,41
 615 1263 615 1263 550 1263 c 2,42,-1
 450 1263 l 1,35,-1
EndSplineSet
EndChar

StartChar: macron
Encoding: 175 175 112
Width: 1000
GlyphClass: 2
Flags: W
LayerCount: 2
Fore
SplineSet
817 1426 m 1,0,-1
 817 1320 l 1,1,-1
 183 1320 l 1,2,-1
 183 1426 l 1,3,-1
 817 1426 l 1,0,-1
EndSplineSet
EndChar

StartChar: degree
Encoding: 176 176 113
Width: 733
GlyphClass: 2
Flags: W
LayerCount: 2
Fore
SplineSet
366 862 m 0,0,1
 247 862 247 862 164.5 945 c 128,-1,2
 82 1028 82 1028 82 1147 c 128,-1,3
 82 1266 82 1266 164.5 1349 c 128,-1,4
 247 1432 247 1432 366 1432 c 0,5,6
 484 1432 484 1432 567.5 1349 c 128,-1,7
 651 1266 651 1266 651 1147 c 128,-1,8
 651 1028 651 1028 567.5 945 c 128,-1,9
 484 862 484 862 366 862 c 0,0,1
366 991 m 0,10,11
 432 991 432 991 478 1037 c 128,-1,12
 524 1083 524 1083 524 1147 c 0,13,14
 524 1212 524 1212 478 1258 c 128,-1,15
 432 1304 432 1304 366 1304 c 0,16,17
 303 1304 303 1304 256 1258 c 128,-1,18
 209 1212 209 1212 209 1147 c 0,19,20
 209 1084 209 1084 256 1037.5 c 128,-1,21
 303 991 303 991 366 991 c 0,10,11
EndSplineSet
EndChar

StartChar: plusminus
Encoding: 177 177 114
Width: 1239
GlyphClass: 2
Flags: W
LayerCount: 2
Fore
SplineSet
1128 112 m 1,0,-1
 111 112 l 1,1,-1
 111 260 l 1,2,-1
 1128 260 l 1,3,-1
 1128 112 l 1,0,-1
693 662 m 1,4,-1
 693 371 l 1,5,-1
 546 371 l 1,6,-1
 546 662 l 1,7,-1
 111 662 l 1,8,-1
 111 798 l 1,9,-1
 546 798 l 1,10,-1
 546 1089 l 1,11,-1
 693 1089 l 1,12,-1
 693 798 l 1,13,-1
 1128 798 l 1,14,-1
 1128 662 l 1,15,-1
 693 662 l 1,4,-1
EndSplineSet
Substitution2: "'case' Case-Sensitive Forms in Latin lookup 4 subtable" plusminus.uc
EndChar

StartChar: two.sups
Encoding: 178 178 115
Width: 617
GlyphClass: 2
Flags: W
LayerCount: 2
Fore
SplineSet
45 1601 m 2,0,1
 45 1701 45 1701 117.5 1763.5 c 128,-1,2
 190 1826 190 1826 306 1826 c 0,3,4
 418 1826 418 1826 488 1770 c 128,-1,5
 558 1714 558 1714 558 1625 c 0,6,7
 558 1572 558 1572 530 1524 c 128,-1,8
 502 1476 502 1476 431 1409 c 2,9,-1
 266 1254 l 1,10,-1
 266 1251 l 1,11,-1
 567 1251 l 1,12,-1
 567 1125 l 1,13,-1
 54 1125 l 1,14,-1
 54 1233 l 1,15,-1
 318 1480 l 2,16,17
 365 1526 365 1526 383 1555.5 c 128,-1,18
 401 1585 401 1585 401 1615 c 0,19,20
 401 1654 401 1654 372.5 1678.5 c 128,-1,21
 344 1703 344 1703 299 1703 c 128,-1,22
 254 1703 254 1703 224 1674 c 128,-1,23
 194 1645 194 1645 194 1601 c 2,24,-1
 194 1598 l 1,25,-1
 45 1598 l 1,26,-1
 45 1601 l 2,0,1
EndSplineSet
EndChar

StartChar: three.sups
Encoding: 179 179 116
Width: 643
GlyphClass: 2
Flags: W
LayerCount: 2
Fore
SplineSet
230 1419 m 1,0,-1
 230 1532 l 1,1,-1
 314 1532 l 2,2,3
 360 1532 360 1532 387.5 1556 c 128,-1,4
 415 1580 415 1580 415 1620 c 0,5,6
 415 1659 415 1659 387.5 1681.5 c 128,-1,7
 360 1704 360 1704 312 1704 c 0,8,9
 266 1704 266 1704 236.5 1678.5 c 128,-1,10
 207 1653 207 1653 205 1611 c 1,11,-1
 58 1611 l 1,12,13
 60 1709 60 1709 131.5 1767.5 c 128,-1,14
 203 1826 203 1826 319 1826 c 0,15,16
 431 1826 431 1826 499 1775.5 c 128,-1,17
 567 1725 567 1725 567 1642 c 0,18,19
 567 1581 567 1581 528.5 1537.5 c 128,-1,20
 490 1494 490 1494 425 1483 c 1,21,-1
 425 1479 l 1,22,23
 503 1472 503 1472 548 1428 c 128,-1,24
 593 1384 593 1384 593 1315 c 0,25,26
 593 1222 593 1222 516.5 1165.5 c 128,-1,27
 440 1109 440 1109 314 1109 c 0,28,29
 196 1109 196 1109 123 1168 c 128,-1,30
 50 1227 50 1227 45 1326 c 1,31,-1
 199 1326 l 1,32,33
 202 1285 202 1285 233.5 1261 c 128,-1,34
 265 1237 265 1237 316 1237 c 0,35,36
 365 1237 365 1237 396.5 1262 c 128,-1,37
 428 1287 428 1287 428 1327 c 0,38,39
 428 1370 428 1370 397.5 1394.5 c 128,-1,40
 367 1419 367 1419 314 1419 c 2,41,-1
 230 1419 l 1,0,-1
EndSplineSet
EndChar

StartChar: acute
Encoding: 180 180 117
Width: 1005
GlyphClass: 2
Flags: W
LayerCount: 2
Fore
SplineSet
447 1250 m 1,0,-1
 299 1250 l 1,1,-1
 510 1550 l 1,2,-1
 708 1550 l 1,3,-1
 447 1250 l 1,0,-1
EndSplineSet
EndChar

StartChar: paragraph
Encoding: 182 182 118
Width: 1201
GlyphClass: 2
Flags: W
LayerCount: 2
Fore
SplineSet
774 -220 m 1,0,-1
 594 -220 l 1,1,-1
 594 575 l 1,2,-1
 574 575 l 2,3,4
 372 575 372 575 236 696.5 c 128,-1,5
 100 818 100 818 100 1002 c 0,6,7
 100 1193 100 1193 236.5 1318 c 128,-1,8
 373 1443 373 1443 575 1443 c 2,9,-1
 774 1443 l 1,10,-1
 774 -220 l 1,0,-1
921 -220 m 1,11,-1
 921 1443 l 1,12,-1
 1101 1443 l 1,13,-1
 1101 -220 l 1,14,-1
 921 -220 l 1,11,-1
EndSplineSet
EndChar

StartChar: periodcentered
Encoding: 183 183 119
Width: 520
GlyphClass: 2
Flags: W
LayerCount: 2
Fore
SplineSet
260 491 m 0,0,1
 212 491 212 491 179 524 c 128,-1,2
 146 557 146 557 146 605 c 0,3,4
 146 654 146 654 179 686.5 c 128,-1,5
 212 719 212 719 260 719 c 0,6,7
 309 719 309 719 341.5 686.5 c 128,-1,8
 374 654 374 654 374 605 c 0,9,10
 374 557 374 557 341.5 524 c 128,-1,11
 309 491 309 491 260 491 c 0,0,1
EndSplineSet
EndChar

StartChar: cedilla
Encoding: 184 184 120
Width: 1005
GlyphClass: 2
Flags: W
LayerCount: 2
Fore
SplineSet
359 -230 m 1,0,-1
 359 -156 l 1,1,-1
 422 8 l 1,2,-1
 531 0 l 1,3,-1
 479 -142 l 1,4,5
 688 -142 688 -142 688 -292 c 0,6,7
 688 -368 688 -368 626 -418 c 128,-1,8
 564 -468 564 -468 469 -469 c 0,9,10
 386 -470 386 -470 322 -452 c 1,11,-1
 322 -354 l 1,12,13
 360 -369 360 -369 444 -369 c 0,14,15
 564 -369 564 -369 564 -296 c 0,16,17
 564 -261 564 -261 528.5 -245.5 c 128,-1,18
 493 -230 493 -230 414 -230 c 2,19,-1
 359 -230 l 1,0,-1
EndSplineSet
EndChar

StartChar: one.sups
Encoding: 185 185 121
Width: 497
GlyphClass: 2
Flags: W
LayerCount: 2
Fore
SplineSet
251 1125 m 1,0,-1
 251 1670 l 1,1,-1
 248 1670 l 1,2,-1
 70 1548 l 1,3,-1
 70 1690 l 1,4,-1
 246 1810 l 1,5,-1
 404 1810 l 1,6,-1
 404 1125 l 1,7,-1
 251 1125 l 1,0,-1
EndSplineSet
EndChar

StartChar: ordmasculine
Encoding: 186 186 122
Width: 949
GlyphClass: 2
Flags: W
LayerCount: 2
Fore
SplineSet
253 1029 m 128,-1,1
 253 889 253 889 311 812.5 c 128,-1,2
 369 736 369 736 475 736 c 128,-1,3
 581 736 581 736 639 812.5 c 128,-1,4
 697 889 697 889 697 1030 c 0,5,6
 697 1170 697 1170 639.5 1246 c 128,-1,7
 582 1322 582 1322 475 1322 c 0,8,9
 369 1322 369 1322 311 1245.5 c 128,-1,0
 253 1169 253 1169 253 1029 c 128,-1,1
475 604 m 0,10,11
 297 604 297 604 195 718 c 128,-1,12
 93 832 93 832 93 1029 c 0,13,14
 93 1227 93 1227 195.5 1341.5 c 128,-1,15
 298 1456 298 1456 475 1456 c 128,-1,16
 652 1456 652 1456 754 1342 c 128,-1,17
 856 1228 856 1228 856 1030 c 128,-1,18
 856 832 856 832 754 718 c 128,-1,19
 652 604 652 604 475 604 c 0,10,11
EndSplineSet
EndChar

StartChar: guillemotright
Encoding: 187 187 123
Width: 1302
GlyphClass: 2
Flags: W
LayerCount: 2
Fore
SplineSet
486 572 m 1,0,-1
 135 985 l 1,1,-1
 339 985 l 1,2,-1
 689 569 l 1,3,-1
 689 561 l 1,4,-1
 339 145 l 1,5,-1
 135 145 l 1,6,-1
 486 558 l 1,7,-1
 486 572 l 1,0,-1
964 572 m 1,8,-1
 613 985 l 1,9,-1
 817 985 l 1,10,-1
 1167 569 l 1,11,-1
 1167 561 l 1,12,-1
 817 145 l 1,13,-1
 613 145 l 1,14,-1
 964 558 l 1,15,-1
 964 572 l 1,8,-1
EndSplineSet
EndChar

StartChar: onequarter
Encoding: 188 188 124
Width: 1462
GlyphClass: 2
Flags: W
LayerCount: 2
Fore
SplineSet
265 0 m 1,0,-1
 91 0 l 1,1,-1
 1147 1443 l 1,2,-1
 1319 1443 l 1,3,-1
 265 0 l 1,0,-1
1189 0 m 1,4,-1
 1189 115 l 1,5,-1
 850 115 l 1,6,-1
 850 252 l 1,7,8
 928 403 928 403 1117 685 c 1,9,-1
 1343 685 l 1,10,-1
 1343 243 l 1,11,-1
 1430 243 l 1,12,-1
 1430 115 l 1,13,-1
 1343 115 l 1,14,-1
 1343 0 l 1,15,-1
 1189 0 l 1,4,-1
989 241 m 1,16,-1
 989 238 l 1,17,-1
 1193 238 l 1,18,-1
 1193 573 l 1,19,-1
 1190 573 l 1,20,21
 1051 359 1051 359 989 241 c 1,16,-1
261 758 m 1,22,-1
 261 1303 l 1,23,-1
 258 1303 l 1,24,-1
 80 1181 l 1,25,-1
 80 1323 l 1,26,-1
 256 1443 l 1,27,-1
 414 1443 l 1,28,-1
 414 758 l 1,29,-1
 261 758 l 1,22,-1
EndSplineSet
EndChar

StartChar: onehalf
Encoding: 189 189 125
Width: 1462
GlyphClass: 2
Flags: W
LayerCount: 2
Fore
SplineSet
265 0 m 1,0,-1
 91 0 l 1,1,-1
 1147 1443 l 1,2,-1
 1319 1443 l 1,3,-1
 265 0 l 1,0,-1
261 758 m 1,4,-1
 261 1303 l 1,5,-1
 258 1303 l 1,6,-1
 80 1181 l 1,7,-1
 80 1323 l 1,8,-1
 256 1443 l 1,9,-1
 414 1443 l 1,10,-1
 414 758 l 1,11,-1
 261 758 l 1,4,-1
908 476 m 2,12,13
 908 576 908 576 980.5 638.5 c 128,-1,14
 1053 701 1053 701 1169 701 c 0,15,16
 1281 701 1281 701 1351 645 c 128,-1,17
 1421 589 1421 589 1421 500 c 0,18,19
 1421 447 1421 447 1393 399 c 128,-1,20
 1365 351 1365 351 1294 284 c 2,21,-1
 1129 129 l 1,22,-1
 1129 126 l 1,23,-1
 1430 126 l 1,24,-1
 1430 0 l 1,25,-1
 917 0 l 1,26,-1
 917 108 l 1,27,-1
 1181 355 l 2,28,29
 1228 401 1228 401 1246 430.5 c 128,-1,30
 1264 460 1264 460 1264 490 c 0,31,32
 1264 529 1264 529 1235.5 553.5 c 128,-1,33
 1207 578 1207 578 1162 578 c 128,-1,34
 1117 578 1117 578 1087 549 c 128,-1,35
 1057 520 1057 520 1057 476 c 2,36,-1
 1057 473 l 1,37,-1
 908 473 l 1,38,-1
 908 476 l 2,12,13
EndSplineSet
EndChar

StartChar: threequarters
Encoding: 190 190 126
Width: 1572
GlyphClass: 2
Flags: W
LayerCount: 2
Fore
SplineSet
375 0 m 1,0,-1
 201 0 l 1,1,-1
 1257 1443 l 1,2,-1
 1429 1443 l 1,3,-1
 375 0 l 1,0,-1
1299 0 m 1,4,-1
 1299 115 l 1,5,-1
 960 115 l 1,6,-1
 960 252 l 1,7,8
 1038 403 1038 403 1227 685 c 1,9,-1
 1453 685 l 1,10,-1
 1453 243 l 1,11,-1
 1540 243 l 1,12,-1
 1540 115 l 1,13,-1
 1453 115 l 1,14,-1
 1453 0 l 1,15,-1
 1299 0 l 1,4,-1
1099 241 m 1,16,-1
 1099 238 l 1,17,-1
 1303 238 l 1,18,-1
 1303 573 l 1,19,-1
 1300 573 l 1,20,21
 1161 359 1161 359 1099 241 c 1,16,-1
230 1052 m 1,22,-1
 230 1165 l 1,23,-1
 314 1165 l 2,24,25
 360 1165 360 1165 387.5 1189 c 128,-1,26
 415 1213 415 1213 415 1253 c 0,27,28
 415 1292 415 1292 387.5 1314.5 c 128,-1,29
 360 1337 360 1337 312 1337 c 0,30,31
 266 1337 266 1337 236.5 1311.5 c 128,-1,32
 207 1286 207 1286 205 1244 c 1,33,-1
 58 1244 l 1,34,35
 60 1342 60 1342 131.5 1400.5 c 128,-1,36
 203 1459 203 1459 319 1459 c 0,37,38
 431 1459 431 1459 499 1408.5 c 128,-1,39
 567 1358 567 1358 567 1275 c 0,40,41
 567 1214 567 1214 528.5 1170.5 c 128,-1,42
 490 1127 490 1127 425 1116 c 1,43,-1
 425 1112 l 1,44,45
 503 1105 503 1105 548 1061 c 128,-1,46
 593 1017 593 1017 593 948 c 0,47,48
 593 855 593 855 516.5 798.5 c 128,-1,49
 440 742 440 742 314 742 c 0,50,51
 196 742 196 742 123 801 c 128,-1,52
 50 860 50 860 45 959 c 1,53,-1
 199 959 l 1,54,55
 202 918 202 918 233.5 894 c 128,-1,56
 265 870 265 870 316 870 c 0,57,58
 365 870 365 870 396.5 895 c 128,-1,59
 428 920 428 920 428 960 c 0,60,61
 428 1003 428 1003 397.5 1027.5 c 128,-1,62
 367 1052 367 1052 314 1052 c 2,63,-1
 230 1052 l 1,22,-1
EndSplineSet
EndChar

StartChar: questiondown
Encoding: 191 191 127
Width: 1002
GlyphClass: 2
Flags: W
LayerCount: 2
Fore
SplineSet
946 32 m 1,0,1
 938 -139 938 -139 825 -248 c 128,-1,2
 712 -357 712 -357 511 -357 c 0,3,4
 323 -357 323 -357 204.5 -254 c 128,-1,5
 86 -151 86 -151 86 7 c 0,6,7
 86 223 86 223 295 350 c 0,8,9
 389 406 389 406 423 456 c 128,-1,10
 457 506 457 506 457 586 c 2,11,-1
 457 651 l 1,12,-1
 632 651 l 1,13,-1
 632 559 l 2,14,15
 633 461 633 461 585.5 389.5 c 128,-1,16
 538 318 538 318 433 255 c 0,17,18
 346 201 346 201 309 147.5 c 128,-1,19
 272 94 272 94 272 16 c 0,20,21
 272 -80 272 -80 339.5 -140.5 c 128,-1,22
 407 -201 407 -201 518 -201 c 0,23,24
 630 -201 630 -201 698.5 -138.5 c 128,-1,25
 767 -76 767 -76 775 32 c 1,26,-1
 946 32 l 1,0,1
532 885 m 0,27,28
 484 885 484 885 451 918 c 128,-1,29
 418 951 418 951 418 999 c 0,30,31
 418 1048 418 1048 451 1080.5 c 128,-1,32
 484 1113 484 1113 532 1113 c 0,33,34
 581 1113 581 1113 613.5 1080.5 c 128,-1,35
 646 1048 646 1048 646 999 c 0,36,37
 646 951 646 951 613.5 918 c 128,-1,38
 581 885 581 885 532 885 c 0,27,28
EndSplineSet
EndChar

StartChar: Agrave
Encoding: 192 192 128
Width: 1292
GlyphClass: 2
Flags: W
LayerCount: 2
Fore
SplineSet
1078 0 m 1,0,-1
 933 413 l 1,1,-1
 359 413 l 1,2,-1
 214 0 l 1,3,-1
 25 0 l 1,4,-1
 557 1443 l 1,5,-1
 735 1443 l 1,6,-1
 1267 0 l 1,7,-1
 1078 0 l 1,0,-1
643 1224 m 1,8,-1
 412 566 l 1,9,-1
 880 566 l 1,10,-1
 649 1224 l 1,11,-1
 643 1224 l 1,8,-1
572 1550 m 1,12,-1
 291 1849 l 1,13,-1
 489 1849 l 1,14,-1
 720 1550 l 1,15,-1
 572 1550 l 1,12,-1
EndSplineSet
EndChar

StartChar: Aacute
Encoding: 193 193 129
Width: 1292
GlyphClass: 2
Flags: W
LayerCount: 2
Fore
SplineSet
1078 0 m 1,0,-1
 933 413 l 1,1,-1
 359 413 l 1,2,-1
 214 0 l 1,3,-1
 25 0 l 1,4,-1
 557 1443 l 1,5,-1
 735 1443 l 1,6,-1
 1267 0 l 1,7,-1
 1078 0 l 1,0,-1
643 1224 m 1,8,-1
 412 566 l 1,9,-1
 880 566 l 1,10,-1
 649 1224 l 1,11,-1
 643 1224 l 1,8,-1
723 1550 m 1,12,-1
 575 1550 l 1,13,-1
 806 1849 l 1,14,-1
 1004 1849 l 1,15,-1
 723 1550 l 1,12,-1
EndSplineSet
EndChar

StartChar: Acircumflex
Encoding: 194 194 130
Width: 1292
GlyphClass: 2
Flags: W
LayerCount: 2
Fore
SplineSet
1078 0 m 1,0,-1
 933 413 l 1,1,-1
 359 413 l 1,2,-1
 214 0 l 1,3,-1
 25 0 l 1,4,-1
 557 1443 l 1,5,-1
 735 1443 l 1,6,-1
 1267 0 l 1,7,-1
 1078 0 l 1,0,-1
643 1224 m 1,8,-1
 412 566 l 1,9,-1
 880 566 l 1,10,-1
 649 1224 l 1,11,-1
 643 1224 l 1,8,-1
575 1849 m 1,12,-1
 717 1849 l 1,13,-1
 1009 1550 l 1,14,-1
 841 1550 l 1,15,-1
 647 1751 l 1,16,-1
 645 1751 l 1,17,-1
 451 1550 l 1,18,-1
 283 1550 l 1,19,-1
 575 1849 l 1,12,-1
EndSplineSet
EndChar

StartChar: Atilde
Encoding: 195 195 131
Width: 1292
GlyphClass: 2
Flags: W
LayerCount: 2
Fore
SplineSet
1078 0 m 1,0,-1
 933 413 l 1,1,-1
 359 413 l 1,2,-1
 214 0 l 1,3,-1
 25 0 l 1,4,-1
 557 1443 l 1,5,-1
 735 1443 l 1,6,-1
 1267 0 l 1,7,-1
 1078 0 l 1,0,-1
643 1224 m 1,8,-1
 412 566 l 1,9,-1
 880 566 l 1,10,-1
 649 1224 l 1,11,-1
 643 1224 l 1,8,-1
774 1535 m 0,12,13
 738 1535 738 1535 706.5 1550.5 c 128,-1,14
 675 1566 675 1566 652.5 1588.5 c 128,-1,15
 630 1611 630 1611 610 1633.5 c 128,-1,16
 590 1656 590 1656 568 1671.5 c 128,-1,17
 546 1687 546 1687 525 1687 c 0,18,19
 492 1687 492 1687 474 1651.5 c 128,-1,20
 456 1616 456 1616 456 1550 c 1,21,-1
 342 1550 l 1,22,23
 342 1668 342 1668 389 1734 c 128,-1,24
 436 1800 436 1800 520 1800 c 0,25,26
 567 1800 567 1800 607.5 1776 c 128,-1,27
 648 1752 648 1752 671.5 1724 c 128,-1,28
 695 1696 695 1696 722.5 1672 c 128,-1,29
 750 1648 750 1648 774 1648 c 0,30,31
 836 1648 836 1648 836 1786 c 1,32,-1
 950 1786 l 1,33,34
 950 1671 950 1671 902 1603 c 128,-1,35
 854 1535 854 1535 774 1535 c 0,12,13
EndSplineSet
EndChar

StartChar: Adieresis
Encoding: 196 196 132
Width: 1292
GlyphClass: 2
Flags: W
LayerCount: 2
Fore
SplineSet
1078 0 m 1,0,-1
 933 413 l 1,1,-1
 359 413 l 1,2,-1
 214 0 l 1,3,-1
 25 0 l 1,4,-1
 557 1443 l 1,5,-1
 735 1443 l 1,6,-1
 1267 0 l 1,7,-1
 1078 0 l 1,0,-1
643 1224 m 1,8,-1
 412 566 l 1,9,-1
 880 566 l 1,10,-1
 649 1224 l 1,11,-1
 643 1224 l 1,8,-1
449 1585 m 128,-1,13
 403 1585 403 1585 370 1618 c 128,-1,14
 337 1651 337 1651 337 1697 c 128,-1,15
 337 1743 337 1743 370 1776 c 128,-1,16
 403 1809 403 1809 449 1809 c 0,17,18
 496 1809 496 1809 528.5 1776.5 c 128,-1,19
 561 1744 561 1744 561 1697 c 0,20,21
 561 1651 561 1651 528 1618 c 128,-1,12
 495 1585 495 1585 449 1585 c 128,-1,13
843 1585 m 128,-1,23
 797 1585 797 1585 764 1618 c 128,-1,24
 731 1651 731 1651 731 1697 c 128,-1,25
 731 1743 731 1743 764 1776 c 128,-1,26
 797 1809 797 1809 843 1809 c 0,27,28
 890 1809 890 1809 922.5 1776.5 c 128,-1,29
 955 1744 955 1744 955 1697 c 0,30,31
 955 1651 955 1651 922 1618 c 128,-1,22
 889 1585 889 1585 843 1585 c 128,-1,23
EndSplineSet
EndChar

StartChar: Aring
Encoding: 197 197 133
Width: 1292
GlyphClass: 2
Flags: W
LayerCount: 2
Fore
SplineSet
1078 0 m 1,0,-1
 933 413 l 1,1,-1
 359 413 l 1,2,-1
 214 0 l 1,3,-1
 25 0 l 1,4,-1
 557 1443 l 1,5,-1
 735 1443 l 1,6,-1
 1267 0 l 1,7,-1
 1078 0 l 1,0,-1
643 1224 m 1,8,-1
 412 566 l 1,9,-1
 880 566 l 1,10,-1
 649 1224 l 1,11,-1
 643 1224 l 1,8,-1
646 1507 m 128,-1,13
 564 1507 564 1507 505.5 1565.5 c 128,-1,14
 447 1624 447 1624 447 1706 c 128,-1,15
 447 1788 447 1788 505.5 1846.5 c 128,-1,16
 564 1905 564 1905 646 1905 c 128,-1,17
 728 1905 728 1905 786.5 1846.5 c 128,-1,18
 845 1788 845 1788 845 1706 c 128,-1,19
 845 1624 845 1624 786.5 1565.5 c 128,-1,12
 728 1507 728 1507 646 1507 c 128,-1,13
646 1590 m 128,-1,21
 694 1590 694 1590 728 1624 c 128,-1,22
 762 1658 762 1658 762 1706 c 128,-1,23
 762 1754 762 1754 728 1788 c 128,-1,24
 694 1822 694 1822 646 1822 c 128,-1,25
 598 1822 598 1822 564 1788 c 128,-1,26
 530 1754 530 1754 530 1706 c 128,-1,27
 530 1658 530 1658 564 1624 c 128,-1,20
 598 1590 598 1590 646 1590 c 128,-1,21
EndSplineSet
EndChar

StartChar: AE
Encoding: 198 198 134
Width: 1973
GlyphClass: 2
Flags: W
LayerCount: 2
Fore
SplineSet
802 1292 m 1,0,-1
 480 612 l 1,1,-1
 962 612 l 1,2,-1
 962 1292 l 1,3,-1
 802 1292 l 1,0,-1
962 0 m 1,4,-1
 962 459 l 1,5,-1
 407 459 l 1,6,-1
 190 0 l 1,7,-1
 5 0 l 1,8,-1
 692 1443 l 1,9,-1
 1836 1443 l 1,10,-1
 1836 1281 l 1,11,-1
 1142 1281 l 1,12,-1
 1142 808 l 1,13,-1
 1799 808 l 1,14,-1
 1799 648 l 1,15,-1
 1142 648 l 1,16,-1
 1142 162 l 1,17,-1
 1836 162 l 1,18,-1
 1836 0 l 1,19,-1
 962 0 l 1,4,-1
EndSplineSet
EndChar

StartChar: Ccedilla
Encoding: 199 199 135
Width: 1405
GlyphClass: 2
Flags: W
LayerCount: 2
Fore
SplineSet
1333 988 m 1,0,-1
 1151 988 l 1,1,2
 1116 1130 1116 1130 1002 1215.5 c 128,-1,3
 888 1301 888 1301 734 1301 c 0,4,5
 523 1301 523 1301 396 1143 c 128,-1,6
 269 985 269 985 269 722 c 0,7,8
 269 456 269 456 395 299 c 128,-1,9
 521 142 521 142 735 142 c 0,10,11
 894 142 894 142 1003 215 c 128,-1,12
 1112 288 1112 288 1151 420 c 1,13,-1
 1333 420 l 1,14,15
 1287 220 1287 220 1148 106 c 128,-1,16
 1009 -8 1009 -8 794 -22 c 1,17,-1
 750 -142 l 1,18,19
 959 -142 959 -142 959 -292 c 0,20,21
 959 -368 959 -368 897 -418 c 128,-1,22
 835 -468 835 -468 740 -469 c 0,23,24
 657 -470 657 -470 593 -452 c 1,25,-1
 593 -354 l 1,26,27
 630 -369 630 -369 715 -369 c 0,28,29
 835 -369 835 -369 835 -296 c 0,30,31
 835 -261 835 -261 799.5 -245.5 c 128,-1,32
 764 -230 764 -230 685 -230 c 2,33,-1
 630 -230 l 1,34,-1
 630 -156 l 1,35,-1
 681 -22 l 1,36,37
 405 -4 405 -4 244.5 195.5 c 128,-1,38
 84 395 84 395 84 722 c 0,39,40
 84 1062 84 1062 261 1264.5 c 128,-1,41
 438 1467 438 1467 734 1467 c 0,42,43
 970 1467 970 1467 1134.5 1335.5 c 128,-1,44
 1299 1204 1299 1204 1333 988 c 1,0,-1
EndSplineSet
EndChar

StartChar: Egrave
Encoding: 200 200 136
Width: 1131
GlyphClass: 2
Flags: W
LayerCount: 2
Fore
SplineSet
1034 162 m 1,0,-1
 1034 0 l 1,1,-1
 140 0 l 1,2,-1
 140 1443 l 1,3,-1
 1034 1443 l 1,4,-1
 1034 1281 l 1,5,-1
 320 1281 l 1,6,-1
 320 818 l 1,7,-1
 997 818 l 1,8,-1
 997 658 l 1,9,-1
 320 658 l 1,10,-1
 320 162 l 1,11,-1
 1034 162 l 1,0,-1
513 1550 m 1,12,-1
 232 1849 l 1,13,-1
 430 1849 l 1,14,-1
 661 1550 l 1,15,-1
 513 1550 l 1,12,-1
EndSplineSet
EndChar

StartChar: Eacute
Encoding: 201 201 137
Width: 1131
GlyphClass: 2
Flags: W
LayerCount: 2
Fore
SplineSet
1034 162 m 1,0,-1
 1034 0 l 1,1,-1
 140 0 l 1,2,-1
 140 1443 l 1,3,-1
 1034 1443 l 1,4,-1
 1034 1281 l 1,5,-1
 320 1281 l 1,6,-1
 320 818 l 1,7,-1
 997 818 l 1,8,-1
 997 658 l 1,9,-1
 320 658 l 1,10,-1
 320 162 l 1,11,-1
 1034 162 l 1,0,-1
664 1550 m 1,12,-1
 516 1550 l 1,13,-1
 747 1849 l 1,14,-1
 945 1849 l 1,15,-1
 664 1550 l 1,12,-1
EndSplineSet
EndChar

StartChar: Ecircumflex
Encoding: 202 202 138
Width: 1131
GlyphClass: 2
Flags: W
LayerCount: 2
Fore
SplineSet
1034 162 m 1,0,-1
 1034 0 l 1,1,-1
 140 0 l 1,2,-1
 140 1443 l 1,3,-1
 1034 1443 l 1,4,-1
 1034 1281 l 1,5,-1
 320 1281 l 1,6,-1
 320 818 l 1,7,-1
 997 818 l 1,8,-1
 997 658 l 1,9,-1
 320 658 l 1,10,-1
 320 162 l 1,11,-1
 1034 162 l 1,0,-1
516 1849 m 1,12,-1
 658 1849 l 1,13,-1
 950 1550 l 1,14,-1
 782 1550 l 1,15,-1
 588 1751 l 1,16,-1
 586 1751 l 1,17,-1
 392 1550 l 1,18,-1
 224 1550 l 1,19,-1
 516 1849 l 1,12,-1
EndSplineSet
EndChar

StartChar: Edieresis
Encoding: 203 203 139
Width: 1131
GlyphClass: 2
Flags: W
LayerCount: 2
Fore
SplineSet
1034 162 m 1,0,-1
 1034 0 l 1,1,-1
 140 0 l 1,2,-1
 140 1443 l 1,3,-1
 1034 1443 l 1,4,-1
 1034 1281 l 1,5,-1
 320 1281 l 1,6,-1
 320 818 l 1,7,-1
 997 818 l 1,8,-1
 997 658 l 1,9,-1
 320 658 l 1,10,-1
 320 162 l 1,11,-1
 1034 162 l 1,0,-1
390 1585 m 128,-1,13
 344 1585 344 1585 311 1618 c 128,-1,14
 278 1651 278 1651 278 1697 c 128,-1,15
 278 1743 278 1743 311 1776 c 128,-1,16
 344 1809 344 1809 390 1809 c 128,-1,17
 436 1809 436 1809 469 1776.5 c 128,-1,18
 502 1744 502 1744 502 1697 c 0,19,20
 502 1651 502 1651 469 1618 c 128,-1,12
 436 1585 436 1585 390 1585 c 128,-1,13
784 1585 m 128,-1,22
 738 1585 738 1585 705 1618 c 128,-1,23
 672 1651 672 1651 672 1697 c 128,-1,24
 672 1743 672 1743 705 1776 c 128,-1,25
 738 1809 738 1809 784 1809 c 128,-1,26
 830 1809 830 1809 863 1776.5 c 128,-1,27
 896 1744 896 1744 896 1697 c 0,28,29
 896 1651 896 1651 863 1618 c 128,-1,21
 830 1585 830 1585 784 1585 c 128,-1,22
EndSplineSet
EndChar

StartChar: Igrave
Encoding: 204 204 140
Width: 460
GlyphClass: 2
Flags: W
LayerCount: 2
Fore
SplineSet
320 0 m 1,0,-1
 140 0 l 1,1,-1
 140 1443 l 1,2,-1
 320 1443 l 1,3,-1
 320 0 l 1,0,-1
156 1550 m 1,4,-1
 -125 1849 l 1,5,-1
 73 1849 l 1,6,-1
 304 1550 l 1,7,-1
 156 1550 l 1,4,-1
EndSplineSet
EndChar

StartChar: Iacute
Encoding: 205 205 141
Width: 460
GlyphClass: 2
Flags: W
LayerCount: 2
Fore
SplineSet
320 0 m 1,0,-1
 140 0 l 1,1,-1
 140 1443 l 1,2,-1
 320 1443 l 1,3,-1
 320 0 l 1,0,-1
307 1550 m 1,4,-1
 159 1550 l 1,5,-1
 390 1849 l 1,6,-1
 588 1849 l 1,7,-1
 307 1550 l 1,4,-1
EndSplineSet
EndChar

StartChar: Icircumflex
Encoding: 206 206 142
Width: 460
GlyphClass: 2
Flags: W
LayerCount: 2
Fore
SplineSet
320 0 m 1,0,-1
 140 0 l 1,1,-1
 140 1443 l 1,2,-1
 320 1443 l 1,3,-1
 320 0 l 1,0,-1
159 1849 m 1,4,-1
 301 1849 l 1,5,-1
 593 1550 l 1,6,-1
 425 1550 l 1,7,-1
 231 1751 l 1,8,-1
 229 1751 l 1,9,-1
 35 1550 l 1,10,-1
 -133 1550 l 1,11,-1
 159 1849 l 1,4,-1
EndSplineSet
EndChar

StartChar: Idieresis
Encoding: 207 207 143
Width: 460
GlyphClass: 2
Flags: W
LayerCount: 2
Fore
SplineSet
320 0 m 1,0,-1
 140 0 l 1,1,-1
 140 1443 l 1,2,-1
 320 1443 l 1,3,-1
 320 0 l 1,0,-1
33 1585 m 128,-1,5
 -13 1585 -13 1585 -46 1618 c 128,-1,6
 -79 1651 -79 1651 -79 1697 c 128,-1,7
 -79 1743 -79 1743 -46 1776 c 128,-1,8
 -13 1809 -13 1809 33 1809 c 0,9,10
 80 1809 80 1809 112.5 1776.5 c 128,-1,11
 145 1744 145 1744 145 1697 c 0,12,13
 145 1651 145 1651 112 1618 c 128,-1,4
 79 1585 79 1585 33 1585 c 128,-1,5
427 1585 m 128,-1,15
 381 1585 381 1585 348 1618 c 128,-1,16
 315 1651 315 1651 315 1697 c 128,-1,17
 315 1743 315 1743 348 1776 c 128,-1,18
 381 1809 381 1809 427 1809 c 0,19,20
 474 1809 474 1809 506.5 1776.5 c 128,-1,21
 539 1744 539 1744 539 1697 c 0,22,23
 539 1651 539 1651 506 1618 c 128,-1,14
 473 1585 473 1585 427 1585 c 128,-1,15
EndSplineSet
EndChar

StartChar: Eth
Encoding: 208 208 144
Width: 1452
GlyphClass: 2
Flags: W
LayerCount: 2
Fore
SplineSet
320 162 m 1,0,-1
 623 162 l 2,1,2
 868 162 868 162 1000 306.5 c 128,-1,3
 1132 451 1132 451 1132 720 c 0,4,5
 1132 991 1132 991 1000.5 1136 c 128,-1,6
 869 1281 869 1281 623 1281 c 2,7,-1
 320 1281 l 1,8,-1
 320 826 l 1,9,-1
 597 826 l 1,10,-1
 597 663 l 1,11,-1
 320 663 l 1,12,-1
 320 162 l 1,0,-1
140 1443 m 1,13,-1
 635 1443 l 2,14,15
 956 1443 956 1443 1136 1252.5 c 128,-1,16
 1316 1062 1316 1062 1316 722 c 0,17,18
 1316 381 1316 381 1136.5 190.5 c 128,-1,19
 957 0 957 0 635 0 c 2,20,-1
 140 0 l 1,21,-1
 140 663 l 1,22,-1
 11 663 l 1,23,-1
 11 826 l 1,24,-1
 140 826 l 1,25,-1
 140 1443 l 1,13,-1
EndSplineSet
EndChar

StartChar: Ntilde
Encoding: 209 209 145
Width: 1432
GlyphClass: 2
Flags: W
LayerCount: 2
Fore
SplineSet
318 0 m 1,0,-1
 140 0 l 1,1,-1
 140 1443 l 1,2,-1
 315 1443 l 1,3,-1
 1105 310 l 1,4,-1
 1114 310 l 1,5,-1
 1114 1443 l 1,6,-1
 1292 1443 l 1,7,-1
 1292 0 l 1,8,-1
 1117 0 l 1,9,-1
 327 1129 l 1,10,-1
 318 1129 l 1,11,-1
 318 0 l 1,0,-1
844 1535 m 0,12,13
 808 1535 808 1535 776.5 1550.5 c 128,-1,14
 745 1566 745 1566 722.5 1588.5 c 128,-1,15
 700 1611 700 1611 680 1633.5 c 128,-1,16
 660 1656 660 1656 638 1671.5 c 128,-1,17
 616 1687 616 1687 595 1687 c 0,18,19
 562 1687 562 1687 544 1651.5 c 128,-1,20
 526 1616 526 1616 526 1550 c 1,21,-1
 412 1550 l 1,22,23
 412 1668 412 1668 459 1734 c 128,-1,24
 506 1800 506 1800 590 1800 c 0,25,26
 637 1800 637 1800 677.5 1776 c 128,-1,27
 718 1752 718 1752 741.5 1724 c 128,-1,28
 765 1696 765 1696 792.5 1672 c 128,-1,29
 820 1648 820 1648 844 1648 c 0,30,31
 906 1648 906 1648 906 1786 c 1,32,-1
 1020 1786 l 1,33,34
 1020 1671 1020 1671 972 1603 c 128,-1,35
 924 1535 924 1535 844 1535 c 0,12,13
EndSplineSet
EndChar

StartChar: Ograve
Encoding: 210 210 146
Width: 1498
GlyphClass: 2
Flags: W
LayerCount: 2
Fore
SplineSet
749 1467 m 128,-1,1
 1056 1467 1056 1467 1235 1266 c 128,-1,2
 1414 1065 1414 1065 1414 721 c 128,-1,3
 1414 377 1414 377 1235 176.5 c 128,-1,4
 1056 -24 1056 -24 749 -24 c 128,-1,5
 442 -24 442 -24 263 176.5 c 128,-1,6
 84 377 84 377 84 721 c 128,-1,7
 84 1065 84 1065 263 1266 c 128,-1,0
 442 1467 442 1467 749 1467 c 128,-1,1
749 1301 m 128,-1,9
 528 1301 528 1301 398.5 1144.5 c 128,-1,10
 269 988 269 988 269 721 c 0,11,12
 269 455 269 455 398.5 298.5 c 128,-1,13
 528 142 528 142 749 142 c 128,-1,14
 970 142 970 142 1099.5 298.5 c 128,-1,15
 1229 455 1229 455 1229 721 c 0,16,17
 1229 988 1229 988 1099.5 1144.5 c 128,-1,8
 970 1301 970 1301 749 1301 c 128,-1,9
675 1550 m 1,18,-1
 394 1849 l 1,19,-1
 592 1849 l 1,20,-1
 823 1550 l 1,21,-1
 675 1550 l 1,18,-1
EndSplineSet
EndChar

StartChar: Oacute
Encoding: 211 211 147
Width: 1498
GlyphClass: 2
Flags: W
LayerCount: 2
Fore
SplineSet
749 1467 m 128,-1,1
 1056 1467 1056 1467 1235 1266 c 128,-1,2
 1414 1065 1414 1065 1414 721 c 128,-1,3
 1414 377 1414 377 1235 176.5 c 128,-1,4
 1056 -24 1056 -24 749 -24 c 128,-1,5
 442 -24 442 -24 263 176.5 c 128,-1,6
 84 377 84 377 84 721 c 128,-1,7
 84 1065 84 1065 263 1266 c 128,-1,0
 442 1467 442 1467 749 1467 c 128,-1,1
749 1301 m 128,-1,9
 528 1301 528 1301 398.5 1144.5 c 128,-1,10
 269 988 269 988 269 721 c 0,11,12
 269 455 269 455 398.5 298.5 c 128,-1,13
 528 142 528 142 749 142 c 128,-1,14
 970 142 970 142 1099.5 298.5 c 128,-1,15
 1229 455 1229 455 1229 721 c 0,16,17
 1229 988 1229 988 1099.5 1144.5 c 128,-1,8
 970 1301 970 1301 749 1301 c 128,-1,9
826 1550 m 1,18,-1
 678 1550 l 1,19,-1
 909 1849 l 1,20,-1
 1107 1849 l 1,21,-1
 826 1550 l 1,18,-1
EndSplineSet
EndChar

StartChar: Ocircumflex
Encoding: 212 212 148
Width: 1498
GlyphClass: 2
Flags: W
LayerCount: 2
Fore
SplineSet
749 1467 m 128,-1,1
 1056 1467 1056 1467 1235 1266 c 128,-1,2
 1414 1065 1414 1065 1414 721 c 128,-1,3
 1414 377 1414 377 1235 176.5 c 128,-1,4
 1056 -24 1056 -24 749 -24 c 128,-1,5
 442 -24 442 -24 263 176.5 c 128,-1,6
 84 377 84 377 84 721 c 128,-1,7
 84 1065 84 1065 263 1266 c 128,-1,0
 442 1467 442 1467 749 1467 c 128,-1,1
749 1301 m 128,-1,9
 528 1301 528 1301 398.5 1144.5 c 128,-1,10
 269 988 269 988 269 721 c 0,11,12
 269 455 269 455 398.5 298.5 c 128,-1,13
 528 142 528 142 749 142 c 128,-1,14
 970 142 970 142 1099.5 298.5 c 128,-1,15
 1229 455 1229 455 1229 721 c 0,16,17
 1229 988 1229 988 1099.5 1144.5 c 128,-1,8
 970 1301 970 1301 749 1301 c 128,-1,9
678 1849 m 1,18,-1
 820 1849 l 1,19,-1
 1112 1550 l 1,20,-1
 944 1550 l 1,21,-1
 750 1751 l 1,22,-1
 748 1751 l 1,23,-1
 554 1550 l 1,24,-1
 386 1550 l 1,25,-1
 678 1849 l 1,18,-1
EndSplineSet
EndChar

StartChar: Otilde
Encoding: 213 213 149
Width: 1498
GlyphClass: 2
Flags: W
LayerCount: 2
Fore
SplineSet
749 1467 m 128,-1,1
 1056 1467 1056 1467 1235 1266 c 128,-1,2
 1414 1065 1414 1065 1414 721 c 128,-1,3
 1414 377 1414 377 1235 176.5 c 128,-1,4
 1056 -24 1056 -24 749 -24 c 128,-1,5
 442 -24 442 -24 263 176.5 c 128,-1,6
 84 377 84 377 84 721 c 128,-1,7
 84 1065 84 1065 263 1266 c 128,-1,0
 442 1467 442 1467 749 1467 c 128,-1,1
749 1301 m 128,-1,9
 528 1301 528 1301 398.5 1144.5 c 128,-1,10
 269 988 269 988 269 721 c 0,11,12
 269 455 269 455 398.5 298.5 c 128,-1,13
 528 142 528 142 749 142 c 128,-1,14
 970 142 970 142 1099.5 298.5 c 128,-1,15
 1229 455 1229 455 1229 721 c 0,16,17
 1229 988 1229 988 1099.5 1144.5 c 128,-1,8
 970 1301 970 1301 749 1301 c 128,-1,9
877 1535 m 0,18,19
 841 1535 841 1535 809.5 1550.5 c 128,-1,20
 778 1566 778 1566 755.5 1588.5 c 128,-1,21
 733 1611 733 1611 713 1633.5 c 128,-1,22
 693 1656 693 1656 671 1671.5 c 128,-1,23
 649 1687 649 1687 628 1687 c 0,24,25
 595 1687 595 1687 577 1651.5 c 128,-1,26
 559 1616 559 1616 559 1550 c 1,27,-1
 445 1550 l 1,28,29
 445 1668 445 1668 492 1734 c 128,-1,30
 539 1800 539 1800 623 1800 c 0,31,32
 670 1800 670 1800 710.5 1776 c 128,-1,33
 751 1752 751 1752 774.5 1724 c 128,-1,34
 798 1696 798 1696 825.5 1672 c 128,-1,35
 853 1648 853 1648 877 1648 c 0,36,37
 939 1648 939 1648 939 1786 c 1,38,-1
 1053 1786 l 1,39,40
 1053 1671 1053 1671 1005 1603 c 128,-1,41
 957 1535 957 1535 877 1535 c 0,18,19
EndSplineSet
EndChar

StartChar: Odieresis
Encoding: 214 214 150
Width: 1498
GlyphClass: 2
Flags: W
LayerCount: 2
Fore
SplineSet
749 1467 m 128,-1,1
 1056 1467 1056 1467 1235 1266 c 128,-1,2
 1414 1065 1414 1065 1414 721 c 128,-1,3
 1414 377 1414 377 1235 176.5 c 128,-1,4
 1056 -24 1056 -24 749 -24 c 128,-1,5
 442 -24 442 -24 263 176.5 c 128,-1,6
 84 377 84 377 84 721 c 128,-1,7
 84 1065 84 1065 263 1266 c 128,-1,0
 442 1467 442 1467 749 1467 c 128,-1,1
749 1301 m 128,-1,9
 528 1301 528 1301 398.5 1144.5 c 128,-1,10
 269 988 269 988 269 721 c 0,11,12
 269 455 269 455 398.5 298.5 c 128,-1,13
 528 142 528 142 749 142 c 128,-1,14
 970 142 970 142 1099.5 298.5 c 128,-1,15
 1229 455 1229 455 1229 721 c 0,16,17
 1229 988 1229 988 1099.5 1144.5 c 128,-1,8
 970 1301 970 1301 749 1301 c 128,-1,9
552 1585 m 128,-1,19
 506 1585 506 1585 473 1618 c 128,-1,20
 440 1651 440 1651 440 1697 c 128,-1,21
 440 1743 440 1743 473 1776 c 128,-1,22
 506 1809 506 1809 552 1809 c 128,-1,23
 598 1809 598 1809 631 1776.5 c 128,-1,24
 664 1744 664 1744 664 1697 c 0,25,26
 664 1651 664 1651 631 1618 c 128,-1,18
 598 1585 598 1585 552 1585 c 128,-1,19
946 1585 m 128,-1,28
 900 1585 900 1585 867 1618 c 128,-1,29
 834 1651 834 1651 834 1697 c 128,-1,30
 834 1743 834 1743 867 1776 c 128,-1,31
 900 1809 900 1809 946 1809 c 128,-1,32
 992 1809 992 1809 1025 1776.5 c 128,-1,33
 1058 1744 1058 1744 1058 1697 c 0,34,35
 1058 1651 1058 1651 1025 1618 c 128,-1,27
 992 1585 992 1585 946 1585 c 128,-1,28
EndSplineSet
EndChar

StartChar: multiply
Encoding: 215 215 151
Width: 1239
GlyphClass: 2
Flags: W
LayerCount: 2
Fore
SplineSet
620 475 m 1,0,-1
 312 168 l 1,1,-1
 208 272 l 1,2,-1
 515 580 l 1,3,-1
 208 888 l 1,4,-1
 312 992 l 1,5,-1
 620 685 l 1,6,-1
 927 992 l 1,7,-1
 1031 888 l 1,8,-1
 725 580 l 1,9,-1
 1031 272 l 1,10,-1
 927 168 l 1,11,-1
 620 475 l 1,0,-1
EndSplineSet
Substitution2: "'case' Case-Sensitive Forms in Latin lookup 4 subtable" multiply.uc
EndChar

StartChar: Oslash
Encoding: 216 216 152
Width: 1498
GlyphClass: 2
Flags: W
LayerCount: 2
Fore
SplineSet
1135 1096 m 1,0,-1
 470 230 l 1,1,2
 586 142 586 142 749 142 c 0,3,4
 970 142 970 142 1099.5 298.5 c 128,-1,5
 1229 455 1229 455 1229 721 c 0,6,7
 1229 948 1229 948 1135 1096 c 1,0,-1
382 319 m 1,8,-1
 1055 1191 l 1,9,10
 933 1301 933 1301 749 1301 c 0,11,12
 528 1301 528 1301 398.5 1144.5 c 128,-1,13
 269 988 269 988 269 721 c 0,14,15
 269 472 269 472 382 319 c 1,8,-1
1382 1419 m 1,16,-1
 1250 1247 l 1,17,18
 1414 1049 1414 1049 1414 721 c 0,19,20
 1414 377 1414 377 1235 176.5 c 128,-1,21
 1056 -24 1056 -24 749 -24 c 0,22,23
 523 -24 523 -24 362 89 c 1,24,-1
 258 -47 l 1,25,-1
 158 29 l 1,26,-1
 268 171 l 1,27,28
 84 374 84 374 84 721 c 0,29,30
 84 1065 84 1065 263 1266 c 128,-1,31
 442 1467 442 1467 749 1467 c 0,32,33
 998 1467 998 1467 1164 1333 c 1,34,-1
 1284 1488 l 1,35,-1
 1382 1419 l 1,16,-1
EndSplineSet
EndChar

StartChar: Ugrave
Encoding: 217 217 153
Width: 1426
GlyphClass: 2
Flags: W
LayerCount: 2
Fore
SplineSet
320 1443 m 1,0,-1
 320 518 l 2,1,2
 320 351 320 351 424.5 246.5 c 128,-1,3
 529 142 529 142 713 142 c 128,-1,4
 897 142 897 142 1001.5 246.5 c 128,-1,5
 1106 351 1106 351 1106 518 c 2,6,-1
 1106 1443 l 1,7,-1
 1286 1443 l 1,8,-1
 1286 506 l 2,9,10
 1286 271 1286 271 1131.5 123.5 c 128,-1,11
 977 -24 977 -24 713 -24 c 128,-1,12
 449 -24 449 -24 294.5 123.5 c 128,-1,13
 140 271 140 271 140 506 c 2,14,-1
 140 1443 l 1,15,-1
 320 1443 l 1,0,-1
639 1550 m 1,16,-1
 358 1849 l 1,17,-1
 556 1849 l 1,18,-1
 787 1550 l 1,19,-1
 639 1550 l 1,16,-1
EndSplineSet
EndChar

StartChar: Uacute
Encoding: 218 218 154
Width: 1426
GlyphClass: 2
Flags: W
LayerCount: 2
Fore
SplineSet
320 1443 m 1,0,-1
 320 518 l 2,1,2
 320 351 320 351 424.5 246.5 c 128,-1,3
 529 142 529 142 713 142 c 128,-1,4
 897 142 897 142 1001.5 246.5 c 128,-1,5
 1106 351 1106 351 1106 518 c 2,6,-1
 1106 1443 l 1,7,-1
 1286 1443 l 1,8,-1
 1286 506 l 2,9,10
 1286 271 1286 271 1131.5 123.5 c 128,-1,11
 977 -24 977 -24 713 -24 c 128,-1,12
 449 -24 449 -24 294.5 123.5 c 128,-1,13
 140 271 140 271 140 506 c 2,14,-1
 140 1443 l 1,15,-1
 320 1443 l 1,0,-1
790 1550 m 1,16,-1
 642 1550 l 1,17,-1
 873 1849 l 1,18,-1
 1071 1849 l 1,19,-1
 790 1550 l 1,16,-1
EndSplineSet
EndChar

StartChar: Ucircumflex
Encoding: 219 219 155
Width: 1426
GlyphClass: 2
Flags: W
LayerCount: 2
Fore
SplineSet
320 1443 m 1,0,-1
 320 518 l 2,1,2
 320 351 320 351 424.5 246.5 c 128,-1,3
 529 142 529 142 713 142 c 128,-1,4
 897 142 897 142 1001.5 246.5 c 128,-1,5
 1106 351 1106 351 1106 518 c 2,6,-1
 1106 1443 l 1,7,-1
 1286 1443 l 1,8,-1
 1286 506 l 2,9,10
 1286 271 1286 271 1131.5 123.5 c 128,-1,11
 977 -24 977 -24 713 -24 c 128,-1,12
 449 -24 449 -24 294.5 123.5 c 128,-1,13
 140 271 140 271 140 506 c 2,14,-1
 140 1443 l 1,15,-1
 320 1443 l 1,0,-1
642 1849 m 1,16,-1
 784 1849 l 1,17,-1
 1076 1550 l 1,18,-1
 908 1550 l 1,19,-1
 714 1751 l 1,20,-1
 712 1751 l 1,21,-1
 518 1550 l 1,22,-1
 350 1550 l 1,23,-1
 642 1849 l 1,16,-1
EndSplineSet
EndChar

StartChar: Udieresis
Encoding: 220 220 156
Width: 1426
GlyphClass: 2
Flags: W
LayerCount: 2
Fore
SplineSet
320 1443 m 1,0,-1
 320 518 l 2,1,2
 320 351 320 351 424.5 246.5 c 128,-1,3
 529 142 529 142 713 142 c 128,-1,4
 897 142 897 142 1001.5 246.5 c 128,-1,5
 1106 351 1106 351 1106 518 c 2,6,-1
 1106 1443 l 1,7,-1
 1286 1443 l 1,8,-1
 1286 506 l 2,9,10
 1286 271 1286 271 1131.5 123.5 c 128,-1,11
 977 -24 977 -24 713 -24 c 128,-1,12
 449 -24 449 -24 294.5 123.5 c 128,-1,13
 140 271 140 271 140 506 c 2,14,-1
 140 1443 l 1,15,-1
 320 1443 l 1,0,-1
516 1585 m 128,-1,17
 470 1585 470 1585 437 1618 c 128,-1,18
 404 1651 404 1651 404 1697 c 128,-1,19
 404 1743 404 1743 437 1776 c 128,-1,20
 470 1809 470 1809 516 1809 c 128,-1,21
 562 1809 562 1809 595 1776.5 c 128,-1,22
 628 1744 628 1744 628 1697 c 0,23,24
 628 1651 628 1651 595 1618 c 128,-1,16
 562 1585 562 1585 516 1585 c 128,-1,17
910 1585 m 128,-1,26
 864 1585 864 1585 831 1618 c 128,-1,27
 798 1651 798 1651 798 1697 c 128,-1,28
 798 1743 798 1743 831 1776 c 128,-1,29
 864 1809 864 1809 910 1809 c 128,-1,30
 956 1809 956 1809 989 1776.5 c 128,-1,31
 1022 1744 1022 1744 1022 1697 c 0,32,33
 1022 1651 1022 1651 989 1618 c 128,-1,25
 956 1585 956 1585 910 1585 c 128,-1,26
EndSplineSet
EndChar

StartChar: Yacute
Encoding: 221 221 157
Width: 1254
GlyphClass: 2
Flags: W
LayerCount: 2
Fore
SplineSet
717 0 m 1,0,-1
 537 0 l 1,1,-1
 537 621 l 1,2,-1
 25 1443 l 1,3,-1
 230 1443 l 1,4,-1
 624 795 l 1,5,-1
 630 795 l 1,6,-1
 1024 1443 l 1,7,-1
 1229 1443 l 1,8,-1
 717 621 l 1,9,-1
 717 0 l 1,0,-1
704 1550 m 1,10,-1
 556 1550 l 1,11,-1
 787 1849 l 1,12,-1
 985 1849 l 1,13,-1
 704 1550 l 1,10,-1
EndSplineSet
EndChar

StartChar: Thorn
Encoding: 222 222 158
Width: 1232
GlyphClass: 2
Flags: W
LayerCount: 2
Fore
SplineSet
160 1443 m 1,0,-1
 340 1443 l 1,1,-1
 340 1177 l 1,2,-1
 713 1177 l 2,3,4
 796 1177 796 1177 872 1149 c 128,-1,5
 948 1121 948 1121 1006.5 1069 c 128,-1,6
 1065 1017 1065 1017 1100 937.5 c 128,-1,7
 1135 858 1135 858 1135 762 c 128,-1,8
 1135 666 1135 666 1100 586 c 128,-1,9
 1065 506 1065 506 1005.5 454 c 128,-1,10
 946 402 946 402 870 373.5 c 128,-1,11
 794 345 794 345 711 345 c 2,12,-1
 340 345 l 1,13,-1
 340 0 l 1,14,-1
 160 0 l 1,15,-1
 160 1443 l 1,0,-1
340 1017 m 1,16,-1
 340 505 l 1,17,-1
 662 505 l 2,18,19
 792 505 792 505 871 571 c 128,-1,20
 950 637 950 637 950 762 c 128,-1,21
 950 887 950 887 871 952 c 128,-1,22
 792 1017 792 1017 662 1017 c 2,23,-1
 340 1017 l 1,16,-1
EndSplineSet
EndChar

StartChar: germandbls
Encoding: 223 223 159
Width: 1238
GlyphClass: 2
Flags: W
LayerCount: 2
Fore
SplineSet
353 0 m 1,0,-1
 182 0 l 1,1,-1
 182 1101 l 2,2,3
 182 1280 182 1280 296.5 1388 c 128,-1,4
 411 1496 411 1496 601 1496 c 0,5,6
 784 1496 784 1496 900 1391 c 128,-1,7
 1016 1286 1016 1286 1016 1121 c 0,8,9
 1016 994 1016 994 954.5 901 c 128,-1,10
 893 808 893 808 787 775 c 1,11,-1
 787 771 l 1,12,13
 947 749 947 749 1035 651.5 c 128,-1,14
 1123 554 1123 554 1123 401 c 0,15,16
 1123 213 1123 213 998.5 99.5 c 128,-1,17
 874 -14 874 -14 668 -14 c 0,18,19
 585 -14 585 -14 524 -1 c 1,20,-1
 524 152 l 1,21,22
 578 138 578 138 656 138 c 0,23,24
 791 138 791 138 871.5 210 c 128,-1,25
 952 282 952 282 952 403 c 0,26,27
 952 533 952 533 862 605.5 c 128,-1,28
 772 678 772 678 612 678 c 2,29,-1
 551 678 l 1,30,-1
 551 848 l 1,31,-1
 602 848 l 2,32,33
 718 848 718 848 782.5 918 c 128,-1,34
 847 988 847 988 847 1112 c 0,35,36
 847 1215 847 1215 779.5 1279.5 c 128,-1,37
 712 1344 712 1344 604 1344 c 0,38,39
 486 1344 486 1344 419.5 1275 c 128,-1,40
 353 1206 353 1206 353 1084 c 2,41,-1
 353 0 l 1,0,-1
EndSplineSet
EndChar

StartChar: agrave
Encoding: 224 224 160
Width: 1062
GlyphClass: 2
Flags: W
LayerCount: 2
Fore
SplineSet
470 141 m 0,0,1
 602 141 602 141 688.5 217.5 c 128,-1,2
 775 294 775 294 775 410 c 2,3,-1
 775 497 l 1,4,-1
 493 479 l 2,5,6
 247 464 247 464 247 306 c 0,7,8
 247 231 247 231 307.5 186 c 128,-1,9
 368 141 368 141 470 141 c 0,0,1
433 -10 m 0,10,11
 269 -10 269 -10 169 77 c 128,-1,12
 69 164 69 164 69 307 c 0,13,14
 69 446 69 446 173 525.5 c 128,-1,15
 277 605 277 605 473 617 c 2,16,-1
 775 635 l 1,17,-1
 775 725 l 2,18,19
 775 825 775 825 711 879 c 128,-1,20
 647 933 647 933 528 933 c 0,21,22
 434 933 434 933 369.5 888 c 128,-1,23
 305 843 305 843 289 767 c 1,24,-1
 122 767 l 1,25,26
 126 903 126 903 243 995.5 c 128,-1,27
 360 1088 360 1088 530 1088 c 0,28,29
 721 1088 721 1088 835 993.5 c 128,-1,30
 949 899 949 899 949 740 c 2,31,-1
 949 0 l 1,32,-1
 784 0 l 1,33,-1
 784 187 l 1,34,-1
 780 187 l 1,35,36
 734 97 734 97 640 43.5 c 128,-1,37
 546 -10 546 -10 433 -10 c 0,10,11
591 1250 m 1,38,-1
 443 1250 l 1,39,-1
 182 1550 l 1,40,-1
 380 1550 l 1,41,-1
 591 1250 l 1,38,-1
EndSplineSet
EndChar

StartChar: aacute
Encoding: 225 225 161
Width: 1062
GlyphClass: 2
Flags: W
LayerCount: 2
Fore
SplineSet
470 141 m 0,0,1
 602 141 602 141 688.5 217.5 c 128,-1,2
 775 294 775 294 775 410 c 2,3,-1
 775 497 l 1,4,-1
 493 479 l 2,5,6
 247 464 247 464 247 306 c 0,7,8
 247 231 247 231 307.5 186 c 128,-1,9
 368 141 368 141 470 141 c 0,0,1
433 -10 m 0,10,11
 269 -10 269 -10 169 77 c 128,-1,12
 69 164 69 164 69 307 c 0,13,14
 69 446 69 446 173 525.5 c 128,-1,15
 277 605 277 605 473 617 c 2,16,-1
 775 635 l 1,17,-1
 775 725 l 2,18,19
 775 825 775 825 711 879 c 128,-1,20
 647 933 647 933 528 933 c 0,21,22
 434 933 434 933 369.5 888 c 128,-1,23
 305 843 305 843 289 767 c 1,24,-1
 122 767 l 1,25,26
 126 903 126 903 243 995.5 c 128,-1,27
 360 1088 360 1088 530 1088 c 0,28,29
 721 1088 721 1088 835 993.5 c 128,-1,30
 949 899 949 899 949 740 c 2,31,-1
 949 0 l 1,32,-1
 784 0 l 1,33,-1
 784 187 l 1,34,-1
 780 187 l 1,35,36
 734 97 734 97 640 43.5 c 128,-1,37
 546 -10 546 -10 433 -10 c 0,10,11
600 1250 m 1,38,-1
 452 1250 l 1,39,-1
 663 1550 l 1,40,-1
 861 1550 l 1,41,-1
 600 1250 l 1,38,-1
EndSplineSet
EndChar

StartChar: acircumflex
Encoding: 226 226 162
Width: 1062
GlyphClass: 2
Flags: W
LayerCount: 2
Fore
SplineSet
470 141 m 0,0,1
 602 141 602 141 688.5 217.5 c 128,-1,2
 775 294 775 294 775 410 c 2,3,-1
 775 497 l 1,4,-1
 493 479 l 2,5,6
 247 464 247 464 247 306 c 0,7,8
 247 231 247 231 307.5 186 c 128,-1,9
 368 141 368 141 470 141 c 0,0,1
433 -10 m 0,10,11
 269 -10 269 -10 169 77 c 128,-1,12
 69 164 69 164 69 307 c 0,13,14
 69 446 69 446 173 525.5 c 128,-1,15
 277 605 277 605 473 617 c 2,16,-1
 775 635 l 1,17,-1
 775 725 l 2,18,19
 775 825 775 825 711 879 c 128,-1,20
 647 933 647 933 528 933 c 0,21,22
 434 933 434 933 369.5 888 c 128,-1,23
 305 843 305 843 289 767 c 1,24,-1
 122 767 l 1,25,26
 126 903 126 903 243 995.5 c 128,-1,27
 360 1088 360 1088 530 1088 c 0,28,29
 721 1088 721 1088 835 993.5 c 128,-1,30
 949 899 949 899 949 740 c 2,31,-1
 949 0 l 1,32,-1
 784 0 l 1,33,-1
 784 187 l 1,34,-1
 780 187 l 1,35,36
 734 97 734 97 640 43.5 c 128,-1,37
 546 -10 546 -10 433 -10 c 0,10,11
588 1550 m 1,38,-1
 865 1250 l 1,39,-1
 702 1250 l 1,40,-1
 529 1447 l 1,41,-1
 523 1447 l 1,42,-1
 350 1250 l 1,43,-1
 187 1250 l 1,44,-1
 464 1550 l 1,45,-1
 588 1550 l 1,38,-1
EndSplineSet
EndChar

StartChar: atilde
Encoding: 227 227 163
Width: 1062
GlyphClass: 2
Flags: W
LayerCount: 2
Fore
SplineSet
470 141 m 0,0,1
 602 141 602 141 688.5 217.5 c 128,-1,2
 775 294 775 294 775 410 c 2,3,-1
 775 497 l 1,4,-1
 493 479 l 2,5,6
 247 464 247 464 247 306 c 0,7,8
 247 231 247 231 307.5 186 c 128,-1,9
 368 141 368 141 470 141 c 0,0,1
433 -10 m 0,10,11
 269 -10 269 -10 169 77 c 128,-1,12
 69 164 69 164 69 307 c 0,13,14
 69 446 69 446 173 525.5 c 128,-1,15
 277 605 277 605 473 617 c 2,16,-1
 775 635 l 1,17,-1
 775 725 l 2,18,19
 775 825 775 825 711 879 c 128,-1,20
 647 933 647 933 528 933 c 0,21,22
 434 933 434 933 369.5 888 c 128,-1,23
 305 843 305 843 289 767 c 1,24,-1
 122 767 l 1,25,26
 126 903 126 903 243 995.5 c 128,-1,27
 360 1088 360 1088 530 1088 c 0,28,29
 721 1088 721 1088 835 993.5 c 128,-1,30
 949 899 949 899 949 740 c 2,31,-1
 949 0 l 1,32,-1
 784 0 l 1,33,-1
 784 187 l 1,34,-1
 780 187 l 1,35,36
 734 97 734 97 640 43.5 c 128,-1,37
 546 -10 546 -10 433 -10 c 0,10,11
658 1258 m 0,38,39
 622 1258 622 1258 590.5 1273.5 c 128,-1,40
 559 1289 559 1289 536.5 1311.5 c 128,-1,41
 514 1334 514 1334 494 1356.5 c 128,-1,42
 474 1379 474 1379 452 1394.5 c 128,-1,43
 430 1410 430 1410 409 1410 c 0,44,45
 376 1410 376 1410 358 1374.5 c 128,-1,46
 340 1339 340 1339 340 1273 c 1,47,-1
 226 1273 l 1,48,49
 226 1391 226 1391 273 1457 c 128,-1,50
 320 1523 320 1523 404 1523 c 0,51,52
 442 1523 442 1523 475.5 1507.5 c 128,-1,53
 509 1492 509 1492 532 1469.5 c 128,-1,54
 555 1447 555 1447 575.5 1424.5 c 128,-1,55
 596 1402 596 1402 617 1386.5 c 128,-1,56
 638 1371 638 1371 658 1371 c 0,57,58
 720 1371 720 1371 720 1509 c 1,59,-1
 834 1509 l 1,60,61
 834 1394 834 1394 786 1326 c 128,-1,62
 738 1258 738 1258 658 1258 c 0,38,39
EndSplineSet
EndChar

StartChar: adieresis
Encoding: 228 228 164
Width: 1062
GlyphClass: 2
Flags: W
LayerCount: 2
Fore
SplineSet
470 141 m 0,0,1
 602 141 602 141 688.5 217.5 c 128,-1,2
 775 294 775 294 775 410 c 2,3,-1
 775 497 l 1,4,-1
 493 479 l 2,5,6
 247 464 247 464 247 306 c 0,7,8
 247 231 247 231 307.5 186 c 128,-1,9
 368 141 368 141 470 141 c 0,0,1
433 -10 m 0,10,11
 269 -10 269 -10 169 77 c 128,-1,12
 69 164 69 164 69 307 c 0,13,14
 69 446 69 446 173 525.5 c 128,-1,15
 277 605 277 605 473 617 c 2,16,-1
 775 635 l 1,17,-1
 775 725 l 2,18,19
 775 825 775 825 711 879 c 128,-1,20
 647 933 647 933 528 933 c 0,21,22
 434 933 434 933 369.5 888 c 128,-1,23
 305 843 305 843 289 767 c 1,24,-1
 122 767 l 1,25,26
 126 903 126 903 243 995.5 c 128,-1,27
 360 1088 360 1088 530 1088 c 0,28,29
 721 1088 721 1088 835 993.5 c 128,-1,30
 949 899 949 899 949 740 c 2,31,-1
 949 0 l 1,32,-1
 784 0 l 1,33,-1
 784 187 l 1,34,-1
 780 187 l 1,35,36
 734 97 734 97 640 43.5 c 128,-1,37
 546 -10 546 -10 433 -10 c 0,10,11
329 1261 m 128,-1,39
 283 1261 283 1261 250 1294 c 128,-1,40
 217 1327 217 1327 217 1373 c 128,-1,41
 217 1419 217 1419 250 1452 c 128,-1,42
 283 1485 283 1485 329 1485 c 0,43,44
 376 1485 376 1485 408.5 1452.5 c 128,-1,45
 441 1420 441 1420 441 1373 c 0,46,47
 441 1327 441 1327 408 1294 c 128,-1,38
 375 1261 375 1261 329 1261 c 128,-1,39
723 1261 m 128,-1,49
 677 1261 677 1261 644 1294 c 128,-1,50
 611 1327 611 1327 611 1373 c 128,-1,51
 611 1419 611 1419 644 1452 c 128,-1,52
 677 1485 677 1485 723 1485 c 0,53,54
 770 1485 770 1485 802.5 1452.5 c 128,-1,55
 835 1420 835 1420 835 1373 c 0,56,57
 835 1327 835 1327 802 1294 c 128,-1,48
 769 1261 769 1261 723 1261 c 128,-1,49
EndSplineSet
EndChar

StartChar: aring
Encoding: 229 229 165
Width: 1062
GlyphClass: 2
Flags: W
LayerCount: 2
Fore
SplineSet
470 141 m 0,0,1
 602 141 602 141 688.5 217.5 c 128,-1,2
 775 294 775 294 775 410 c 2,3,-1
 775 497 l 1,4,-1
 493 479 l 2,5,6
 247 464 247 464 247 306 c 0,7,8
 247 231 247 231 307.5 186 c 128,-1,9
 368 141 368 141 470 141 c 0,0,1
433 -10 m 0,10,11
 269 -10 269 -10 169 77 c 128,-1,12
 69 164 69 164 69 307 c 0,13,14
 69 446 69 446 173 525.5 c 128,-1,15
 277 605 277 605 473 617 c 2,16,-1
 775 635 l 1,17,-1
 775 725 l 2,18,19
 775 825 775 825 711 879 c 128,-1,20
 647 933 647 933 528 933 c 0,21,22
 434 933 434 933 369.5 888 c 128,-1,23
 305 843 305 843 289 767 c 1,24,-1
 122 767 l 1,25,26
 126 903 126 903 243 995.5 c 128,-1,27
 360 1088 360 1088 530 1088 c 0,28,29
 721 1088 721 1088 835 993.5 c 128,-1,30
 949 899 949 899 949 740 c 2,31,-1
 949 0 l 1,32,-1
 784 0 l 1,33,-1
 784 187 l 1,34,-1
 780 187 l 1,35,36
 734 97 734 97 640 43.5 c 128,-1,37
 546 -10 546 -10 433 -10 c 0,10,11
526 1184 m 128,-1,39
 444 1184 444 1184 385.5 1242.5 c 128,-1,40
 327 1301 327 1301 327 1383 c 128,-1,41
 327 1465 327 1465 385.5 1523.5 c 128,-1,42
 444 1582 444 1582 526 1582 c 128,-1,43
 608 1582 608 1582 666.5 1523.5 c 128,-1,44
 725 1465 725 1465 725 1383 c 128,-1,45
 725 1301 725 1301 666.5 1242.5 c 128,-1,38
 608 1184 608 1184 526 1184 c 128,-1,39
526 1267 m 128,-1,47
 574 1267 574 1267 608 1301 c 128,-1,48
 642 1335 642 1335 642 1383 c 128,-1,49
 642 1431 642 1431 608 1465 c 128,-1,50
 574 1499 574 1499 526 1499 c 128,-1,51
 478 1499 478 1499 444 1465 c 128,-1,52
 410 1431 410 1431 410 1383 c 128,-1,53
 410 1335 410 1335 444 1301 c 128,-1,46
 478 1267 478 1267 526 1267 c 128,-1,47
EndSplineSet
EndChar

StartChar: ae
Encoding: 230 230 166
Width: 1769
GlyphClass: 2
Flags: W
LayerCount: 2
Fore
SplineSet
1260 -10 m 0,0,1
 1127 -10 1127 -10 1026.5 48 c 128,-1,2
 926 106 926 106 873 213 c 1,3,-1
 863 213 l 1,4,5
 729 -10 729 -10 457 -10 c 0,6,7
 279 -10 279 -10 174 75 c 128,-1,8
 69 160 69 160 69 303 c 0,9,10
 69 443 69 443 173.5 523.5 c 128,-1,11
 278 604 278 604 471 614 c 2,12,-1
 774 629 l 1,13,-1
 774 706 l 2,14,15
 774 806 774 806 703.5 869.5 c 128,-1,16
 633 933 633 933 521 933 c 0,17,18
 416 933 416 933 352.5 888.5 c 128,-1,19
 289 844 289 844 282 767 c 1,20,-1
 111 767 l 1,21,22
 120 908 120 908 231 998 c 128,-1,23
 342 1088 342 1088 515 1088 c 0,24,25
 650 1088 650 1088 749 1032 c 128,-1,26
 848 976 848 976 887 875 c 1,27,-1
 896 875 l 1,28,29
 951 979 951 979 1044.5 1033.5 c 128,-1,30
 1138 1088 1138 1088 1262 1088 c 0,31,32
 1466 1088 1466 1088 1585 945.5 c 128,-1,33
 1704 803 1704 803 1704 559 c 2,34,-1
 1704 492 l 1,35,-1
 948 492 l 1,36,-1
 948 481 l 2,37,38
 948 326 948 326 1033.5 234.5 c 128,-1,39
 1119 143 1119 143 1263 143 c 0,40,41
 1360 143 1360 143 1427.5 186.5 c 128,-1,42
 1495 230 1495 230 1519 308 c 1,43,-1
 1691 308 l 1,44,45
 1668 167 1668 167 1548 78.5 c 128,-1,46
 1428 -10 1428 -10 1260 -10 c 0,0,1
1248 935 m 0,47,48
 1121 935 1121 935 1039 851.5 c 128,-1,49
 957 768 957 768 948 630 c 1,50,-1
 1523 630 l 1,51,52
 1520 771 1520 771 1446 853 c 128,-1,53
 1372 935 1372 935 1248 935 c 0,47,48
461 141 m 0,54,55
 593 141 593 141 683.5 218.5 c 128,-1,56
 774 296 774 296 774 410 c 2,57,-1
 774 491 l 1,58,-1
 489 476 l 2,59,60
 372 470 372 470 309.5 426 c 128,-1,61
 247 382 247 382 247 306 c 128,-1,62
 247 230 247 230 305 185.5 c 128,-1,63
 363 141 363 141 461 141 c 0,54,55
EndSplineSet
EndChar

StartChar: ccedilla
Encoding: 231 231 167
Width: 1060
GlyphClass: 2
Flags: W
LayerCount: 2
Fore
SplineSet
840 345 m 1,0,-1
 1011 345 l 1,1,2
 991 201 991 201 887 106 c 128,-1,3
 783 11 783 11 625 -6 c 1,4,-1
 575 -142 l 1,5,6
 784 -142 784 -142 784 -292 c 0,7,8
 784 -368 784 -368 722 -418 c 128,-1,9
 660 -468 660 -468 565 -469 c 0,10,11
 482 -470 482 -470 418 -452 c 1,12,-1
 418 -354 l 1,13,14
 456 -369 456 -369 540 -369 c 0,15,16
 660 -369 660 -369 660 -296 c 0,17,18
 660 -261 660 -261 624.5 -245.5 c 128,-1,19
 589 -230 589 -230 510 -230 c 2,20,-1
 455 -230 l 1,21,-1
 455 -156 l 1,22,-1
 512 -8 l 1,23,24
 308 8 308 8 186.5 154 c 128,-1,25
 65 300 65 300 65 539 c 0,26,27
 65 787 65 787 200 937.5 c 128,-1,28
 335 1088 335 1088 557 1088 c 0,29,30
 748 1088 748 1088 870 982.5 c 128,-1,31
 992 877 992 877 1009 727 c 1,32,-1
 838 727 l 1,33,34
 821 818 821 818 748 875.5 c 128,-1,35
 675 933 675 933 558 933 c 0,36,37
 416 933 416 933 329 825 c 128,-1,38
 242 717 242 717 242 539 c 0,39,40
 242 357 242 357 329.5 251 c 128,-1,41
 417 145 417 145 560 145 c 0,42,43
 673 145 673 145 745.5 196.5 c 128,-1,44
 818 248 818 248 840 345 c 1,0,-1
EndSplineSet
EndChar

StartChar: egrave
Encoding: 232 232 168
Width: 1084
GlyphClass: 2
Flags: W
LayerCount: 2
Fore
SplineSet
548 935 m 0,0,1
 421 935 421 935 337.5 851 c 128,-1,2
 254 767 254 767 245 630 c 1,3,-1
 838 630 l 1,4,5
 835 767 835 767 755.5 851 c 128,-1,6
 676 935 676 935 548 935 c 0,0,1
834 308 m 1,7,-1
 1006 308 l 1,8,9
 984 169 984 169 858 79.5 c 128,-1,10
 732 -10 732 -10 559 -10 c 0,11,12
 332 -10 332 -10 198.5 137 c 128,-1,13
 65 284 65 284 65 535 c 128,-1,14
 65 786 65 786 198 937 c 128,-1,15
 331 1088 331 1088 551 1088 c 0,16,17
 767 1088 767 1088 893 945.5 c 128,-1,18
 1019 803 1019 803 1019 559 c 2,19,-1
 1019 491 l 1,20,-1
 245 491 l 1,21,-1
 245 481 l 2,22,23
 245 327 245 327 332 235 c 128,-1,24
 419 143 419 143 563 143 c 0,25,26
 664 143 664 143 737.5 187.5 c 128,-1,27
 811 232 811 232 834 308 c 1,7,-1
616 1250 m 1,28,-1
 468 1250 l 1,29,-1
 207 1550 l 1,30,-1
 405 1550 l 1,31,-1
 616 1250 l 1,28,-1
EndSplineSet
EndChar

StartChar: eacute
Encoding: 233 233 169
Width: 1084
GlyphClass: 2
Flags: W
LayerCount: 2
Fore
SplineSet
548 935 m 0,0,1
 421 935 421 935 337.5 851 c 128,-1,2
 254 767 254 767 245 630 c 1,3,-1
 838 630 l 1,4,5
 835 767 835 767 755.5 851 c 128,-1,6
 676 935 676 935 548 935 c 0,0,1
834 308 m 1,7,-1
 1006 308 l 1,8,9
 984 169 984 169 858 79.5 c 128,-1,10
 732 -10 732 -10 559 -10 c 0,11,12
 332 -10 332 -10 198.5 137 c 128,-1,13
 65 284 65 284 65 535 c 128,-1,14
 65 786 65 786 198 937 c 128,-1,15
 331 1088 331 1088 551 1088 c 0,16,17
 767 1088 767 1088 893 945.5 c 128,-1,18
 1019 803 1019 803 1019 559 c 2,19,-1
 1019 491 l 1,20,-1
 245 491 l 1,21,-1
 245 481 l 2,22,23
 245 327 245 327 332 235 c 128,-1,24
 419 143 419 143 563 143 c 0,25,26
 664 143 664 143 737.5 187.5 c 128,-1,27
 811 232 811 232 834 308 c 1,7,-1
625 1250 m 1,28,-1
 477 1250 l 1,29,-1
 688 1550 l 1,30,-1
 886 1550 l 1,31,-1
 625 1250 l 1,28,-1
EndSplineSet
EndChar

StartChar: ecircumflex
Encoding: 234 234 170
Width: 1084
GlyphClass: 2
Flags: W
LayerCount: 2
Fore
SplineSet
548 935 m 0,0,1
 421 935 421 935 337.5 851 c 128,-1,2
 254 767 254 767 245 630 c 1,3,-1
 838 630 l 1,4,5
 835 767 835 767 755.5 851 c 128,-1,6
 676 935 676 935 548 935 c 0,0,1
834 308 m 1,7,-1
 1006 308 l 1,8,9
 984 169 984 169 858 79.5 c 128,-1,10
 732 -10 732 -10 559 -10 c 0,11,12
 332 -10 332 -10 198.5 137 c 128,-1,13
 65 284 65 284 65 535 c 128,-1,14
 65 786 65 786 198 937 c 128,-1,15
 331 1088 331 1088 551 1088 c 0,16,17
 767 1088 767 1088 893 945.5 c 128,-1,18
 1019 803 1019 803 1019 559 c 2,19,-1
 1019 491 l 1,20,-1
 245 491 l 1,21,-1
 245 481 l 2,22,23
 245 327 245 327 332 235 c 128,-1,24
 419 143 419 143 563 143 c 0,25,26
 664 143 664 143 737.5 187.5 c 128,-1,27
 811 232 811 232 834 308 c 1,7,-1
613 1550 m 1,28,-1
 890 1250 l 1,29,-1
 727 1250 l 1,30,-1
 554 1447 l 1,31,-1
 548 1447 l 1,32,-1
 375 1250 l 1,33,-1
 212 1250 l 1,34,-1
 489 1550 l 1,35,-1
 613 1550 l 1,28,-1
EndSplineSet
EndChar

StartChar: edieresis
Encoding: 235 235 171
Width: 1084
GlyphClass: 2
Flags: W
LayerCount: 2
Fore
SplineSet
548 935 m 0,0,1
 421 935 421 935 337.5 851 c 128,-1,2
 254 767 254 767 245 630 c 1,3,-1
 838 630 l 1,4,5
 835 767 835 767 755.5 851 c 128,-1,6
 676 935 676 935 548 935 c 0,0,1
834 308 m 1,7,-1
 1006 308 l 1,8,9
 984 169 984 169 858 79.5 c 128,-1,10
 732 -10 732 -10 559 -10 c 0,11,12
 332 -10 332 -10 198.5 137 c 128,-1,13
 65 284 65 284 65 535 c 128,-1,14
 65 786 65 786 198 937 c 128,-1,15
 331 1088 331 1088 551 1088 c 0,16,17
 767 1088 767 1088 893 945.5 c 128,-1,18
 1019 803 1019 803 1019 559 c 2,19,-1
 1019 491 l 1,20,-1
 245 491 l 1,21,-1
 245 481 l 2,22,23
 245 327 245 327 332 235 c 128,-1,24
 419 143 419 143 563 143 c 0,25,26
 664 143 664 143 737.5 187.5 c 128,-1,27
 811 232 811 232 834 308 c 1,7,-1
354 1261 m 128,-1,29
 308 1261 308 1261 275 1294 c 128,-1,30
 242 1327 242 1327 242 1373 c 128,-1,31
 242 1419 242 1419 275 1452 c 128,-1,32
 308 1485 308 1485 354 1485 c 128,-1,33
 400 1485 400 1485 433 1452.5 c 128,-1,34
 466 1420 466 1420 466 1373 c 0,35,36
 466 1327 466 1327 433 1294 c 128,-1,28
 400 1261 400 1261 354 1261 c 128,-1,29
748 1261 m 128,-1,38
 702 1261 702 1261 669 1294 c 128,-1,39
 636 1327 636 1327 636 1373 c 128,-1,40
 636 1419 636 1419 669 1452 c 128,-1,41
 702 1485 702 1485 748 1485 c 128,-1,42
 794 1485 794 1485 827 1452.5 c 128,-1,43
 860 1420 860 1420 860 1373 c 0,44,45
 860 1327 860 1327 827 1294 c 128,-1,37
 794 1261 794 1261 748 1261 c 128,-1,38
EndSplineSet
EndChar

StartChar: igrave
Encoding: 236 236 172
Width: 430
GlyphClass: 2
Flags: W
LayerCount: 2
Fore
SplineSet
128 0 m 1,0,-1
 128 1078 l 1,1,-1
 302 1078 l 1,2,-1
 302 0 l 1,3,-1
 128 0 l 1,0,-1
280 1250 m 1,4,-1
 132 1250 l 1,5,-1
 -129 1550 l 1,6,-1
 69 1550 l 1,7,-1
 280 1250 l 1,4,-1
EndSplineSet
EndChar

StartChar: iacute
Encoding: 237 237 173
Width: 430
GlyphClass: 2
Flags: W
LayerCount: 2
Fore
SplineSet
128 0 m 1,0,-1
 128 1078 l 1,1,-1
 302 1078 l 1,2,-1
 302 0 l 1,3,-1
 128 0 l 1,0,-1
289 1250 m 1,4,-1
 141 1250 l 1,5,-1
 352 1550 l 1,6,-1
 550 1550 l 1,7,-1
 289 1250 l 1,4,-1
EndSplineSet
EndChar

StartChar: icircumflex
Encoding: 238 238 174
Width: 430
GlyphClass: 2
Flags: W
LayerCount: 2
Fore
SplineSet
128 0 m 1,0,-1
 128 1078 l 1,1,-1
 302 1078 l 1,2,-1
 302 0 l 1,3,-1
 128 0 l 1,0,-1
277 1550 m 1,4,-1
 554 1250 l 1,5,-1
 391 1250 l 1,6,-1
 218 1447 l 1,7,-1
 212 1447 l 1,8,-1
 39 1250 l 1,9,-1
 -124 1250 l 1,10,-1
 153 1550 l 1,11,-1
 277 1550 l 1,4,-1
EndSplineSet
EndChar

StartChar: idieresis
Encoding: 239 239 175
Width: 430
GlyphClass: 2
Flags: W
LayerCount: 2
Fore
SplineSet
128 0 m 1,0,-1
 128 1078 l 1,1,-1
 302 1078 l 1,2,-1
 302 0 l 1,3,-1
 128 0 l 1,0,-1
18 1261 m 128,-1,5
 -28 1261 -28 1261 -61 1294 c 128,-1,6
 -94 1327 -94 1327 -94 1373 c 128,-1,7
 -94 1419 -94 1419 -61 1452 c 128,-1,8
 -28 1485 -28 1485 18 1485 c 128,-1,9
 64 1485 64 1485 97 1452.5 c 128,-1,10
 130 1420 130 1420 130 1373 c 0,11,12
 130 1327 130 1327 97 1294 c 128,-1,4
 64 1261 64 1261 18 1261 c 128,-1,5
412 1261 m 128,-1,14
 366 1261 366 1261 333 1294 c 128,-1,15
 300 1327 300 1327 300 1373 c 128,-1,16
 300 1419 300 1419 333 1452 c 128,-1,17
 366 1485 366 1485 412 1485 c 128,-1,18
 458 1485 458 1485 491 1452.5 c 128,-1,19
 524 1420 524 1420 524 1373 c 0,20,21
 524 1327 524 1327 491 1294 c 128,-1,13
 458 1261 458 1261 412 1261 c 128,-1,14
EndSplineSet
EndChar

StartChar: eth
Encoding: 240 240 176
Width: 1140
GlyphClass: 2
Flags: W
LayerCount: 2
Fore
SplineSet
577 -19 m 0,0,1
 348 -19 348 -19 216 125 c 128,-1,2
 84 269 84 269 84 519 c 0,3,4
 84 764 84 764 212 910.5 c 128,-1,5
 340 1057 340 1057 555 1057 c 0,6,7
 647 1057 647 1057 734 1008 c 128,-1,8
 821 959 821 959 855 888 c 1,9,-1
 870 888 l 1,10,11
 848 973 848 973 797 1070.5 c 128,-1,12
 746 1168 746 1168 688 1239 c 1,13,-1
 410 1149 l 1,14,-1
 375 1261 l 1,15,-1
 606 1336 l 1,16,17
 544 1409 544 1409 406 1526 c 1,18,-1
 612 1526 l 1,19,20
 689 1461 689 1461 757 1385 c 1,21,-1
 1007 1466 l 1,22,-1
 1042 1354 l 1,23,-1
 839 1290 l 1,24,25
 1060 984 1060 984 1060 571 c 0,26,27
 1060 298 1060 298 930 139.5 c 128,-1,28
 800 -19 800 -19 577 -19 c 0,0,1
577 902 m 0,29,30
 433 902 433 902 347.5 798 c 128,-1,31
 262 694 262 694 262 519 c 128,-1,32
 262 344 262 344 347.5 240 c 128,-1,33
 433 136 433 136 577 136 c 0,34,35
 722 136 722 136 808 240 c 128,-1,36
 894 344 894 344 894 519 c 0,37,38
 894 692 894 692 807 797 c 128,-1,39
 720 902 720 902 577 902 c 0,29,30
EndSplineSet
EndChar

StartChar: ntilde
Encoding: 241 241 177
Width: 1135
GlyphClass: 2
Flags: W
LayerCount: 2
Fore
SplineSet
118 0 m 1,0,-1
 118 1078 l 1,1,-1
 282 1078 l 1,2,-1
 282 903 l 1,3,-1
 286 903 l 1,4,5
 389 1088 389 1088 638 1088 c 0,6,7
 816 1088 816 1088 919 981.5 c 128,-1,8
 1022 875 1022 875 1022 691 c 2,9,-1
 1022 0 l 1,10,-1
 848 0 l 1,11,-1
 848 661 l 2,12,13
 848 793 848 793 780.5 863 c 128,-1,14
 713 933 713 933 586 933 c 0,15,16
 453 933 453 933 372.5 849 c 128,-1,17
 292 765 292 765 292 626 c 2,18,-1
 292 0 l 1,19,-1
 118 0 l 1,0,-1
702 1258 m 0,20,21
 666 1258 666 1258 634.5 1273.5 c 128,-1,22
 603 1289 603 1289 580.5 1311.5 c 128,-1,23
 558 1334 558 1334 538 1356.5 c 128,-1,24
 518 1379 518 1379 496 1394.5 c 128,-1,25
 474 1410 474 1410 453 1410 c 0,26,27
 420 1410 420 1410 402 1374.5 c 128,-1,28
 384 1339 384 1339 384 1273 c 1,29,-1
 270 1273 l 1,30,31
 270 1391 270 1391 317 1457 c 128,-1,32
 364 1523 364 1523 448 1523 c 0,33,34
 486 1523 486 1523 519.5 1507.5 c 128,-1,35
 553 1492 553 1492 576 1469.5 c 128,-1,36
 599 1447 599 1447 619.5 1424.5 c 128,-1,37
 640 1402 640 1402 661 1386.5 c 128,-1,38
 682 1371 682 1371 702 1371 c 0,39,40
 764 1371 764 1371 764 1509 c 1,41,-1
 878 1509 l 1,42,43
 878 1394 878 1394 830 1326 c 128,-1,44
 782 1258 782 1258 702 1258 c 0,20,21
EndSplineSet
EndChar

StartChar: ograve
Encoding: 242 242 178
Width: 1124
GlyphClass: 2
Flags: W
LayerCount: 2
Fore
SplineSet
562 -10 m 128,-1,1
 335 -10 335 -10 200 139 c 128,-1,2
 65 288 65 288 65 539 c 128,-1,3
 65 790 65 790 200 939 c 128,-1,4
 335 1088 335 1088 562 1088 c 128,-1,5
 789 1088 789 1088 924 939 c 128,-1,6
 1059 790 1059 790 1059 539 c 128,-1,7
 1059 288 1059 288 924 139 c 128,-1,0
 789 -10 789 -10 562 -10 c 128,-1,1
562 145 m 0,8,9
 713 145 713 145 797.5 249.5 c 128,-1,10
 882 354 882 354 882 539 c 0,11,12
 882 725 882 725 797.5 829 c 128,-1,13
 713 933 713 933 562 933 c 128,-1,14
 411 933 411 933 326.5 828.5 c 128,-1,15
 242 724 242 724 242 539 c 128,-1,16
 242 354 242 354 327 249.5 c 128,-1,17
 412 145 412 145 562 145 c 0,8,9
627 1250 m 1,18,-1
 479 1250 l 1,19,-1
 218 1550 l 1,20,-1
 416 1550 l 1,21,-1
 627 1250 l 1,18,-1
EndSplineSet
EndChar

StartChar: oacute
Encoding: 243 243 179
Width: 1124
GlyphClass: 2
Flags: W
LayerCount: 2
Fore
SplineSet
562 -10 m 128,-1,1
 335 -10 335 -10 200 139 c 128,-1,2
 65 288 65 288 65 539 c 128,-1,3
 65 790 65 790 200 939 c 128,-1,4
 335 1088 335 1088 562 1088 c 128,-1,5
 789 1088 789 1088 924 939 c 128,-1,6
 1059 790 1059 790 1059 539 c 128,-1,7
 1059 288 1059 288 924 139 c 128,-1,0
 789 -10 789 -10 562 -10 c 128,-1,1
562 145 m 0,8,9
 713 145 713 145 797.5 249.5 c 128,-1,10
 882 354 882 354 882 539 c 0,11,12
 882 725 882 725 797.5 829 c 128,-1,13
 713 933 713 933 562 933 c 128,-1,14
 411 933 411 933 326.5 828.5 c 128,-1,15
 242 724 242 724 242 539 c 128,-1,16
 242 354 242 354 327 249.5 c 128,-1,17
 412 145 412 145 562 145 c 0,8,9
636 1250 m 1,18,-1
 488 1250 l 1,19,-1
 699 1550 l 1,20,-1
 897 1550 l 1,21,-1
 636 1250 l 1,18,-1
EndSplineSet
EndChar

StartChar: ocircumflex
Encoding: 244 244 180
Width: 1124
GlyphClass: 2
Flags: W
LayerCount: 2
Fore
SplineSet
562 -10 m 128,-1,1
 335 -10 335 -10 200 139 c 128,-1,2
 65 288 65 288 65 539 c 128,-1,3
 65 790 65 790 200 939 c 128,-1,4
 335 1088 335 1088 562 1088 c 128,-1,5
 789 1088 789 1088 924 939 c 128,-1,6
 1059 790 1059 790 1059 539 c 128,-1,7
 1059 288 1059 288 924 139 c 128,-1,0
 789 -10 789 -10 562 -10 c 128,-1,1
562 145 m 0,8,9
 713 145 713 145 797.5 249.5 c 128,-1,10
 882 354 882 354 882 539 c 0,11,12
 882 725 882 725 797.5 829 c 128,-1,13
 713 933 713 933 562 933 c 128,-1,14
 411 933 411 933 326.5 828.5 c 128,-1,15
 242 724 242 724 242 539 c 128,-1,16
 242 354 242 354 327 249.5 c 128,-1,17
 412 145 412 145 562 145 c 0,8,9
624 1550 m 1,18,-1
 901 1250 l 1,19,-1
 738 1250 l 1,20,-1
 565 1447 l 1,21,-1
 559 1447 l 1,22,-1
 386 1250 l 1,23,-1
 223 1250 l 1,24,-1
 500 1550 l 1,25,-1
 624 1550 l 1,18,-1
EndSplineSet
EndChar

StartChar: otilde
Encoding: 245 245 181
Width: 1124
GlyphClass: 2
Flags: W
LayerCount: 2
Fore
SplineSet
562 -10 m 128,-1,1
 335 -10 335 -10 200 139 c 128,-1,2
 65 288 65 288 65 539 c 128,-1,3
 65 790 65 790 200 939 c 128,-1,4
 335 1088 335 1088 562 1088 c 128,-1,5
 789 1088 789 1088 924 939 c 128,-1,6
 1059 790 1059 790 1059 539 c 128,-1,7
 1059 288 1059 288 924 139 c 128,-1,0
 789 -10 789 -10 562 -10 c 128,-1,1
562 145 m 0,8,9
 713 145 713 145 797.5 249.5 c 128,-1,10
 882 354 882 354 882 539 c 0,11,12
 882 725 882 725 797.5 829 c 128,-1,13
 713 933 713 933 562 933 c 128,-1,14
 411 933 411 933 326.5 828.5 c 128,-1,15
 242 724 242 724 242 539 c 128,-1,16
 242 354 242 354 327 249.5 c 128,-1,17
 412 145 412 145 562 145 c 0,8,9
694 1258 m 0,18,19
 658 1258 658 1258 626.5 1273.5 c 128,-1,20
 595 1289 595 1289 572.5 1311.5 c 128,-1,21
 550 1334 550 1334 530 1356.5 c 128,-1,22
 510 1379 510 1379 488 1394.5 c 128,-1,23
 466 1410 466 1410 445 1410 c 0,24,25
 412 1410 412 1410 394 1374.5 c 128,-1,26
 376 1339 376 1339 376 1273 c 1,27,-1
 262 1273 l 1,28,29
 262 1391 262 1391 309 1457 c 128,-1,30
 356 1523 356 1523 440 1523 c 0,31,32
 478 1523 478 1523 511.5 1507.5 c 128,-1,33
 545 1492 545 1492 568 1469.5 c 128,-1,34
 591 1447 591 1447 611.5 1424.5 c 128,-1,35
 632 1402 632 1402 653 1386.5 c 128,-1,36
 674 1371 674 1371 694 1371 c 0,37,38
 756 1371 756 1371 756 1509 c 1,39,-1
 870 1509 l 1,40,41
 870 1394 870 1394 822 1326 c 128,-1,42
 774 1258 774 1258 694 1258 c 0,18,19
EndSplineSet
EndChar

StartChar: odieresis
Encoding: 246 246 182
Width: 1124
GlyphClass: 2
Flags: W
LayerCount: 2
Fore
SplineSet
562 -10 m 128,-1,1
 335 -10 335 -10 200 139 c 128,-1,2
 65 288 65 288 65 539 c 128,-1,3
 65 790 65 790 200 939 c 128,-1,4
 335 1088 335 1088 562 1088 c 128,-1,5
 789 1088 789 1088 924 939 c 128,-1,6
 1059 790 1059 790 1059 539 c 128,-1,7
 1059 288 1059 288 924 139 c 128,-1,0
 789 -10 789 -10 562 -10 c 128,-1,1
562 145 m 0,8,9
 713 145 713 145 797.5 249.5 c 128,-1,10
 882 354 882 354 882 539 c 0,11,12
 882 725 882 725 797.5 829 c 128,-1,13
 713 933 713 933 562 933 c 128,-1,14
 411 933 411 933 326.5 828.5 c 128,-1,15
 242 724 242 724 242 539 c 128,-1,16
 242 354 242 354 327 249.5 c 128,-1,17
 412 145 412 145 562 145 c 0,8,9
365 1261 m 128,-1,19
 319 1261 319 1261 286 1294 c 128,-1,20
 253 1327 253 1327 253 1373 c 128,-1,21
 253 1419 253 1419 286 1452 c 128,-1,22
 319 1485 319 1485 365 1485 c 0,23,24
 412 1485 412 1485 444.5 1452.5 c 128,-1,25
 477 1420 477 1420 477 1373 c 0,26,27
 477 1327 477 1327 444 1294 c 128,-1,18
 411 1261 411 1261 365 1261 c 128,-1,19
759 1261 m 128,-1,29
 713 1261 713 1261 680 1294 c 128,-1,30
 647 1327 647 1327 647 1373 c 128,-1,31
 647 1419 647 1419 680 1452 c 128,-1,32
 713 1485 713 1485 759 1485 c 0,33,34
 806 1485 806 1485 838.5 1452.5 c 128,-1,35
 871 1420 871 1420 871 1373 c 0,36,37
 871 1327 871 1327 838 1294 c 128,-1,28
 805 1261 805 1261 759 1261 c 128,-1,29
EndSplineSet
EndChar

StartChar: divide
Encoding: 247 247 183
Width: 1239
GlyphClass: 2
Flags: W
LayerCount: 2
Fore
SplineSet
620 802 m 128,-1,1
 566 802 566 802 530.5 837 c 128,-1,2
 495 872 495 872 495 927 c 0,3,4
 495 981 495 981 530.5 1016.5 c 128,-1,5
 566 1052 566 1052 620 1052 c 0,6,7
 673 1052 673 1052 709 1016.5 c 128,-1,8
 745 981 745 981 745 927 c 128,-1,9
 745 873 745 873 709.5 837.5 c 128,-1,0
 674 802 674 802 620 802 c 128,-1,1
620 88 m 128,-1,11
 566 88 566 88 530.5 123 c 128,-1,12
 495 158 495 158 495 213 c 0,13,14
 495 267 495 267 530.5 302.5 c 128,-1,15
 566 338 566 338 620 338 c 0,16,17
 673 338 673 338 709 302.5 c 128,-1,18
 745 267 745 267 745 213 c 128,-1,19
 745 159 745 159 709.5 123.5 c 128,-1,10
 674 88 674 88 620 88 c 128,-1,11
1128 496 m 1,20,-1
 111 496 l 1,21,-1
 111 644 l 1,22,-1
 1128 644 l 1,23,-1
 1128 496 l 1,20,-1
EndSplineSet
Substitution2: "'case' Case-Sensitive Forms in Latin lookup 4 subtable" divide.uc
EndChar

StartChar: oslash
Encoding: 248 248 184
Width: 1124
GlyphClass: 2
Flags: W
LayerCount: 2
Fore
SplineSet
817 802 m 1,0,-1
 400 186 l 1,1,2
 468 145 468 145 562 145 c 0,3,4
 713 145 713 145 797.5 249.5 c 128,-1,5
 882 354 882 354 882 539 c 0,6,7
 882 700 882 700 817 802 c 1,0,-1
309 273 m 1,8,-1
 731 888 l 1,9,10
 660 933 660 933 562 933 c 0,11,12
 411 933 411 933 326.5 828.5 c 128,-1,13
 242 724 242 724 242 539 c 0,14,15
 242 377 242 377 309 273 c 1,8,-1
988 1054 m 1,16,-1
 916 948 l 1,17,18
 1059 797 1059 797 1059 539 c 0,19,20
 1059 288 1059 288 924 139 c 128,-1,21
 789 -10 789 -10 562 -10 c 0,22,23
 419 -10 419 -10 309 52 c 1,24,-1
 248 -37 l 1,25,-1
 144 32 l 1,26,-1
 210 128 l 1,27,28
 65 278 65 278 65 539 c 0,29,30
 65 790 65 790 200 939 c 128,-1,31
 335 1088 335 1088 562 1088 c 0,32,33
 710 1088 710 1088 822 1022 c 1,34,-1
 888 1118 l 1,35,-1
 988 1054 l 1,16,-1
EndSplineSet
EndChar

StartChar: ugrave
Encoding: 249 249 185
Width: 1135
GlyphClass: 2
Flags: W
LayerCount: 2
Fore
SplineSet
1017 1078 m 1,0,-1
 1017 0 l 1,1,-1
 853 0 l 1,2,-1
 853 178 l 1,3,-1
 849 178 l 1,4,5
 747 -10 747 -10 496 -10 c 0,6,7
 319 -10 319 -10 216 96.5 c 128,-1,8
 113 203 113 203 113 387 c 2,9,-1
 113 1078 l 1,10,-1
 287 1078 l 1,11,-1
 287 417 l 2,12,13
 287 285 287 285 354.5 215 c 128,-1,14
 422 145 422 145 549 145 c 0,15,16
 682 145 682 145 762.5 229 c 128,-1,17
 843 313 843 313 843 452 c 2,18,-1
 843 1078 l 1,19,-1
 1017 1078 l 1,0,-1
630 1250 m 1,20,-1
 482 1250 l 1,21,-1
 221 1550 l 1,22,-1
 419 1550 l 1,23,-1
 630 1250 l 1,20,-1
EndSplineSet
EndChar

StartChar: uacute
Encoding: 250 250 186
Width: 1135
GlyphClass: 2
Flags: W
LayerCount: 2
Fore
SplineSet
1017 1078 m 1,0,-1
 1017 0 l 1,1,-1
 853 0 l 1,2,-1
 853 178 l 1,3,-1
 849 178 l 1,4,5
 747 -10 747 -10 496 -10 c 0,6,7
 319 -10 319 -10 216 96.5 c 128,-1,8
 113 203 113 203 113 387 c 2,9,-1
 113 1078 l 1,10,-1
 287 1078 l 1,11,-1
 287 417 l 2,12,13
 287 285 287 285 354.5 215 c 128,-1,14
 422 145 422 145 549 145 c 0,15,16
 682 145 682 145 762.5 229 c 128,-1,17
 843 313 843 313 843 452 c 2,18,-1
 843 1078 l 1,19,-1
 1017 1078 l 1,0,-1
639 1250 m 1,20,-1
 491 1250 l 1,21,-1
 702 1550 l 1,22,-1
 900 1550 l 1,23,-1
 639 1250 l 1,20,-1
EndSplineSet
EndChar

StartChar: ucircumflex
Encoding: 251 251 187
Width: 1135
GlyphClass: 2
Flags: W
LayerCount: 2
Fore
SplineSet
1017 1078 m 1,0,-1
 1017 0 l 1,1,-1
 853 0 l 1,2,-1
 853 178 l 1,3,-1
 849 178 l 1,4,5
 747 -10 747 -10 496 -10 c 0,6,7
 319 -10 319 -10 216 96.5 c 128,-1,8
 113 203 113 203 113 387 c 2,9,-1
 113 1078 l 1,10,-1
 287 1078 l 1,11,-1
 287 417 l 2,12,13
 287 285 287 285 354.5 215 c 128,-1,14
 422 145 422 145 549 145 c 0,15,16
 682 145 682 145 762.5 229 c 128,-1,17
 843 313 843 313 843 452 c 2,18,-1
 843 1078 l 1,19,-1
 1017 1078 l 1,0,-1
627 1550 m 1,20,-1
 904 1250 l 1,21,-1
 741 1250 l 1,22,-1
 568 1447 l 1,23,-1
 562 1447 l 1,24,-1
 389 1250 l 1,25,-1
 226 1250 l 1,26,-1
 503 1550 l 1,27,-1
 627 1550 l 1,20,-1
EndSplineSet
EndChar

StartChar: udieresis
Encoding: 252 252 188
Width: 1135
GlyphClass: 2
Flags: W
LayerCount: 2
Fore
SplineSet
1017 1078 m 1,0,-1
 1017 0 l 1,1,-1
 853 0 l 1,2,-1
 853 178 l 1,3,-1
 849 178 l 1,4,5
 747 -10 747 -10 496 -10 c 0,6,7
 319 -10 319 -10 216 96.5 c 128,-1,8
 113 203 113 203 113 387 c 2,9,-1
 113 1078 l 1,10,-1
 287 1078 l 1,11,-1
 287 417 l 2,12,13
 287 285 287 285 354.5 215 c 128,-1,14
 422 145 422 145 549 145 c 0,15,16
 682 145 682 145 762.5 229 c 128,-1,17
 843 313 843 313 843 452 c 2,18,-1
 843 1078 l 1,19,-1
 1017 1078 l 1,0,-1
368 1261 m 128,-1,21
 322 1261 322 1261 289 1294 c 128,-1,22
 256 1327 256 1327 256 1373 c 128,-1,23
 256 1419 256 1419 289 1452 c 128,-1,24
 322 1485 322 1485 368 1485 c 128,-1,25
 414 1485 414 1485 447 1452.5 c 128,-1,26
 480 1420 480 1420 480 1373 c 0,27,28
 480 1327 480 1327 447 1294 c 128,-1,20
 414 1261 414 1261 368 1261 c 128,-1,21
762 1261 m 128,-1,30
 716 1261 716 1261 683 1294 c 128,-1,31
 650 1327 650 1327 650 1373 c 128,-1,32
 650 1419 650 1419 683 1452 c 128,-1,33
 716 1485 716 1485 762 1485 c 128,-1,34
 808 1485 808 1485 841 1452.5 c 128,-1,35
 874 1420 874 1420 874 1373 c 0,36,37
 874 1327 874 1327 841 1294 c 128,-1,29
 808 1261 808 1261 762 1261 c 128,-1,30
EndSplineSet
EndChar

StartChar: yacute
Encoding: 253 253 189
Width: 1026
GlyphClass: 2
Flags: W
LayerCount: 2
Fore
SplineSet
210 -391 m 0,0,1
 171 -391 171 -391 134 -384 c 1,2,-1
 134 -237 l 1,3,4
 164 -243 164 -243 205 -243 c 0,5,6
 280 -243 280 -243 325 -202.5 c 128,-1,7
 370 -162 370 -162 403 -65 c 2,8,-1
 424 -1 l 1,9,-1
 25 1078 l 1,10,-1
 210 1078 l 1,11,-1
 512 177 l 1,12,-1
 516 177 l 1,13,-1
 818 1078 l 1,14,-1
 1001 1078 l 1,15,-1
 579 -66 l 2,16,17
 510 -253 510 -253 431.5 -322 c 128,-1,18
 353 -391 353 -391 210 -391 c 0,0,1
588 1250 m 1,19,-1
 440 1250 l 1,20,-1
 651 1550 l 1,21,-1
 849 1550 l 1,22,-1
 588 1250 l 1,19,-1
EndSplineSet
EndChar

StartChar: thorn
Encoding: 254 254 190
Width: 1171
GlyphClass: 2
Flags: W
LayerCount: 2
Fore
SplineSet
653 1097 m 0,0,1
 859 1097 859 1097 982.5 945 c 128,-1,2
 1106 793 1106 793 1106 539 c 0,3,4
 1106 286 1106 286 982 133.5 c 128,-1,5
 858 -19 858 -19 653 -19 c 0,6,7
 537 -19 537 -19 447.5 29 c 128,-1,8
 358 77 358 77 315 162 c 1,9,-1
 300 162 l 1,10,-1
 300 -360 l 1,11,-1
 128 -360 l 1,12,-1
 128 1506 l 1,13,-1
 292 1506 l 1,14,-1
 292 898 l 1,15,-1
 308 898 l 1,16,17
 360 991 360 991 451.5 1044 c 128,-1,18
 543 1097 543 1097 653 1097 c 0,0,1
612 136 m 0,19,20
 760 136 760 136 844 243 c 128,-1,21
 928 350 928 350 928 539 c 128,-1,22
 928 728 928 728 844.5 835 c 128,-1,23
 761 942 761 942 613 942 c 0,24,25
 467 942 467 942 381 833.5 c 128,-1,26
 295 725 295 725 295 539 c 0,27,28
 295 354 295 354 380.5 245 c 128,-1,29
 466 136 466 136 612 136 c 0,19,20
EndSplineSet
EndChar

StartChar: ydieresis
Encoding: 255 255 191
Width: 1026
GlyphClass: 2
Flags: W
LayerCount: 2
Fore
SplineSet
210 -391 m 0,0,1
 171 -391 171 -391 134 -384 c 1,2,-1
 134 -237 l 1,3,4
 164 -243 164 -243 205 -243 c 0,5,6
 280 -243 280 -243 325 -202.5 c 128,-1,7
 370 -162 370 -162 403 -65 c 2,8,-1
 424 -1 l 1,9,-1
 25 1078 l 1,10,-1
 210 1078 l 1,11,-1
 512 177 l 1,12,-1
 516 177 l 1,13,-1
 818 1078 l 1,14,-1
 1001 1078 l 1,15,-1
 579 -66 l 2,16,17
 510 -253 510 -253 431.5 -322 c 128,-1,18
 353 -391 353 -391 210 -391 c 0,0,1
317 1261 m 128,-1,20
 271 1261 271 1261 238 1294 c 128,-1,21
 205 1327 205 1327 205 1373 c 128,-1,22
 205 1419 205 1419 238 1452 c 128,-1,23
 271 1485 271 1485 317 1485 c 0,24,25
 364 1485 364 1485 396.5 1452.5 c 128,-1,26
 429 1420 429 1420 429 1373 c 0,27,28
 429 1327 429 1327 396 1294 c 128,-1,19
 363 1261 363 1261 317 1261 c 128,-1,20
711 1261 m 128,-1,30
 665 1261 665 1261 632 1294 c 128,-1,31
 599 1327 599 1327 599 1373 c 128,-1,32
 599 1419 599 1419 632 1452 c 128,-1,33
 665 1485 665 1485 711 1485 c 0,34,35
 758 1485 758 1485 790.5 1452.5 c 128,-1,36
 823 1420 823 1420 823 1373 c 0,37,38
 823 1327 823 1327 790 1294 c 128,-1,29
 757 1261 757 1261 711 1261 c 128,-1,30
EndSplineSet
EndChar

StartChar: Amacron
Encoding: 256 256 192
Width: 1292
GlyphClass: 2
Flags: W
LayerCount: 2
Fore
SplineSet
1078 0 m 1,0,-1
 933 413 l 1,1,-1
 359 413 l 1,2,-1
 214 0 l 1,3,-1
 25 0 l 1,4,-1
 557 1443 l 1,5,-1
 735 1443 l 1,6,-1
 1267 0 l 1,7,-1
 1078 0 l 1,0,-1
643 1224 m 1,8,-1
 412 566 l 1,9,-1
 880 566 l 1,10,-1
 649 1224 l 1,11,-1
 643 1224 l 1,8,-1
963 1748 m 1,12,-1
 963 1642 l 1,13,-1
 329 1642 l 1,14,-1
 329 1748 l 1,15,-1
 963 1748 l 1,12,-1
EndSplineSet
EndChar

StartChar: amacron
Encoding: 257 257 193
Width: 1062
GlyphClass: 2
Flags: W
LayerCount: 2
Fore
SplineSet
470 141 m 0,0,1
 602 141 602 141 688.5 217.5 c 128,-1,2
 775 294 775 294 775 410 c 2,3,-1
 775 497 l 1,4,-1
 493 479 l 2,5,6
 247 464 247 464 247 306 c 0,7,8
 247 231 247 231 307.5 186 c 128,-1,9
 368 141 368 141 470 141 c 0,0,1
433 -10 m 0,10,11
 269 -10 269 -10 169 77 c 128,-1,12
 69 164 69 164 69 307 c 0,13,14
 69 446 69 446 173 525.5 c 128,-1,15
 277 605 277 605 473 617 c 2,16,-1
 775 635 l 1,17,-1
 775 725 l 2,18,19
 775 825 775 825 711 879 c 128,-1,20
 647 933 647 933 528 933 c 0,21,22
 434 933 434 933 369.5 888 c 128,-1,23
 305 843 305 843 289 767 c 1,24,-1
 122 767 l 1,25,26
 126 903 126 903 243 995.5 c 128,-1,27
 360 1088 360 1088 530 1088 c 0,28,29
 721 1088 721 1088 835 993.5 c 128,-1,30
 949 899 949 899 949 740 c 2,31,-1
 949 0 l 1,32,-1
 784 0 l 1,33,-1
 784 187 l 1,34,-1
 780 187 l 1,35,36
 734 97 734 97 640 43.5 c 128,-1,37
 546 -10 546 -10 433 -10 c 0,10,11
843 1426 m 1,38,-1
 843 1320 l 1,39,-1
 209 1320 l 1,40,-1
 209 1426 l 1,41,-1
 843 1426 l 1,38,-1
EndSplineSet
EndChar

StartChar: Abreve
Encoding: 258 258 194
Width: 1292
GlyphClass: 2
Flags: W
LayerCount: 2
Fore
SplineSet
1078 0 m 1,0,-1
 933 413 l 1,1,-1
 359 413 l 1,2,-1
 214 0 l 1,3,-1
 25 0 l 1,4,-1
 557 1443 l 1,5,-1
 735 1443 l 1,6,-1
 1267 0 l 1,7,-1
 1078 0 l 1,0,-1
643 1224 m 1,8,-1
 412 566 l 1,9,-1
 880 566 l 1,10,-1
 649 1224 l 1,11,-1
 643 1224 l 1,8,-1
336 1849 m 1,12,-1
 455 1849 l 1,13,14
 455 1766 455 1766 510 1709.5 c 128,-1,15
 565 1653 565 1653 646 1653 c 128,-1,16
 727 1653 727 1653 782 1709.5 c 128,-1,17
 837 1766 837 1766 837 1849 c 1,18,-1
 956 1849 l 1,19,20
 956 1717 956 1717 869.5 1633.5 c 128,-1,21
 783 1550 783 1550 646 1550 c 128,-1,22
 509 1550 509 1550 422.5 1633.5 c 128,-1,23
 336 1717 336 1717 336 1849 c 1,12,-1
EndSplineSet
EndChar

StartChar: abreve
Encoding: 259 259 195
Width: 1062
GlyphClass: 2
Flags: W
LayerCount: 2
Fore
SplineSet
470 141 m 0,0,1
 602 141 602 141 688.5 217.5 c 128,-1,2
 775 294 775 294 775 410 c 2,3,-1
 775 497 l 1,4,-1
 493 479 l 2,5,6
 247 464 247 464 247 306 c 0,7,8
 247 231 247 231 307.5 186 c 128,-1,9
 368 141 368 141 470 141 c 0,0,1
433 -10 m 0,10,11
 269 -10 269 -10 169 77 c 128,-1,12
 69 164 69 164 69 307 c 0,13,14
 69 446 69 446 173 525.5 c 128,-1,15
 277 605 277 605 473 617 c 2,16,-1
 775 635 l 1,17,-1
 775 725 l 2,18,19
 775 825 775 825 711 879 c 128,-1,20
 647 933 647 933 528 933 c 0,21,22
 434 933 434 933 369.5 888 c 128,-1,23
 305 843 305 843 289 767 c 1,24,-1
 122 767 l 1,25,26
 126 903 126 903 243 995.5 c 128,-1,27
 360 1088 360 1088 530 1088 c 0,28,29
 721 1088 721 1088 835 993.5 c 128,-1,30
 949 899 949 899 949 740 c 2,31,-1
 949 0 l 1,32,-1
 784 0 l 1,33,-1
 784 187 l 1,34,-1
 780 187 l 1,35,36
 734 97 734 97 640 43.5 c 128,-1,37
 546 -10 546 -10 433 -10 c 0,10,11
203 1550 m 1,38,-1
 326 1550 l 1,39,40
 326 1464 326 1464 383.5 1405.5 c 128,-1,41
 441 1347 441 1347 525 1347 c 128,-1,42
 609 1347 609 1347 666.5 1405.5 c 128,-1,43
 724 1464 724 1464 724 1550 c 1,44,-1
 847 1550 l 1,45,46
 847 1412 847 1412 757.5 1326 c 128,-1,47
 668 1240 668 1240 525 1240 c 128,-1,48
 382 1240 382 1240 292.5 1326 c 128,-1,49
 203 1412 203 1412 203 1550 c 1,38,-1
EndSplineSet
EndChar

StartChar: Aogonek
Encoding: 260 260 196
Width: 1292
GlyphClass: 2
Flags: W
LayerCount: 2
Fore
SplineSet
1172 -432 m 0,0,1
 1068 -432 1068 -432 1002 -369 c 128,-1,2
 936 -306 936 -306 936 -207 c 0,3,4
 936 -72 936 -72 1071 22 c 1,5,-1
 933 413 l 1,6,-1
 359 413 l 1,7,-1
 214 0 l 1,8,-1
 25 0 l 1,9,-1
 557 1443 l 1,10,-1
 735 1443 l 1,11,-1
 1262 14 l 1,12,13
 1183 -21 1183 -21 1140.5 -71 c 128,-1,14
 1098 -121 1098 -121 1098 -180 c 0,15,16
 1098 -232 1098 -232 1131.5 -265 c 128,-1,17
 1165 -298 1165 -298 1218 -298 c 0,18,19
 1248 -298 1248 -298 1267 -295 c 1,20,-1
 1267 -421 l 1,21,22
 1228 -432 1228 -432 1172 -432 c 0,0,1
638 1210 m 1,23,-1
 412 566 l 1,24,-1
 880 566 l 1,25,-1
 654 1210 l 1,26,-1
 638 1210 l 1,23,-1
EndSplineSet
EndChar

StartChar: aogonek
Encoding: 261 261 197
Width: 1062
GlyphClass: 2
Flags: W
LayerCount: 2
Fore
SplineSet
861 -432 m 0,0,1
 757 -432 757 -432 693.5 -373 c 128,-1,2
 630 -314 630 -314 630 -217 c 0,3,4
 630 -71 630 -71 784 23 c 1,5,-1
 784 187 l 1,6,-1
 780 187 l 1,7,8
 734 97 734 97 640 43.5 c 128,-1,9
 546 -10 546 -10 433 -10 c 0,10,11
 269 -10 269 -10 169 77 c 128,-1,12
 69 164 69 164 69 307 c 0,13,14
 69 446 69 446 173 525.5 c 128,-1,15
 277 605 277 605 473 617 c 2,16,-1
 775 635 l 1,17,-1
 775 725 l 2,18,19
 775 825 775 825 711 879 c 128,-1,20
 647 933 647 933 528 933 c 0,21,22
 434 933 434 933 369.5 888 c 128,-1,23
 305 843 305 843 289 767 c 1,24,-1
 122 767 l 1,25,26
 126 903 126 903 243 995.5 c 128,-1,27
 360 1088 360 1088 530 1088 c 0,28,29
 721 1088 721 1088 835 993.5 c 128,-1,30
 949 899 949 899 949 740 c 2,31,-1
 949 19 l 1,32,33
 872 -15 872 -15 829.5 -67.5 c 128,-1,34
 787 -120 787 -120 787 -180 c 0,35,36
 787 -234 787 -234 819.5 -266 c 128,-1,37
 852 -298 852 -298 905 -298 c 0,38,39
 931 -298 931 -298 949 -295 c 1,40,-1
 949 -421 l 1,41,42
 910 -432 910 -432 861 -432 c 0,0,1
470 141 m 0,43,44
 602 141 602 141 688.5 217.5 c 128,-1,45
 775 294 775 294 775 410 c 2,46,-1
 775 497 l 1,47,-1
 493 479 l 2,48,49
 247 464 247 464 247 306 c 0,50,51
 247 231 247 231 307.5 186 c 128,-1,52
 368 141 368 141 470 141 c 0,43,44
EndSplineSet
EndChar

StartChar: Cacute
Encoding: 262 262 198
Width: 1405
GlyphClass: 2
Flags: W
LayerCount: 2
Fore
SplineSet
734 -24 m 0,0,1
 435 -24 435 -24 259.5 177.5 c 128,-1,2
 84 379 84 379 84 722 c 0,3,4
 84 1062 84 1062 261 1264.5 c 128,-1,5
 438 1467 438 1467 734 1467 c 0,6,7
 970 1467 970 1467 1134.5 1335.5 c 128,-1,8
 1299 1204 1299 1204 1333 988 c 1,9,-1
 1151 988 l 1,10,11
 1116 1130 1116 1130 1002 1215.5 c 128,-1,12
 888 1301 888 1301 734 1301 c 0,13,14
 523 1301 523 1301 396 1143 c 128,-1,15
 269 985 269 985 269 722 c 0,16,17
 269 456 269 456 395 299 c 128,-1,18
 521 142 521 142 735 142 c 0,19,20
 894 142 894 142 1003 215 c 128,-1,21
 1112 288 1112 288 1151 420 c 1,22,-1
 1333 420 l 1,23,24
 1283 206 1283 206 1128 91 c 128,-1,25
 973 -24 973 -24 734 -24 c 0,0,1
811 1552 m 1,26,-1
 663 1552 l 1,27,-1
 894 1851 l 1,28,-1
 1092 1851 l 1,29,-1
 811 1552 l 1,26,-1
EndSplineSet
EndChar

StartChar: cacute
Encoding: 263 263 199
Width: 1060
GlyphClass: 2
Flags: W
LayerCount: 2
Fore
SplineSet
1009 727 m 1,0,-1
 838 727 l 1,1,2
 821 818 821 818 748 875.5 c 128,-1,3
 675 933 675 933 558 933 c 0,4,5
 416 933 416 933 329 825 c 128,-1,6
 242 717 242 717 242 539 c 0,7,8
 242 357 242 357 329.5 251 c 128,-1,9
 417 145 417 145 560 145 c 0,10,11
 673 145 673 145 745.5 196.5 c 128,-1,12
 818 248 818 248 840 345 c 1,13,-1
 1011 345 l 1,14,15
 989 186 989 186 865.5 88 c 128,-1,16
 742 -10 742 -10 559 -10 c 0,17,18
 335 -10 335 -10 200 138.5 c 128,-1,19
 65 287 65 287 65 539 c 0,20,21
 65 787 65 787 200 937.5 c 128,-1,22
 335 1088 335 1088 557 1088 c 0,23,24
 748 1088 748 1088 870 982.5 c 128,-1,25
 992 877 992 877 1009 727 c 1,0,-1
631 1250 m 1,26,-1
 483 1250 l 1,27,-1
 694 1550 l 1,28,-1
 892 1550 l 1,29,-1
 631 1250 l 1,26,-1
EndSplineSet
EndChar

StartChar: Ccircumflex
Encoding: 264 264 200
Width: 1405
GlyphClass: 2
Flags: W
LayerCount: 2
Fore
SplineSet
734 -24 m 0,0,1
 435 -24 435 -24 259.5 177.5 c 128,-1,2
 84 379 84 379 84 722 c 0,3,4
 84 1062 84 1062 261 1264.5 c 128,-1,5
 438 1467 438 1467 734 1467 c 0,6,7
 970 1467 970 1467 1134.5 1335.5 c 128,-1,8
 1299 1204 1299 1204 1333 988 c 1,9,-1
 1151 988 l 1,10,11
 1116 1130 1116 1130 1002 1215.5 c 128,-1,12
 888 1301 888 1301 734 1301 c 0,13,14
 523 1301 523 1301 396 1143 c 128,-1,15
 269 985 269 985 269 722 c 0,16,17
 269 456 269 456 395 299 c 128,-1,18
 521 142 521 142 735 142 c 0,19,20
 894 142 894 142 1003 215 c 128,-1,21
 1112 288 1112 288 1151 420 c 1,22,-1
 1333 420 l 1,23,24
 1283 206 1283 206 1128 91 c 128,-1,25
 973 -24 973 -24 734 -24 c 0,0,1
663 1851 m 1,26,-1
 805 1851 l 1,27,-1
 1097 1552 l 1,28,-1
 929 1552 l 1,29,-1
 735 1753 l 1,30,-1
 733 1753 l 1,31,-1
 539 1552 l 1,32,-1
 371 1552 l 1,33,-1
 663 1851 l 1,26,-1
EndSplineSet
EndChar

StartChar: ccircumflex
Encoding: 265 265 201
Width: 1060
GlyphClass: 2
Flags: W
LayerCount: 2
Fore
SplineSet
1009 727 m 1,0,-1
 838 727 l 1,1,2
 821 818 821 818 748 875.5 c 128,-1,3
 675 933 675 933 558 933 c 0,4,5
 416 933 416 933 329 825 c 128,-1,6
 242 717 242 717 242 539 c 0,7,8
 242 357 242 357 329.5 251 c 128,-1,9
 417 145 417 145 560 145 c 0,10,11
 673 145 673 145 745.5 196.5 c 128,-1,12
 818 248 818 248 840 345 c 1,13,-1
 1011 345 l 1,14,15
 989 186 989 186 865.5 88 c 128,-1,16
 742 -10 742 -10 559 -10 c 0,17,18
 335 -10 335 -10 200 138.5 c 128,-1,19
 65 287 65 287 65 539 c 0,20,21
 65 787 65 787 200 937.5 c 128,-1,22
 335 1088 335 1088 557 1088 c 0,23,24
 748 1088 748 1088 870 982.5 c 128,-1,25
 992 877 992 877 1009 727 c 1,0,-1
619 1550 m 1,26,-1
 896 1250 l 1,27,-1
 733 1250 l 1,28,-1
 560 1447 l 1,29,-1
 554 1447 l 1,30,-1
 381 1250 l 1,31,-1
 218 1250 l 1,32,-1
 495 1550 l 1,33,-1
 619 1550 l 1,26,-1
EndSplineSet
EndChar

StartChar: Cdotaccent
Encoding: 266 266 202
Width: 1405
GlyphClass: 2
Flags: W
LayerCount: 2
Fore
SplineSet
734 -24 m 0,0,1
 435 -24 435 -24 259.5 177.5 c 128,-1,2
 84 379 84 379 84 722 c 0,3,4
 84 1062 84 1062 261 1264.5 c 128,-1,5
 438 1467 438 1467 734 1467 c 0,6,7
 970 1467 970 1467 1134.5 1335.5 c 128,-1,8
 1299 1204 1299 1204 1333 988 c 1,9,-1
 1151 988 l 1,10,11
 1116 1130 1116 1130 1002 1215.5 c 128,-1,12
 888 1301 888 1301 734 1301 c 0,13,14
 523 1301 523 1301 396 1143 c 128,-1,15
 269 985 269 985 269 722 c 0,16,17
 269 456 269 456 395 299 c 128,-1,18
 521 142 521 142 735 142 c 0,19,20
 894 142 894 142 1003 215 c 128,-1,21
 1112 288 1112 288 1151 420 c 1,22,-1
 1333 420 l 1,23,24
 1283 206 1283 206 1128 91 c 128,-1,25
 973 -24 973 -24 734 -24 c 0,0,1
734 1587 m 128,-1,27
 684 1587 684 1587 648.5 1622.5 c 128,-1,28
 613 1658 613 1658 613 1708 c 128,-1,29
 613 1758 613 1758 648.5 1793.5 c 128,-1,30
 684 1829 684 1829 734 1829 c 128,-1,31
 784 1829 784 1829 819.5 1793.5 c 128,-1,32
 855 1758 855 1758 855 1708 c 128,-1,33
 855 1658 855 1658 819.5 1622.5 c 128,-1,26
 784 1587 784 1587 734 1587 c 128,-1,27
EndSplineSet
EndChar

StartChar: cdotaccent
Encoding: 267 267 203
Width: 1060
GlyphClass: 2
Flags: W
LayerCount: 2
Fore
SplineSet
1009 727 m 1,0,-1
 838 727 l 1,1,2
 821 818 821 818 748 875.5 c 128,-1,3
 675 933 675 933 558 933 c 0,4,5
 416 933 416 933 329 825 c 128,-1,6
 242 717 242 717 242 539 c 0,7,8
 242 357 242 357 329.5 251 c 128,-1,9
 417 145 417 145 560 145 c 0,10,11
 673 145 673 145 745.5 196.5 c 128,-1,12
 818 248 818 248 840 345 c 1,13,-1
 1011 345 l 1,14,15
 989 186 989 186 865.5 88 c 128,-1,16
 742 -10 742 -10 559 -10 c 0,17,18
 335 -10 335 -10 200 138.5 c 128,-1,19
 65 287 65 287 65 539 c 0,20,21
 65 787 65 787 200 937.5 c 128,-1,22
 335 1088 335 1088 557 1088 c 0,23,24
 748 1088 748 1088 870 982.5 c 128,-1,25
 992 877 992 877 1009 727 c 1,0,-1
557 1261 m 128,-1,27
 506 1261 506 1261 469.5 1297.5 c 128,-1,28
 433 1334 433 1334 433 1385 c 128,-1,29
 433 1436 433 1436 469.5 1472.5 c 128,-1,30
 506 1509 506 1509 557 1509 c 128,-1,31
 608 1509 608 1509 644.5 1472.5 c 128,-1,32
 681 1436 681 1436 681 1385 c 128,-1,33
 681 1334 681 1334 644.5 1297.5 c 128,-1,26
 608 1261 608 1261 557 1261 c 128,-1,27
EndSplineSet
EndChar

StartChar: Ccaron
Encoding: 268 268 204
Width: 1405
GlyphClass: 2
Flags: W
LayerCount: 2
Fore
SplineSet
734 -24 m 0,0,1
 435 -24 435 -24 259.5 177.5 c 128,-1,2
 84 379 84 379 84 722 c 0,3,4
 84 1062 84 1062 261 1264.5 c 128,-1,5
 438 1467 438 1467 734 1467 c 0,6,7
 970 1467 970 1467 1134.5 1335.5 c 128,-1,8
 1299 1204 1299 1204 1333 988 c 1,9,-1
 1151 988 l 1,10,11
 1116 1130 1116 1130 1002 1215.5 c 128,-1,12
 888 1301 888 1301 734 1301 c 0,13,14
 523 1301 523 1301 396 1143 c 128,-1,15
 269 985 269 985 269 722 c 0,16,17
 269 456 269 456 395 299 c 128,-1,18
 521 142 521 142 735 142 c 0,19,20
 894 142 894 142 1003 215 c 128,-1,21
 1112 288 1112 288 1151 420 c 1,22,-1
 1333 420 l 1,23,24
 1283 206 1283 206 1128 91 c 128,-1,25
 973 -24 973 -24 734 -24 c 0,0,1
663 1552 m 1,26,-1
 371 1851 l 1,27,-1
 539 1851 l 1,28,-1
 733 1650 l 1,29,-1
 735 1650 l 1,30,-1
 929 1851 l 1,31,-1
 1097 1851 l 1,32,-1
 805 1552 l 1,33,-1
 663 1552 l 1,26,-1
EndSplineSet
EndChar

StartChar: ccaron
Encoding: 269 269 205
Width: 1060
GlyphClass: 2
Flags: W
LayerCount: 2
Fore
SplineSet
1009 727 m 1,0,-1
 838 727 l 1,1,2
 821 818 821 818 748 875.5 c 128,-1,3
 675 933 675 933 558 933 c 0,4,5
 416 933 416 933 329 825 c 128,-1,6
 242 717 242 717 242 539 c 0,7,8
 242 357 242 357 329.5 251 c 128,-1,9
 417 145 417 145 560 145 c 0,10,11
 673 145 673 145 745.5 196.5 c 128,-1,12
 818 248 818 248 840 345 c 1,13,-1
 1011 345 l 1,14,15
 989 186 989 186 865.5 88 c 128,-1,16
 742 -10 742 -10 559 -10 c 0,17,18
 335 -10 335 -10 200 138.5 c 128,-1,19
 65 287 65 287 65 539 c 0,20,21
 65 787 65 787 200 937.5 c 128,-1,22
 335 1088 335 1088 557 1088 c 0,23,24
 748 1088 748 1088 870 982.5 c 128,-1,25
 992 877 992 877 1009 727 c 1,0,-1
619 1250 m 1,26,-1
 495 1250 l 1,27,-1
 218 1550 l 1,28,-1
 381 1550 l 1,29,-1
 554 1353 l 1,30,-1
 560 1353 l 1,31,-1
 733 1550 l 1,32,-1
 896 1550 l 1,33,-1
 619 1250 l 1,26,-1
EndSplineSet
EndChar

StartChar: Dcaron
Encoding: 270 270 206
Width: 1399
GlyphClass: 2
Flags: W
LayerCount: 2
Fore
SplineSet
140 1443 m 1,0,-1
 635 1443 l 2,1,2
 956 1443 956 1443 1136 1252.5 c 128,-1,3
 1316 1062 1316 1062 1316 722 c 0,4,5
 1316 381 1316 381 1136.5 190.5 c 128,-1,6
 957 0 957 0 635 0 c 2,7,-1
 140 0 l 1,8,-1
 140 1443 l 1,0,-1
320 1281 m 1,9,-1
 320 162 l 1,10,-1
 623 162 l 2,11,12
 868 162 868 162 1000 306.5 c 128,-1,13
 1132 451 1132 451 1132 720 c 0,14,15
 1132 991 1132 991 1000.5 1136 c 128,-1,16
 869 1281 869 1281 623 1281 c 2,17,-1
 320 1281 l 1,9,-1
479 1550 m 1,18,-1
 187 1849 l 1,19,-1
 355 1849 l 1,20,-1
 549 1648 l 1,21,-1
 551 1648 l 1,22,-1
 745 1849 l 1,23,-1
 913 1849 l 1,24,-1
 621 1550 l 1,25,-1
 479 1550 l 1,18,-1
EndSplineSet
EndChar

StartChar: dcaron
Encoding: 271 271 207
Width: 1307
GlyphClass: 2
Flags: W
LayerCount: 2
Fore
SplineSet
1196 1506 m 1,0,-1
 1336 1506 l 1,1,-1
 1306 1018 l 1,2,-1
 1196 1018 l 1,3,-1
 1196 1506 l 1,0,-1
527 -10 m 0,4,5
 323 -10 323 -10 194 141.5 c 128,-1,6
 65 293 65 293 65 539 c 0,7,8
 65 784 65 784 193 936 c 128,-1,9
 321 1088 321 1088 523 1088 c 0,10,11
 638 1088 638 1088 727.5 1040 c 128,-1,12
 817 992 817 992 867 903 c 1,13,-1
 871 903 l 1,14,-1
 871 1506 l 1,15,-1
 1045 1506 l 1,16,-1
 1045 0 l 1,17,-1
 879 0 l 1,18,-1
 879 182 l 1,19,-1
 876 182 l 1,20,21
 823 89 823 89 733.5 39.5 c 128,-1,22
 644 -10 644 -10 527 -10 c 0,4,5
558 933 m 0,23,24
 416 933 416 933 329.5 825 c 128,-1,25
 243 717 243 717 243 539 c 0,26,27
 243 360 243 360 329.5 252.5 c 128,-1,28
 416 145 416 145 558 145 c 0,29,30
 698 145 698 145 785 254 c 128,-1,31
 872 363 872 363 872 539 c 128,-1,32
 872 715 872 715 785 824 c 128,-1,33
 698 933 698 933 558 933 c 0,23,24
EndSplineSet
EndChar

StartChar: Dcroat
Encoding: 272 272 208
Width: 1531
GlyphClass: 2
Flags: W
LayerCount: 2
Fore
SplineSet
399 162 m 1,0,-1
 702 162 l 2,1,2
 947 162 947 162 1079 306.5 c 128,-1,3
 1211 451 1211 451 1211 720 c 0,4,5
 1211 991 1211 991 1079.5 1136 c 128,-1,6
 948 1281 948 1281 702 1281 c 2,7,-1
 399 1281 l 1,8,-1
 399 826 l 1,9,-1
 676 826 l 1,10,-1
 676 663 l 1,11,-1
 399 663 l 1,12,-1
 399 162 l 1,0,-1
219 1443 m 1,13,-1
 714 1443 l 2,14,15
 1035 1443 1035 1443 1215 1252.5 c 128,-1,16
 1395 1062 1395 1062 1395 722 c 0,17,18
 1395 381 1395 381 1215.5 190.5 c 128,-1,19
 1036 0 1036 0 714 0 c 2,20,-1
 219 0 l 1,21,-1
 219 663 l 1,22,-1
 90 663 l 1,23,-1
 90 826 l 1,24,-1
 219 826 l 1,25,-1
 219 1443 l 1,13,-1
EndSplineSet
EndChar

StartChar: dcroat
Encoding: 273 273 209
Width: 1210
GlyphClass: 2
Flags: W
LayerCount: 2
Fore
SplineSet
577 136 m 128,-1,1
 724 136 724 136 809 244 c 128,-1,2
 894 352 894 352 894 539 c 0,3,4
 894 724 894 724 808.5 833 c 128,-1,5
 723 942 723 942 577 942 c 0,6,7
 430 942 430 942 346 835 c 128,-1,8
 262 728 262 728 262 539 c 128,-1,9
 262 350 262 350 346 243 c 128,-1,0
 430 136 430 136 577 136 c 128,-1,1
1186 1411 m 1,10,-1
 1186 1287 l 1,11,-1
 1062 1287 l 1,12,-1
 1062 0 l 1,13,-1
 898 0 l 1,14,-1
 898 172 l 1,15,-1
 882 172 l 1,16,17
 831 83 831 83 740.5 32 c 128,-1,18
 650 -19 650 -19 537 -19 c 0,19,20
 330 -19 330 -19 207 133 c 128,-1,21
 84 285 84 285 84 539 c 0,22,23
 84 792 84 792 207.5 944.5 c 128,-1,24
 331 1097 331 1097 537 1097 c 0,25,26
 650 1097 650 1097 740 1046.5 c 128,-1,27
 830 996 830 996 875 908 c 1,28,-1
 890 908 l 1,29,-1
 890 1287 l 1,30,-1
 630 1287 l 1,31,-1
 630 1411 l 1,32,-1
 890 1411 l 1,33,-1
 890 1564 l 1,34,-1
 1062 1564 l 1,35,-1
 1062 1411 l 1,36,-1
 1186 1411 l 1,10,-1
EndSplineSet
EndChar

StartChar: Emacron
Encoding: 274 274 210
Width: 1131
GlyphClass: 2
Flags: W
LayerCount: 2
Fore
SplineSet
1034 162 m 1,0,-1
 1034 0 l 1,1,-1
 140 0 l 1,2,-1
 140 1443 l 1,3,-1
 1034 1443 l 1,4,-1
 1034 1281 l 1,5,-1
 320 1281 l 1,6,-1
 320 818 l 1,7,-1
 997 818 l 1,8,-1
 997 658 l 1,9,-1
 320 658 l 1,10,-1
 320 162 l 1,11,-1
 1034 162 l 1,0,-1
904 1748 m 1,12,-1
 904 1642 l 1,13,-1
 270 1642 l 1,14,-1
 270 1748 l 1,15,-1
 904 1748 l 1,12,-1
EndSplineSet
EndChar

StartChar: emacron
Encoding: 275 275 211
Width: 1084
GlyphClass: 2
Flags: W
LayerCount: 2
Fore
SplineSet
548 935 m 0,0,1
 421 935 421 935 337.5 851 c 128,-1,2
 254 767 254 767 245 630 c 1,3,-1
 838 630 l 1,4,5
 835 767 835 767 755.5 851 c 128,-1,6
 676 935 676 935 548 935 c 0,0,1
834 308 m 1,7,-1
 1006 308 l 1,8,9
 984 169 984 169 858 79.5 c 128,-1,10
 732 -10 732 -10 559 -10 c 0,11,12
 332 -10 332 -10 198.5 137 c 128,-1,13
 65 284 65 284 65 535 c 128,-1,14
 65 786 65 786 198 937 c 128,-1,15
 331 1088 331 1088 551 1088 c 0,16,17
 767 1088 767 1088 893 945.5 c 128,-1,18
 1019 803 1019 803 1019 559 c 2,19,-1
 1019 491 l 1,20,-1
 245 491 l 1,21,-1
 245 481 l 2,22,23
 245 327 245 327 332 235 c 128,-1,24
 419 143 419 143 563 143 c 0,25,26
 664 143 664 143 737.5 187.5 c 128,-1,27
 811 232 811 232 834 308 c 1,7,-1
868 1426 m 1,28,-1
 868 1320 l 1,29,-1
 234 1320 l 1,30,-1
 234 1426 l 1,31,-1
 868 1426 l 1,28,-1
EndSplineSet
EndChar

StartChar: Ebreve
Encoding: 276 276 212
Width: 1131
GlyphClass: 2
Flags: W
LayerCount: 2
Fore
SplineSet
1034 162 m 1,0,-1
 1034 0 l 1,1,-1
 140 0 l 1,2,-1
 140 1443 l 1,3,-1
 1034 1443 l 1,4,-1
 1034 1281 l 1,5,-1
 320 1281 l 1,6,-1
 320 818 l 1,7,-1
 997 818 l 1,8,-1
 997 658 l 1,9,-1
 320 658 l 1,10,-1
 320 162 l 1,11,-1
 1034 162 l 1,0,-1
277 1849 m 1,12,-1
 396 1849 l 1,13,14
 396 1766 396 1766 451 1709.5 c 128,-1,15
 506 1653 506 1653 587 1653 c 128,-1,16
 668 1653 668 1653 723 1709.5 c 128,-1,17
 778 1766 778 1766 778 1849 c 1,18,-1
 897 1849 l 1,19,20
 897 1717 897 1717 810.5 1633.5 c 128,-1,21
 724 1550 724 1550 587 1550 c 128,-1,22
 450 1550 450 1550 363.5 1633.5 c 128,-1,23
 277 1717 277 1717 277 1849 c 1,12,-1
EndSplineSet
EndChar

StartChar: ebreve
Encoding: 277 277 213
Width: 1084
GlyphClass: 2
Flags: W
LayerCount: 2
Fore
SplineSet
548 935 m 0,0,1
 421 935 421 935 337.5 851 c 128,-1,2
 254 767 254 767 245 630 c 1,3,-1
 838 630 l 1,4,5
 835 767 835 767 755.5 851 c 128,-1,6
 676 935 676 935 548 935 c 0,0,1
834 308 m 1,7,-1
 1006 308 l 1,8,9
 984 169 984 169 858 79.5 c 128,-1,10
 732 -10 732 -10 559 -10 c 0,11,12
 332 -10 332 -10 198.5 137 c 128,-1,13
 65 284 65 284 65 535 c 128,-1,14
 65 786 65 786 198 937 c 128,-1,15
 331 1088 331 1088 551 1088 c 0,16,17
 767 1088 767 1088 893 945.5 c 128,-1,18
 1019 803 1019 803 1019 559 c 2,19,-1
 1019 491 l 1,20,-1
 245 491 l 1,21,-1
 245 481 l 2,22,23
 245 327 245 327 332 235 c 128,-1,24
 419 143 419 143 563 143 c 0,25,26
 664 143 664 143 737.5 187.5 c 128,-1,27
 811 232 811 232 834 308 c 1,7,-1
228 1550 m 1,28,-1
 351 1550 l 1,29,30
 351 1464 351 1464 408.5 1405.5 c 128,-1,31
 466 1347 466 1347 550 1347 c 128,-1,32
 634 1347 634 1347 691.5 1405.5 c 128,-1,33
 749 1464 749 1464 749 1550 c 1,34,-1
 872 1550 l 1,35,36
 872 1412 872 1412 782.5 1326 c 128,-1,37
 693 1240 693 1240 550 1240 c 128,-1,38
 407 1240 407 1240 317.5 1326 c 128,-1,39
 228 1412 228 1412 228 1550 c 1,28,-1
EndSplineSet
EndChar

StartChar: Edotaccent
Encoding: 278 278 214
Width: 1131
GlyphClass: 2
Flags: W
LayerCount: 2
Fore
SplineSet
1034 162 m 1,0,-1
 1034 0 l 1,1,-1
 140 0 l 1,2,-1
 140 1443 l 1,3,-1
 1034 1443 l 1,4,-1
 1034 1281 l 1,5,-1
 320 1281 l 1,6,-1
 320 818 l 1,7,-1
 997 818 l 1,8,-1
 997 658 l 1,9,-1
 320 658 l 1,10,-1
 320 162 l 1,11,-1
 1034 162 l 1,0,-1
587 1585 m 128,-1,13
 537 1585 537 1585 501.5 1620.5 c 128,-1,14
 466 1656 466 1656 466 1706 c 128,-1,15
 466 1756 466 1756 501.5 1791.5 c 128,-1,16
 537 1827 537 1827 587 1827 c 128,-1,17
 637 1827 637 1827 672.5 1791.5 c 128,-1,18
 708 1756 708 1756 708 1706 c 128,-1,19
 708 1656 708 1656 672.5 1620.5 c 128,-1,12
 637 1585 637 1585 587 1585 c 128,-1,13
EndSplineSet
EndChar

StartChar: edotaccent
Encoding: 279 279 215
Width: 1084
GlyphClass: 2
Flags: W
LayerCount: 2
Fore
SplineSet
548 935 m 0,0,1
 421 935 421 935 337.5 851 c 128,-1,2
 254 767 254 767 245 630 c 1,3,-1
 838 630 l 1,4,5
 835 767 835 767 755.5 851 c 128,-1,6
 676 935 676 935 548 935 c 0,0,1
834 308 m 1,7,-1
 1006 308 l 1,8,9
 984 169 984 169 858 79.5 c 128,-1,10
 732 -10 732 -10 559 -10 c 0,11,12
 332 -10 332 -10 198.5 137 c 128,-1,13
 65 284 65 284 65 535 c 128,-1,14
 65 786 65 786 198 937 c 128,-1,15
 331 1088 331 1088 551 1088 c 0,16,17
 767 1088 767 1088 893 945.5 c 128,-1,18
 1019 803 1019 803 1019 559 c 2,19,-1
 1019 491 l 1,20,-1
 245 491 l 1,21,-1
 245 481 l 2,22,23
 245 327 245 327 332 235 c 128,-1,24
 419 143 419 143 563 143 c 0,25,26
 664 143 664 143 737.5 187.5 c 128,-1,27
 811 232 811 232 834 308 c 1,7,-1
551 1261 m 128,-1,29
 500 1261 500 1261 463.5 1297.5 c 128,-1,30
 427 1334 427 1334 427 1385 c 128,-1,31
 427 1436 427 1436 463.5 1472.5 c 128,-1,32
 500 1509 500 1509 551 1509 c 128,-1,33
 602 1509 602 1509 638.5 1472.5 c 128,-1,34
 675 1436 675 1436 675 1385 c 128,-1,35
 675 1334 675 1334 638.5 1297.5 c 128,-1,28
 602 1261 602 1261 551 1261 c 128,-1,29
EndSplineSet
EndChar

StartChar: Eogonek
Encoding: 280 280 216
Width: 1131
GlyphClass: 2
Flags: W
LayerCount: 2
Fore
SplineSet
794 0 m 1,0,-1
 140 0 l 1,1,-1
 140 1443 l 1,2,-1
 1034 1443 l 1,3,-1
 1034 1281 l 1,4,-1
 320 1281 l 1,5,-1
 320 818 l 1,6,-1
 997 818 l 1,7,-1
 997 658 l 1,8,-1
 320 658 l 1,9,-1
 320 162 l 1,10,-1
 1034 162 l 1,11,-1
 1034 38 l 1,12,13
 837 -51 837 -51 837 -186 c 0,14,15
 837 -236 837 -236 870.5 -267 c 128,-1,16
 904 -298 904 -298 959 -298 c 0,17,18
 1010 -298 1010 -298 1034 -289 c 1,19,-1
 1034 -412 l 1,20,21
 1001 -432 1001 -432 913 -432 c 0,22,23
 804 -432 804 -432 738 -373.5 c 128,-1,24
 672 -315 672 -315 672 -218 c 0,25,26
 672 -95 672 -95 794 0 c 1,0,-1
EndSplineSet
EndChar

StartChar: eogonek
Encoding: 281 281 217
Width: 1084
GlyphClass: 2
Flags: W
LayerCount: 2
Fore
SplineSet
756 -432 m 0,0,1
 659 -432 659 -432 594.5 -370 c 128,-1,2
 530 -308 530 -308 530 -215 c 0,3,4
 530 -157 530 -157 553.5 -109.5 c 128,-1,5
 577 -62 577 -62 630 -9 c 1,6,-1
 630 -6 l 1,7,8
 605 -10 605 -10 559 -10 c 0,9,10
 332 -10 332 -10 198.5 137 c 128,-1,11
 65 284 65 284 65 535 c 128,-1,12
 65 786 65 786 198 937 c 128,-1,13
 331 1088 331 1088 551 1088 c 0,14,15
 767 1088 767 1088 893 945.5 c 128,-1,16
 1019 803 1019 803 1019 559 c 2,17,-1
 1019 491 l 1,18,-1
 245 491 l 1,19,-1
 245 481 l 2,20,21
 245 327 245 327 332 235 c 128,-1,22
 419 143 419 143 563 143 c 0,23,24
 664 143 664 143 737.5 187.5 c 128,-1,25
 811 232 811 232 834 308 c 1,26,-1
 1006 308 l 1,27,28
 987 182 987 182 826 41 c 0,29,30
 753 -23 753 -23 720 -76 c 128,-1,31
 687 -129 687 -129 687 -182 c 0,32,33
 687 -229 687 -229 719.5 -259.5 c 128,-1,34
 752 -290 752 -290 802 -290 c 0,35,36
 850 -290 850 -290 877 -281 c 1,37,-1
 877 -412 l 1,38,39
 845 -432 845 -432 756 -432 c 0,0,1
548 935 m 0,40,41
 421 935 421 935 337.5 851 c 128,-1,42
 254 767 254 767 245 630 c 1,43,-1
 838 630 l 1,44,45
 835 767 835 767 755.5 851 c 128,-1,46
 676 935 676 935 548 935 c 0,40,41
EndSplineSet
EndChar

StartChar: Ecaron
Encoding: 282 282 218
Width: 1131
GlyphClass: 2
Flags: W
LayerCount: 2
Fore
SplineSet
1034 162 m 1,0,-1
 1034 0 l 1,1,-1
 140 0 l 1,2,-1
 140 1443 l 1,3,-1
 1034 1443 l 1,4,-1
 1034 1281 l 1,5,-1
 320 1281 l 1,6,-1
 320 818 l 1,7,-1
 997 818 l 1,8,-1
 997 658 l 1,9,-1
 320 658 l 1,10,-1
 320 162 l 1,11,-1
 1034 162 l 1,0,-1
516 1550 m 1,12,-1
 224 1849 l 1,13,-1
 392 1849 l 1,14,-1
 586 1648 l 1,15,-1
 588 1648 l 1,16,-1
 782 1849 l 1,17,-1
 950 1849 l 1,18,-1
 658 1550 l 1,19,-1
 516 1550 l 1,12,-1
EndSplineSet
EndChar

StartChar: ecaron
Encoding: 283 283 219
Width: 1084
GlyphClass: 2
Flags: W
LayerCount: 2
Fore
SplineSet
548 935 m 0,0,1
 421 935 421 935 337.5 851 c 128,-1,2
 254 767 254 767 245 630 c 1,3,-1
 838 630 l 1,4,5
 835 767 835 767 755.5 851 c 128,-1,6
 676 935 676 935 548 935 c 0,0,1
834 308 m 1,7,-1
 1006 308 l 1,8,9
 984 169 984 169 858 79.5 c 128,-1,10
 732 -10 732 -10 559 -10 c 0,11,12
 332 -10 332 -10 198.5 137 c 128,-1,13
 65 284 65 284 65 535 c 128,-1,14
 65 786 65 786 198 937 c 128,-1,15
 331 1088 331 1088 551 1088 c 0,16,17
 767 1088 767 1088 893 945.5 c 128,-1,18
 1019 803 1019 803 1019 559 c 2,19,-1
 1019 491 l 1,20,-1
 245 491 l 1,21,-1
 245 481 l 2,22,23
 245 327 245 327 332 235 c 128,-1,24
 419 143 419 143 563 143 c 0,25,26
 664 143 664 143 737.5 187.5 c 128,-1,27
 811 232 811 232 834 308 c 1,7,-1
613 1250 m 1,28,-1
 489 1250 l 1,29,-1
 212 1550 l 1,30,-1
 375 1550 l 1,31,-1
 548 1353 l 1,32,-1
 554 1353 l 1,33,-1
 727 1550 l 1,34,-1
 890 1550 l 1,35,-1
 613 1250 l 1,28,-1
EndSplineSet
EndChar

StartChar: Gcircumflex
Encoding: 284 284 220
Width: 1447
GlyphClass: 2
Flags: W
LayerCount: 2
Fore
SplineSet
1357 597 m 2,0,1
 1357 304 1357 304 1195.5 140 c 128,-1,2
 1034 -24 1034 -24 745 -24 c 0,3,4
 443 -24 443 -24 263.5 180.5 c 128,-1,5
 84 385 84 385 84 729 c 0,6,7
 84 1067 84 1067 263 1267 c 128,-1,8
 442 1467 442 1467 745 1467 c 0,9,10
 979 1467 979 1467 1143.5 1338.5 c 128,-1,11
 1308 1210 1308 1210 1348 995 c 1,12,-1
 1159 995 l 1,13,14
 1114 1141 1114 1141 1005.5 1221 c 128,-1,15
 897 1301 897 1301 745 1301 c 0,16,17
 522 1301 522 1301 395.5 1149.5 c 128,-1,18
 269 998 269 998 269 730 c 0,19,20
 269 458 269 458 397 300 c 128,-1,21
 525 142 525 142 745 142 c 0,22,23
 937 142 937 142 1057 255.5 c 128,-1,24
 1177 369 1177 369 1177 550 c 2,25,-1
 1177 576 l 1,26,-1
 770 576 l 1,27,-1
 770 734 l 1,28,-1
 1357 734 l 1,29,-1
 1357 597 l 2,0,1
674 1849 m 1,30,-1
 816 1849 l 1,31,-1
 1108 1550 l 1,32,-1
 940 1550 l 1,33,-1
 746 1751 l 1,34,-1
 744 1751 l 1,35,-1
 550 1550 l 1,36,-1
 382 1550 l 1,37,-1
 674 1849 l 1,30,-1
EndSplineSet
EndChar

StartChar: gcircumflex
Encoding: 285 285 221
Width: 1163
GlyphClass: 2
Flags: W
LayerCount: 2
Fore
SplineSet
554 155 m 0,0,1
 696 155 696 155 783.5 262.5 c 128,-1,2
 871 370 871 370 871 543 c 0,3,4
 871 717 871 717 783.5 825 c 128,-1,5
 696 933 696 933 554 933 c 0,6,7
 413 933 413 933 328 826.5 c 128,-1,8
 243 720 243 720 243 543 c 0,9,10
 243 367 243 367 328 261 c 128,-1,11
 413 155 413 155 554 155 c 0,0,1
557 -385 m 0,12,13
 374 -385 374 -385 252 -303.5 c 128,-1,14
 130 -222 130 -222 111 -88 c 1,15,-1
 292 -88 l 1,16,17
 311 -155 311 -155 385.5 -194.5 c 128,-1,18
 460 -234 460 -234 567 -234 c 0,19,20
 707 -234 707 -234 789 -166.5 c 128,-1,21
 871 -99 871 -99 871 16 c 2,22,-1
 871 185 l 1,23,-1
 867 185 l 1,24,25
 816 97 816 97 725 48.5 c 128,-1,26
 634 0 634 0 521 0 c 0,27,28
 316 0 316 0 190.5 149.5 c 128,-1,29
 65 299 65 299 65 543 c 0,30,31
 65 790 65 790 191 939 c 128,-1,32
 317 1088 317 1088 525 1088 c 0,33,34
 639 1088 639 1088 730.5 1040 c 128,-1,35
 822 992 822 992 876 903 c 1,36,-1
 879 903 l 1,37,-1
 879 1078 l 1,38,-1
 1045 1078 l 1,39,-1
 1045 30 l 2,40,41
 1045 -163 1045 -163 914.5 -274 c 128,-1,42
 784 -385 784 -385 557 -385 c 0,12,13
617 1550 m 1,43,-1
 894 1250 l 1,44,-1
 731 1250 l 1,45,-1
 558 1447 l 1,46,-1
 552 1447 l 1,47,-1
 379 1250 l 1,48,-1
 216 1250 l 1,49,-1
 493 1550 l 1,50,-1
 617 1550 l 1,43,-1
EndSplineSet
EndChar

StartChar: Gbreve
Encoding: 286 286 222
Width: 1447
GlyphClass: 2
Flags: W
LayerCount: 2
Fore
SplineSet
1357 597 m 2,0,1
 1357 304 1357 304 1195.5 140 c 128,-1,2
 1034 -24 1034 -24 745 -24 c 0,3,4
 443 -24 443 -24 263.5 180.5 c 128,-1,5
 84 385 84 385 84 729 c 0,6,7
 84 1067 84 1067 263 1267 c 128,-1,8
 442 1467 442 1467 745 1467 c 0,9,10
 979 1467 979 1467 1143.5 1338.5 c 128,-1,11
 1308 1210 1308 1210 1348 995 c 1,12,-1
 1159 995 l 1,13,14
 1114 1141 1114 1141 1005.5 1221 c 128,-1,15
 897 1301 897 1301 745 1301 c 0,16,17
 522 1301 522 1301 395.5 1149.5 c 128,-1,18
 269 998 269 998 269 730 c 0,19,20
 269 458 269 458 397 300 c 128,-1,21
 525 142 525 142 745 142 c 0,22,23
 937 142 937 142 1057 255.5 c 128,-1,24
 1177 369 1177 369 1177 550 c 2,25,-1
 1177 576 l 1,26,-1
 770 576 l 1,27,-1
 770 734 l 1,28,-1
 1357 734 l 1,29,-1
 1357 597 l 2,0,1
435 1849 m 1,30,-1
 554 1849 l 1,31,32
 554 1766 554 1766 609 1709.5 c 128,-1,33
 664 1653 664 1653 745 1653 c 128,-1,34
 826 1653 826 1653 881 1709.5 c 128,-1,35
 936 1766 936 1766 936 1849 c 1,36,-1
 1055 1849 l 1,37,38
 1055 1717 1055 1717 968.5 1633.5 c 128,-1,39
 882 1550 882 1550 745 1550 c 128,-1,40
 608 1550 608 1550 521.5 1633.5 c 128,-1,41
 435 1717 435 1717 435 1849 c 1,30,-1
EndSplineSet
EndChar

StartChar: gbreve
Encoding: 287 287 223
Width: 1163
GlyphClass: 2
Flags: W
LayerCount: 2
Fore
SplineSet
554 155 m 0,0,1
 696 155 696 155 783.5 262.5 c 128,-1,2
 871 370 871 370 871 543 c 0,3,4
 871 717 871 717 783.5 825 c 128,-1,5
 696 933 696 933 554 933 c 0,6,7
 413 933 413 933 328 826.5 c 128,-1,8
 243 720 243 720 243 543 c 0,9,10
 243 367 243 367 328 261 c 128,-1,11
 413 155 413 155 554 155 c 0,0,1
557 -385 m 0,12,13
 374 -385 374 -385 252 -303.5 c 128,-1,14
 130 -222 130 -222 111 -88 c 1,15,-1
 292 -88 l 1,16,17
 311 -155 311 -155 385.5 -194.5 c 128,-1,18
 460 -234 460 -234 567 -234 c 0,19,20
 707 -234 707 -234 789 -166.5 c 128,-1,21
 871 -99 871 -99 871 16 c 2,22,-1
 871 185 l 1,23,-1
 867 185 l 1,24,25
 816 97 816 97 725 48.5 c 128,-1,26
 634 0 634 0 521 0 c 0,27,28
 316 0 316 0 190.5 149.5 c 128,-1,29
 65 299 65 299 65 543 c 0,30,31
 65 790 65 790 191 939 c 128,-1,32
 317 1088 317 1088 525 1088 c 0,33,34
 639 1088 639 1088 730.5 1040 c 128,-1,35
 822 992 822 992 876 903 c 1,36,-1
 879 903 l 1,37,-1
 879 1078 l 1,38,-1
 1045 1078 l 1,39,-1
 1045 30 l 2,40,41
 1045 -163 1045 -163 914.5 -274 c 128,-1,42
 784 -385 784 -385 557 -385 c 0,12,13
232 1550 m 1,43,-1
 355 1550 l 1,44,45
 355 1464 355 1464 412.5 1405.5 c 128,-1,46
 470 1347 470 1347 554 1347 c 128,-1,47
 638 1347 638 1347 695.5 1405.5 c 128,-1,48
 753 1464 753 1464 753 1550 c 1,49,-1
 876 1550 l 1,50,51
 876 1412 876 1412 786.5 1326 c 128,-1,52
 697 1240 697 1240 554 1240 c 128,-1,53
 411 1240 411 1240 321.5 1326 c 128,-1,54
 232 1412 232 1412 232 1550 c 1,43,-1
EndSplineSet
EndChar

StartChar: Gdotaccent
Encoding: 288 288 224
Width: 1447
GlyphClass: 2
Flags: W
LayerCount: 2
Fore
SplineSet
1357 597 m 2,0,1
 1357 304 1357 304 1195.5 140 c 128,-1,2
 1034 -24 1034 -24 745 -24 c 0,3,4
 443 -24 443 -24 263.5 180.5 c 128,-1,5
 84 385 84 385 84 729 c 0,6,7
 84 1067 84 1067 263 1267 c 128,-1,8
 442 1467 442 1467 745 1467 c 0,9,10
 979 1467 979 1467 1143.5 1338.5 c 128,-1,11
 1308 1210 1308 1210 1348 995 c 1,12,-1
 1159 995 l 1,13,14
 1114 1141 1114 1141 1005.5 1221 c 128,-1,15
 897 1301 897 1301 745 1301 c 0,16,17
 522 1301 522 1301 395.5 1149.5 c 128,-1,18
 269 998 269 998 269 730 c 0,19,20
 269 458 269 458 397 300 c 128,-1,21
 525 142 525 142 745 142 c 0,22,23
 937 142 937 142 1057 255.5 c 128,-1,24
 1177 369 1177 369 1177 550 c 2,25,-1
 1177 576 l 1,26,-1
 770 576 l 1,27,-1
 770 734 l 1,28,-1
 1357 734 l 1,29,-1
 1357 597 l 2,0,1
745 1585 m 128,-1,31
 695 1585 695 1585 659.5 1620.5 c 128,-1,32
 624 1656 624 1656 624 1706 c 128,-1,33
 624 1756 624 1756 659.5 1791.5 c 128,-1,34
 695 1827 695 1827 745 1827 c 128,-1,35
 795 1827 795 1827 830.5 1791.5 c 128,-1,36
 866 1756 866 1756 866 1706 c 128,-1,37
 866 1656 866 1656 830.5 1620.5 c 128,-1,30
 795 1585 795 1585 745 1585 c 128,-1,31
EndSplineSet
EndChar

StartChar: gdotaccent
Encoding: 289 289 225
Width: 1163
GlyphClass: 2
Flags: W
LayerCount: 2
Fore
SplineSet
554 155 m 0,0,1
 696 155 696 155 783.5 262.5 c 128,-1,2
 871 370 871 370 871 543 c 0,3,4
 871 717 871 717 783.5 825 c 128,-1,5
 696 933 696 933 554 933 c 0,6,7
 413 933 413 933 328 826.5 c 128,-1,8
 243 720 243 720 243 543 c 0,9,10
 243 367 243 367 328 261 c 128,-1,11
 413 155 413 155 554 155 c 0,0,1
557 -385 m 0,12,13
 374 -385 374 -385 252 -303.5 c 128,-1,14
 130 -222 130 -222 111 -88 c 1,15,-1
 292 -88 l 1,16,17
 311 -155 311 -155 385.5 -194.5 c 128,-1,18
 460 -234 460 -234 567 -234 c 0,19,20
 707 -234 707 -234 789 -166.5 c 128,-1,21
 871 -99 871 -99 871 16 c 2,22,-1
 871 185 l 1,23,-1
 867 185 l 1,24,25
 816 97 816 97 725 48.5 c 128,-1,26
 634 0 634 0 521 0 c 0,27,28
 316 0 316 0 190.5 149.5 c 128,-1,29
 65 299 65 299 65 543 c 0,30,31
 65 790 65 790 191 939 c 128,-1,32
 317 1088 317 1088 525 1088 c 0,33,34
 639 1088 639 1088 730.5 1040 c 128,-1,35
 822 992 822 992 876 903 c 1,36,-1
 879 903 l 1,37,-1
 879 1078 l 1,38,-1
 1045 1078 l 1,39,-1
 1045 30 l 2,40,41
 1045 -163 1045 -163 914.5 -274 c 128,-1,42
 784 -385 784 -385 557 -385 c 0,12,13
555 1261 m 128,-1,44
 504 1261 504 1261 467.5 1297.5 c 128,-1,45
 431 1334 431 1334 431 1385 c 128,-1,46
 431 1436 431 1436 467.5 1472.5 c 128,-1,47
 504 1509 504 1509 555 1509 c 128,-1,48
 606 1509 606 1509 642.5 1472.5 c 128,-1,49
 679 1436 679 1436 679 1385 c 128,-1,50
 679 1334 679 1334 642.5 1297.5 c 128,-1,43
 606 1261 606 1261 555 1261 c 128,-1,44
EndSplineSet
EndChar

StartChar: Gcommaaccent
Encoding: 290 290 226
Width: 1447
GlyphClass: 2
Flags: W
LayerCount: 2
Fore
SplineSet
1357 597 m 2,0,1
 1357 304 1357 304 1195.5 140 c 128,-1,2
 1034 -24 1034 -24 745 -24 c 0,3,4
 443 -24 443 -24 263.5 180.5 c 128,-1,5
 84 385 84 385 84 729 c 0,6,7
 84 1067 84 1067 263 1267 c 128,-1,8
 442 1467 442 1467 745 1467 c 0,9,10
 979 1467 979 1467 1143.5 1338.5 c 128,-1,11
 1308 1210 1308 1210 1348 995 c 1,12,-1
 1159 995 l 1,13,14
 1114 1141 1114 1141 1005.5 1221 c 128,-1,15
 897 1301 897 1301 745 1301 c 0,16,17
 522 1301 522 1301 395.5 1149.5 c 128,-1,18
 269 998 269 998 269 730 c 0,19,20
 269 458 269 458 397 300 c 128,-1,21
 525 142 525 142 745 142 c 0,22,23
 937 142 937 142 1057 255.5 c 128,-1,24
 1177 369 1177 369 1177 550 c 2,25,-1
 1177 576 l 1,26,-1
 770 576 l 1,27,-1
 770 734 l 1,28,-1
 1357 734 l 1,29,-1
 1357 597 l 2,0,1
730 -541 m 1,30,-1
 604 -541 l 1,31,-1
 695 -172 l 1,32,-1
 848 -172 l 1,33,-1
 730 -541 l 1,30,-1
EndSplineSet
EndChar

StartChar: gcommaaccent
Encoding: 291 291 227
Width: 1163
GlyphClass: 2
Flags: W
LayerCount: 2
Fore
SplineSet
554 155 m 0,0,1
 696 155 696 155 783.5 262.5 c 128,-1,2
 871 370 871 370 871 543 c 0,3,4
 871 717 871 717 783.5 825 c 128,-1,5
 696 933 696 933 554 933 c 0,6,7
 413 933 413 933 328 826.5 c 128,-1,8
 243 720 243 720 243 543 c 0,9,10
 243 367 243 367 328 261 c 128,-1,11
 413 155 413 155 554 155 c 0,0,1
557 -385 m 0,12,13
 374 -385 374 -385 252 -303.5 c 128,-1,14
 130 -222 130 -222 111 -88 c 1,15,-1
 292 -88 l 1,16,17
 311 -155 311 -155 385.5 -194.5 c 128,-1,18
 460 -234 460 -234 567 -234 c 0,19,20
 707 -234 707 -234 789 -166.5 c 128,-1,21
 871 -99 871 -99 871 16 c 2,22,-1
 871 185 l 1,23,-1
 867 185 l 1,24,25
 816 97 816 97 725 48.5 c 128,-1,26
 634 0 634 0 521 0 c 0,27,28
 316 0 316 0 190.5 149.5 c 128,-1,29
 65 299 65 299 65 543 c 0,30,31
 65 790 65 790 191 939 c 128,-1,32
 317 1088 317 1088 525 1088 c 0,33,34
 639 1088 639 1088 730.5 1040 c 128,-1,35
 822 992 822 992 876 903 c 1,36,-1
 879 903 l 1,37,-1
 879 1078 l 1,38,-1
 1045 1078 l 1,39,-1
 1045 30 l 2,40,41
 1045 -163 1045 -163 914.5 -274 c 128,-1,42
 784 -385 784 -385 557 -385 c 0,12,13
542 -908 m 1,43,-1
 416 -908 l 1,44,-1
 507 -539 l 1,45,-1
 660 -539 l 1,46,-1
 542 -908 l 1,43,-1
EndSplineSet
EndChar

StartChar: Hcircumflex
Encoding: 292 292 228
Width: 1432
GlyphClass: 2
Flags: W
LayerCount: 2
Fore
SplineSet
1292 0 m 1,0,-1
 1112 0 l 1,1,-1
 1112 657 l 1,2,-1
 320 657 l 1,3,-1
 320 0 l 1,4,-1
 140 0 l 1,5,-1
 140 1443 l 1,6,-1
 320 1443 l 1,7,-1
 320 819 l 1,8,-1
 1112 819 l 1,9,-1
 1112 1443 l 1,10,-1
 1292 1443 l 1,11,-1
 1292 0 l 1,0,-1
645 1849 m 1,12,-1
 787 1849 l 1,13,-1
 1079 1550 l 1,14,-1
 911 1550 l 1,15,-1
 717 1751 l 1,16,-1
 715 1751 l 1,17,-1
 521 1550 l 1,18,-1
 353 1550 l 1,19,-1
 645 1849 l 1,12,-1
EndSplineSet
EndChar

StartChar: hcircumflex
Encoding: 293 293 229
Width: 1166
GlyphClass: 2
Flags: W
LayerCount: 2
Fore
SplineSet
128 0 m 1,0,-1
 128 1506 l 1,1,-1
 302 1506 l 1,2,-1
 302 903 l 1,3,-1
 306 903 l 1,4,5
 408 1088 408 1088 658 1088 c 0,6,7
 835 1088 835 1088 944 978 c 128,-1,8
 1053 868 1053 868 1053 688 c 2,9,-1
 1053 0 l 1,10,-1
 879 0 l 1,11,-1
 879 657 l 2,12,13
 879 786 879 786 806.5 859.5 c 128,-1,14
 734 933 734 933 606 933 c 0,15,16
 469 933 469 933 385.5 847 c 128,-1,17
 302 761 302 761 302 620 c 2,18,-1
 302 0 l 1,19,-1
 128 0 l 1,0,-1
145 1912 m 1,20,-1
 287 1912 l 1,21,-1
 579 1613 l 1,22,-1
 411 1613 l 1,23,-1
 217 1814 l 1,24,-1
 215 1814 l 1,25,-1
 21 1613 l 1,26,-1
 -147 1613 l 1,27,-1
 145 1912 l 1,20,-1
EndSplineSet
EndChar

StartChar: Hbar
Encoding: 294 294 230
Width: 1433
GlyphClass: 2
Flags: W
LayerCount: 2
Fore
SplineSet
1112 819 m 1,0,-1
 1112 1075 l 1,1,-1
 320 1075 l 1,2,-1
 320 819 l 1,3,-1
 1112 819 l 1,0,-1
1428 1218 m 1,4,-1
 1428 1075 l 1,5,-1
 1292 1075 l 1,6,-1
 1292 0 l 1,7,-1
 1112 0 l 1,8,-1
 1112 657 l 1,9,-1
 320 657 l 1,10,-1
 320 0 l 1,11,-1
 140 0 l 1,12,-1
 140 1075 l 1,13,-1
 5 1075 l 1,14,-1
 5 1218 l 1,15,-1
 140 1218 l 1,16,-1
 140 1443 l 1,17,-1
 320 1443 l 1,18,-1
 320 1218 l 1,19,-1
 1112 1218 l 1,20,-1
 1112 1443 l 1,21,-1
 1292 1443 l 1,22,-1
 1292 1218 l 1,23,-1
 1428 1218 l 1,4,-1
EndSplineSet
EndChar

StartChar: hbar
Encoding: 295 295 231
Width: 1204
GlyphClass: 2
Flags: W
LayerCount: 2
Fore
SplineSet
320 903 m 1,0,-1
 324 903 l 1,1,2
 426 1088 426 1088 676 1088 c 0,3,4
 853 1088 853 1088 962 978 c 128,-1,5
 1071 868 1071 868 1071 688 c 2,6,-1
 1071 0 l 1,7,-1
 897 0 l 1,8,-1
 897 657 l 2,9,10
 897 786 897 786 824.5 859.5 c 128,-1,11
 752 933 752 933 624 933 c 0,12,13
 487 933 487 933 403.5 847 c 128,-1,14
 320 761 320 761 320 620 c 2,15,-1
 320 0 l 1,16,-1
 146 0 l 1,17,-1
 146 1247 l 1,18,-1
 24 1247 l 1,19,-1
 24 1371 l 1,20,-1
 146 1371 l 1,21,-1
 146 1556 l 1,22,-1
 320 1556 l 1,23,-1
 320 1371 l 1,24,-1
 580 1371 l 1,25,-1
 580 1247 l 1,26,-1
 320 1247 l 1,27,-1
 320 903 l 1,0,-1
EndSplineSet
EndChar

StartChar: Itilde
Encoding: 296 296 232
Width: 460
GlyphClass: 2
Flags: W
LayerCount: 2
Fore
SplineSet
320 0 m 1,0,-1
 140 0 l 1,1,-1
 140 1443 l 1,2,-1
 320 1443 l 1,3,-1
 320 0 l 1,0,-1
358 1535 m 0,4,5
 322 1535 322 1535 290.5 1550.5 c 128,-1,6
 259 1566 259 1566 236.5 1588.5 c 128,-1,7
 214 1611 214 1611 194 1633.5 c 128,-1,8
 174 1656 174 1656 152 1671.5 c 128,-1,9
 130 1687 130 1687 109 1687 c 0,10,11
 76 1687 76 1687 58 1651.5 c 128,-1,12
 40 1616 40 1616 40 1550 c 1,13,-1
 -74 1550 l 1,14,15
 -74 1668 -74 1668 -27 1734 c 128,-1,16
 20 1800 20 1800 104 1800 c 0,17,18
 151 1800 151 1800 191.5 1776 c 128,-1,19
 232 1752 232 1752 255.5 1724 c 128,-1,20
 279 1696 279 1696 306.5 1672 c 128,-1,21
 334 1648 334 1648 358 1648 c 0,22,23
 420 1648 420 1648 420 1786 c 1,24,-1
 534 1786 l 1,25,26
 534 1671 534 1671 486 1603 c 128,-1,27
 438 1535 438 1535 358 1535 c 0,4,5
EndSplineSet
EndChar

StartChar: itilde
Encoding: 297 297 233
Width: 430
GlyphClass: 2
Flags: W
LayerCount: 2
Fore
SplineSet
128 0 m 1,0,-1
 128 1078 l 1,1,-1
 302 1078 l 1,2,-1
 302 0 l 1,3,-1
 128 0 l 1,0,-1
347 1258 m 0,4,5
 311 1258 311 1258 279.5 1273.5 c 128,-1,6
 248 1289 248 1289 225.5 1311.5 c 128,-1,7
 203 1334 203 1334 183 1356.5 c 128,-1,8
 163 1379 163 1379 141 1394.5 c 128,-1,9
 119 1410 119 1410 98 1410 c 0,10,11
 65 1410 65 1410 47 1374.5 c 128,-1,12
 29 1339 29 1339 29 1273 c 1,13,-1
 -85 1273 l 1,14,15
 -85 1391 -85 1391 -38 1457 c 128,-1,16
 9 1523 9 1523 93 1523 c 0,17,18
 131 1523 131 1523 164.5 1507.5 c 128,-1,19
 198 1492 198 1492 221 1469.5 c 128,-1,20
 244 1447 244 1447 264.5 1424.5 c 128,-1,21
 285 1402 285 1402 306 1386.5 c 128,-1,22
 327 1371 327 1371 347 1371 c 0,23,24
 409 1371 409 1371 409 1509 c 1,25,-1
 523 1509 l 1,26,27
 523 1394 523 1394 475 1326 c 128,-1,28
 427 1258 427 1258 347 1258 c 0,4,5
EndSplineSet
EndChar

StartChar: Imacron
Encoding: 298 298 234
Width: 460
GlyphClass: 2
Flags: W
LayerCount: 2
Fore
SplineSet
320 0 m 1,0,-1
 140 0 l 1,1,-1
 140 1443 l 1,2,-1
 320 1443 l 1,3,-1
 320 0 l 1,0,-1
547 1748 m 1,4,-1
 547 1642 l 1,5,-1
 -87 1642 l 1,6,-1
 -87 1748 l 1,7,-1
 547 1748 l 1,4,-1
EndSplineSet
EndChar

StartChar: imacron
Encoding: 299 299 235
Width: 430
GlyphClass: 2
Flags: W
LayerCount: 2
Fore
SplineSet
128 0 m 1,0,-1
 128 1078 l 1,1,-1
 302 1078 l 1,2,-1
 302 0 l 1,3,-1
 128 0 l 1,0,-1
532 1426 m 1,4,-1
 532 1320 l 1,5,-1
 -102 1320 l 1,6,-1
 -102 1426 l 1,7,-1
 532 1426 l 1,4,-1
EndSplineSet
EndChar

StartChar: Ibreve
Encoding: 300 300 236
Width: 460
GlyphClass: 2
Flags: W
LayerCount: 2
Fore
SplineSet
320 0 m 1,0,-1
 140 0 l 1,1,-1
 140 1443 l 1,2,-1
 320 1443 l 1,3,-1
 320 0 l 1,0,-1
-80 1849 m 1,4,-1
 39 1849 l 1,5,6
 39 1766 39 1766 94 1709.5 c 128,-1,7
 149 1653 149 1653 230 1653 c 128,-1,8
 311 1653 311 1653 366 1709.5 c 128,-1,9
 421 1766 421 1766 421 1849 c 1,10,-1
 540 1849 l 1,11,12
 540 1717 540 1717 453.5 1633.5 c 128,-1,13
 367 1550 367 1550 230 1550 c 128,-1,14
 93 1550 93 1550 6.5 1633.5 c 128,-1,15
 -80 1717 -80 1717 -80 1849 c 1,4,-1
EndSplineSet
EndChar

StartChar: ibreve
Encoding: 301 301 237
Width: 430
GlyphClass: 2
Flags: W
LayerCount: 2
Fore
SplineSet
128 0 m 1,0,-1
 128 1078 l 1,1,-1
 302 1078 l 1,2,-1
 302 0 l 1,3,-1
 128 0 l 1,0,-1
-108 1550 m 1,4,-1
 15 1550 l 1,5,6
 15 1464 15 1464 72.5 1405.5 c 128,-1,7
 130 1347 130 1347 214 1347 c 128,-1,8
 298 1347 298 1347 355.5 1405.5 c 128,-1,9
 413 1464 413 1464 413 1550 c 1,10,-1
 536 1550 l 1,11,12
 536 1412 536 1412 446.5 1326 c 128,-1,13
 357 1240 357 1240 214 1240 c 128,-1,14
 71 1240 71 1240 -18.5 1326 c 128,-1,15
 -108 1412 -108 1412 -108 1550 c 1,4,-1
EndSplineSet
EndChar

StartChar: Iogonek
Encoding: 302 302 238
Width: 460
GlyphClass: 2
Flags: W
LayerCount: 2
Fore
SplineSet
228 -432 m 0,0,1
 124 -432 124 -432 60.5 -373 c 128,-1,2
 -3 -314 -3 -314 -3 -217 c 0,3,4
 -3 -142 -3 -142 30.5 -85.5 c 128,-1,5
 64 -29 64 -29 140 23 c 1,6,-1
 140 1443 l 1,7,-1
 320 1443 l 1,8,-1
 320 13 l 1,9,10
 240 -23 240 -23 197 -73 c 128,-1,11
 154 -123 154 -123 154 -180 c 0,12,13
 154 -234 154 -234 186.5 -266 c 128,-1,14
 219 -298 219 -298 272 -298 c 0,15,16
 298 -298 298 -298 316 -295 c 1,17,-1
 316 -421 l 1,18,19
 274 -432 274 -432 228 -432 c 0,0,1
EndSplineSet
EndChar

StartChar: iogonek
Encoding: 303 303 239
Width: 430
GlyphClass: 2
Flags: W
LayerCount: 2
Fore
SplineSet
215 1252 m 0,0,1
 170 1252 170 1252 137.5 1284.5 c 128,-1,2
 105 1317 105 1317 105 1362 c 0,3,4
 105 1408 105 1408 137.5 1440 c 128,-1,5
 170 1472 170 1472 215 1472 c 0,6,7
 261 1472 261 1472 293 1440 c 128,-1,8
 325 1408 325 1408 325 1362 c 0,9,10
 325 1317 325 1317 293 1284.5 c 128,-1,11
 261 1252 261 1252 215 1252 c 0,0,1
213 -432 m 0,12,13
 109 -432 109 -432 45.5 -373 c 128,-1,14
 -18 -314 -18 -314 -18 -217 c 0,15,16
 -18 -65 -18 -65 128 23 c 1,17,-1
 128 1078 l 1,18,-1
 302 1078 l 1,19,-1
 302 19 l 1,20,21
 225 -16 225 -16 182 -68 c 128,-1,22
 139 -120 139 -120 139 -180 c 0,23,24
 139 -234 139 -234 171.5 -266 c 128,-1,25
 204 -298 204 -298 257 -298 c 0,26,27
 283 -298 283 -298 301 -295 c 1,28,-1
 301 -421 l 1,29,30
 260 -432 260 -432 213 -432 c 0,12,13
EndSplineSet
EndChar

StartChar: Idotaccent
Encoding: 304 304 240
Width: 460
GlyphClass: 2
Flags: W
LayerCount: 2
Fore
SplineSet
320 0 m 1,0,-1
 140 0 l 1,1,-1
 140 1443 l 1,2,-1
 320 1443 l 1,3,-1
 320 0 l 1,0,-1
230 1585 m 128,-1,5
 180 1585 180 1585 144.5 1620.5 c 128,-1,6
 109 1656 109 1656 109 1706 c 128,-1,7
 109 1756 109 1756 144.5 1791.5 c 128,-1,8
 180 1827 180 1827 230 1827 c 128,-1,9
 280 1827 280 1827 315.5 1791.5 c 128,-1,10
 351 1756 351 1756 351 1706 c 128,-1,11
 351 1656 351 1656 315.5 1620.5 c 128,-1,4
 280 1585 280 1585 230 1585 c 128,-1,5
EndSplineSet
EndChar

StartChar: dotlessi
Encoding: 305 305 241
Width: 430
GlyphClass: 2
Flags: W
LayerCount: 2
Fore
SplineSet
128 0 m 1,0,-1
 128 1078 l 1,1,-1
 302 1078 l 1,2,-1
 302 0 l 1,3,-1
 128 0 l 1,0,-1
EndSplineSet
EndChar

StartChar: u0132
Encoding: 306 306 242
Width: 1474
GlyphClass: 2
Flags: W
LayerCount: 2
Fore
SplineSet
320 0 m 1,0,-1
 140 0 l 1,1,-1
 140 1443 l 1,2,-1
 320 1443 l 1,3,-1
 320 0 l 1,0,-1
502 339 m 1,4,-1
 681 339 l 1,5,6
 684 247 684 247 747.5 189.5 c 128,-1,7
 811 132 811 132 909 132 c 0,8,9
 1028 132 1028 132 1091 201.5 c 128,-1,10
 1154 271 1154 271 1154 403 c 2,11,-1
 1154 1443 l 1,12,-1
 1334 1443 l 1,13,-1
 1334 402 l 2,14,15
 1334 197 1334 197 1222 81.5 c 128,-1,16
 1110 -34 1110 -34 910 -34 c 0,17,18
 730 -34 730 -34 616 70.5 c 128,-1,19
 502 175 502 175 502 339 c 1,4,-1
EndSplineSet
EndChar

StartChar: u0133
Encoding: 307 307 243
Width: 860
GlyphClass: 2
Flags: W
LayerCount: 2
Fore
SplineSet
128 0 m 1,0,-1
 128 1078 l 1,1,-1
 302 1078 l 1,2,-1
 302 0 l 1,3,-1
 128 0 l 1,0,-1
215 1252 m 0,4,5
 170 1252 170 1252 137.5 1284.5 c 128,-1,6
 105 1317 105 1317 105 1362 c 0,7,8
 105 1408 105 1408 137.5 1440 c 128,-1,9
 170 1472 170 1472 215 1472 c 0,10,11
 261 1472 261 1472 293 1440 c 128,-1,12
 325 1408 325 1408 325 1362 c 0,13,14
 325 1317 325 1317 293 1284.5 c 128,-1,15
 261 1252 261 1252 215 1252 c 0,4,5
732 1078 m 1,16,-1
 732 -81 l 2,17,18
 732 -245 732 -245 652.5 -321.5 c 128,-1,19
 573 -398 573 -398 401 -398 c 2,20,-1
 370 -398 l 1,21,-1
 370 -251 l 1,22,-1
 397 -251 l 2,23,24
 485 -251 485 -251 521.5 -213.5 c 128,-1,25
 558 -176 558 -176 558 -84 c 2,26,-1
 558 1078 l 1,27,-1
 732 1078 l 1,16,-1
645 1252 m 0,28,29
 600 1252 600 1252 567.5 1284.5 c 128,-1,30
 535 1317 535 1317 535 1362 c 0,31,32
 535 1408 535 1408 567.5 1440 c 128,-1,33
 600 1472 600 1472 645 1472 c 0,34,35
 691 1472 691 1472 723 1440 c 128,-1,36
 755 1408 755 1408 755 1362 c 0,37,38
 755 1317 755 1317 723 1284.5 c 128,-1,39
 691 1252 691 1252 645 1252 c 0,28,29
EndSplineSet
EndChar

StartChar: Jcircumflex
Encoding: 308 308 244
Width: 1014
GlyphClass: 2
Flags: W
LayerCount: 2
Fore
SplineSet
42 339 m 1,0,-1
 221 339 l 1,1,2
 224 247 224 247 287.5 189.5 c 128,-1,3
 351 132 351 132 449 132 c 0,4,5
 568 132 568 132 631 201.5 c 128,-1,6
 694 271 694 271 694 403 c 2,7,-1
 694 1443 l 1,8,-1
 874 1443 l 1,9,-1
 874 402 l 2,10,11
 874 197 874 197 762 81.5 c 128,-1,12
 650 -34 650 -34 450 -34 c 0,13,14
 270 -34 270 -34 156 70.5 c 128,-1,15
 42 175 42 175 42 339 c 1,0,-1
713 1849 m 1,16,-1
 855 1849 l 1,17,-1
 1147 1550 l 1,18,-1
 979 1550 l 1,19,-1
 785 1751 l 1,20,-1
 783 1751 l 1,21,-1
 589 1550 l 1,22,-1
 421 1550 l 1,23,-1
 713 1849 l 1,16,-1
EndSplineSet
EndChar

StartChar: jcircumflex
Encoding: 309 309 245
Width: 428
GlyphClass: 2
Flags: W
LayerCount: 2
Fore
SplineSet
300 1078 m 1,0,-1
 300 -81 l 2,1,2
 300 -246 300 -246 221 -322 c 128,-1,3
 142 -398 142 -398 -30 -398 c 2,4,-1
 -60 -398 l 1,5,-1
 -60 -251 l 1,6,-1
 -34 -251 l 2,7,8
 55 -251 55 -251 91.5 -213.5 c 128,-1,9
 128 -176 128 -176 128 -84 c 2,10,-1
 128 1078 l 1,11,-1
 300 1078 l 1,0,-1
276 1550 m 1,12,-1
 553 1250 l 1,13,-1
 390 1250 l 1,14,-1
 217 1447 l 1,15,-1
 211 1447 l 1,16,-1
 38 1250 l 1,17,-1
 -125 1250 l 1,18,-1
 152 1550 l 1,19,-1
 276 1550 l 1,12,-1
EndSplineSet
EndChar

StartChar: Kcommaaccent
Encoding: 310 310 246
Width: 1260
GlyphClass: 2
Flags: W
LayerCount: 2
Fore
SplineSet
320 0 m 1,0,-1
 140 0 l 1,1,-1
 140 1443 l 1,2,-1
 320 1443 l 1,3,-1
 320 739 l 1,4,-1
 330 739 l 1,5,-1
 967 1443 l 1,6,-1
 1194 1443 l 1,7,-1
 601 804 l 1,8,-1
 1247 0 l 1,9,-1
 1017 0 l 1,10,-1
 476 676 l 1,11,-1
 320 504 l 1,12,-1
 320 0 l 1,0,-1
594 -541 m 1,13,-1
 468 -541 l 1,14,-1
 559 -172 l 1,15,-1
 712 -172 l 1,16,-1
 594 -541 l 1,13,-1
EndSplineSet
EndChar

StartChar: kcommaaccent
Encoding: 311 311 247
Width: 1026
GlyphClass: 2
Flags: W
LayerCount: 2
Fore
SplineSet
302 596 m 1,0,-1
 785 1078 l 1,1,-1
 997 1078 l 1,2,-1
 526 612 l 1,3,-1
 1011 0 l 1,4,-1
 809 0 l 1,5,-1
 404 505 l 1,6,-1
 302 409 l 1,7,-1
 302 0 l 1,8,-1
 128 0 l 1,9,-1
 128 1506 l 1,10,-1
 302 1506 l 1,11,-1
 302 596 l 1,0,-1
541 -541 m 1,12,-1
 415 -541 l 1,13,-1
 506 -172 l 1,14,-1
 659 -172 l 1,15,-1
 541 -541 l 1,12,-1
EndSplineSet
EndChar

StartChar: Lacute
Encoding: 313 313 248
Width: 1074
GlyphClass: 2
Flags: W
LayerCount: 2
Fore
SplineSet
1016 162 m 1,0,-1
 1016 0 l 1,1,-1
 140 0 l 1,2,-1
 140 1443 l 1,3,-1
 320 1443 l 1,4,-1
 320 162 l 1,5,-1
 1016 162 l 1,0,-1
307 1550 m 1,6,-1
 159 1550 l 1,7,-1
 390 1849 l 1,8,-1
 588 1849 l 1,9,-1
 307 1550 l 1,6,-1
EndSplineSet
EndChar

StartChar: lacute
Encoding: 314 314 249
Width: 430
GlyphClass: 2
Flags: W
LayerCount: 2
Fore
SplineSet
128 0 m 1,0,-1
 128 1506 l 1,1,-1
 302 1506 l 1,2,-1
 302 0 l 1,3,-1
 128 0 l 1,0,-1
292 1613 m 1,4,-1
 144 1613 l 1,5,-1
 375 1912 l 1,6,-1
 573 1912 l 1,7,-1
 292 1613 l 1,4,-1
EndSplineSet
EndChar

